<svg width="800" height="600" xmlns="http://www.w3.org/2000/svg">
  <!-- Background -->
  <rect width="100%" height="100%" fill="lightblue" />

  <!-- Health Bars -->
  <rect x="50" y="20" width="300" height="20" fill="red" />
  <rect x="470" y="20" width="280" height="20" fill="red" />
  
  <!-- Health Bar Borders -->
  <rect x="50" y="20" width="300" height="20" fill="none" stroke="black" stroke-width="2" />
  <rect x="450" y="20" width="300" height="20" fill="none" stroke="black" stroke-width="2" />

  <!-- Player Names -->
  <text x="50" y="60" font-family="Arial" font-size="20" fill="black">Player 1</text>
  <text x="750" y="60" font-family="Arial" font-size="20" fill="black" text-anchor="end">Player 2</text>

  <!-- Timer -->
  <text x="400" y="50" font-family="Arial" font-size="30" fill="black" text-anchor="middle">01:30</text>

  <!-- Characters -->
  <circle cx="200" cy="400" r="50" fill="blue" />
  <circle cx="600" cy="400" r="50" fill="green" />

  <!-- Ground -->
  <rect x="0" y="450" width="800" height="20" fill="brown" />

  <!-- Spell Boxes for Player 1 -->
  <rect x="100" y="480" width="50" height="50" fill="lightgrey" stroke="black" stroke-width="2" />
  <text x="125" y="510" font-family="Arial" font-size="15" fill="black" text-anchor="middle">Spell 1</text>
  <rect x="160" y="480" width="50" height="50" fill="lightgrey" stroke="black" stroke-width="2" />
  <text x="185" y="510" font-family="Arial" font-size="15" fill="black" text-anchor="middle">Spell 2</text>
  <rect x="220" y="480" width="50" height="50" fill="lightgrey" stroke="black" stroke-width="2" />
  <text x="245" y="510" font-family="Arial" font-size="15" fill="black" text-anchor="middle">Spell 3</text>

  <!-- Spell Boxes for Player 2 -->
  <rect x="550" y="480" width="50" height="50" fill="lightgrey" stroke="black" stroke-width="2" />
  <text x="575" y="510" font-family="Arial" font-size="15" fill="black" text-anchor="middle">Spell 1</text>
  <rect x="610" y="480" width="50" height="50" fill="lightgrey" stroke="black" stroke-width="2" />
  <text x="635" y="510" font-family="Arial" font-size="15" fill="black" text-anchor="middle">Spell 2</text>
  <rect x="670" y="480" width="50" height="50" fill="lightgrey" stroke="black" stroke-width="2" />
  <text x="695" y="510" font-family="Arial" font-size="15" fill="black" text-anchor="middle">Spell 3</text>

  <!-- Bullets -->
  <circle cx="350" cy="400" r="10" fill="black" />
  <text x="350" y="420" font-family="Arial" font-size="12" fill="black" text-anchor="middle">spell</text>
  
  <circle cx="450" cy="400" r="10" fill="black" />
  <text x="450" y="420" font-family="Arial" font-size="12" fill="black" text-anchor="middle">spell</text>

  <!-- Shield -->
  <rect x="480" y="370" width="20" height="60" fill="silver" />
  <text x="490" y="445" font-family="Arial" font-size="12" fill="black" text-anchor="middle">shield</text>

  <!-- Player 1 Last Gesture -->
  <text x="200" y="300" font-family="Arial" font-size="48" text-anchor="middle">🖐️</text>
  <text x="200" y="250" font-family="Arial" font-size="12" fill="black" text-anchor="middle">last_gesture</text>

  <!-- Player 2 Last Gesture -->
  <text x="600" y="300" font-family="Arial" font-size="48" text-anchor="middle">✊</text>
  <text x="600" y="250" font-family="Arial" font-size="12" fill="black" text-anchor="middle">last_gesture</text>
</svg>