<svg version="1.0" xmlns="http://www.w3.org/2000/svg" width="300.000000pt" height="170.000000pt" viewBox="0 0 300.000000 170.000000" preserveAspectRatio="xMidYMid meet">  <g transform="translate(0.000000,170.000000) scale(0.100000,-0.100000)" fill="#00008b" stroke="none"> <path d="M2263 1083 c37 -2 97 -2 135 0 37 2 6 3 -68 3 -74 0 -105 -1 -67 -3z"/> <path d="M2156 1045 c-9 -13 -16 -29 -16 -35 0 -6 -12 -2 -26 9 -29 23 -85 28 -128 11 -15 -5 -28 -6 -31 0 -3 5 -27 7 -53 5 -62 -6 -69 -6 -125 1 -29 4 -53 2 -61 -5 -7 -6 -26 -8 -43 -5 -20 4 -33 1 -42 -10 -17 -20 -37 -21 -45 -1 -6 18 -37 20 -53 4 -9 -9 -18 -8 -37 5 -32 21 -90 21 -122 0 -19 -13 -28 -14 -37 -5 -16 16 -43 14 -61 -4 -14 -14 -18 -14 -38 -1 -13 9 -43 15 -68 14 -25 0 -64 3 -88 7 -36 7 -48 4 -72 -14 -35 -25 -43 -26 -60 -6 -16 19 -50 19 -78 0 -20 -15 -24 -14 -51 6 -24 17 -38 21 -72 16 -51 -7 -70 -24 -78 -74 -8 -48 -25 -49 -29 -3 -4 36 -26 70 -47 70 -7 0 -19 -8 -27 -17 -19 -22 -33 -151 -19 -173 15 -22 277 -28 330 -7 31 13 40 13 61 1 31 -17 81 -18 115 -2 19 9 28 9 37 0 17 -17 95 -15 124 4 23 16 26 15 44 -1 14 -13 30 -16 58 -13 23 4 48 0 63 -8 29 -16 71 -18 86 -3 7 7 111 11 320 12 249 2 313 5 327 16 14 12 15 16 2 30 -26 30 -27 56 -2 89 27 37 35 32 58 -38 10 -33 12 -54 5 -78 -7 -24 -6 -39 3 -57 13 -24 17 -25 120 -25 131 0 133 2 132 105 0 51 4 77 12 82 18 11 27 68 16 98 l-10 25 -139 0 c-136 0 -139 0 -155 -25z m272 -7 c7 -7 12 -19 12 -28 0 -18 -46 -70 -63 -71 -7 0 -2 -4 11 -9 23 -10 31 -53 11 -66 -8 -4 -8 -9 0 -17 6 -6 11 -24 11 -39 0 -26 -3 -28 -39 -28 -22 0 -42 6 -45 13 -5 10 -7 10 -12 0 -3 -8 -26 -13 -60 -13 -51 0 -54 1 -54 25 0 25 17 64 34 76 5 4 -1 10 -13 14 -16 5 -21 14 -21 39 0 19 -7 39 -15 46 -18 15 -19 42 -3 58 17 17 229 17 246 0z m-1818 -96 l0 -68 35 4 c21 3 35 0 35 -7 0 -6 7 -11 15 -11 12 0 15 15 15 73 l0 73 55 2 c42 1 55 -2 55 -13 0 -11 -12 -15 -45 -15 -38 0 -45 -3 -45 -20 0 -17 7 -20 40 -20 30 0 40 -4 40 -16 0 -12 -9 -15 -37 -12 -32 2 -38 0 -38 -17 0 -17 6 -19 39 -17 24 3 42 -1 47 -9 10 -17 8 -19 47 66 17 39 37 71 44 73 8 1 26 -27 45 -70 17 -40 36 -74 42 -76 6 -2 11 24 13 70 l3 73 47 -1 c25 0 53 -6 62 -13 21 -17 20 -50 -1 -73 -15 -17 -15 -19 2 -38 33 -37 44 -25 47 52 2 43 8 73 15 75 6 2 31 -22 55 -53 l43 -58 3 57 c2 42 7 57 17 57 12 0 15 -16 15 -75 l0 -75 31 0 c29 0 30 1 15 22 -37 53 1 128 64 128 64 0 105 -86 63 -132 -15 -17 -14 -18 27 -18 36 0 41 2 34 18 -4 9 -10 43 -12 75 -3 47 -1 57 12 57 13 0 16 -12 16 -60 0 -48 4 -61 19 -70 42 -22 65 9 59 83 -2 32 1 42 12 42 12 0 14 -12 11 -60 -2 -33 -8 -66 -13 -72 -8 -10 -3 -13 21 -13 34 0 31 -8 35 105 l1 40 54 0 c35 0 56 -5 58 -12 3 -9 -9 -13 -41 -13 -39 0 -46 -3 -46 -20 0 -17 7 -20 40 -20 30 0 40 -4 40 -16 0 -14 -7 -16 -40 -11 -35 4 -40 2 -40 -14 0 -16 7 -19 45 -19 25 0 45 -4 45 -10 0 -5 7 -10 15 -10 9 0 12 6 8 17 -6 16 5 16 47 -1 8 -3 22 -1 30 4 13 9 12 12 -4 25 -11 8 -27 15 -36 15 -9 0 -21 5 -28 12 -42 42 35 102 88 68 22 -14 3 -25 -36 -21 -44 3 -49 -27 -5 -35 17 -4 38 -15 48 -26 14 -16 15 -23 5 -39 -11 -18 -9 -19 28 -19 l40 0 0 60 c0 57 -1 60 -25 60 -14 0 -25 6 -25 14 0 18 121 17 128 -1 2 -8 -6 -13 -22 -13 -25 0 -26 -2 -26 -59 0 -57 1 -60 28 -64 15 -2 -125 -5 -310 -6 -245 -1 -337 -4 -335 -12 1 -6 -4 -14 -10 -16 -7 -3 -13 2 -13 11 0 13 -13 16 -67 16 l-68 0 -40 56 -40 56 -3 -56 -3 -56 -44 0 c-36 0 -48 5 -61 25 -9 14 -25 25 -35 25 -14 0 -19 -7 -19 -25 0 -22 -4 -25 -39 -25 -29 0 -41 5 -45 18 -5 14 -14 17 -44 14 -20 -3 -41 -11 -45 -18 -6 -11 -41 -14 -160 -13 -84 0 -146 3 -139 6 8 3 12 29 12 79 0 59 3 74 15 74 12 0 15 -14 15 -68z"/> <path d="M2197 1023 c-14 -13 -6 -33 13 -33 13 0 20 7 20 20 0 19 -20 27 -33 13z"/> <path d="M2250 1010 c0 -19 6 -20 86 -20 76 0 85 2 82 18 -3 14 -16 17 -86 20 -77 3 -82 2 -82 -18z"/> <path d="M2220 941 c0 -22 6 -30 25 -35 27 -7 32 -20 13 -33 -15 -9 -38 -48 -38 -63 0 -5 18 -10 39 -10 32 0 41 4 47 22 l7 22 17 -22 c23 -28 60 -30 60 -2 0 11 -4 20 -10 20 -5 0 -10 7 -10 15 0 8 5 15 10 15 24 0 8 37 -22 52 l-33 16 35 15 35 15 -87 1 -88 1 0 -29z m102 -28 c10 -9 18 -25 18 -36 0 -11 -3 -17 -7 -14 -3 4 -12 2 -19 -4 -12 -10 -32 6 -21 18 3 3 2 16 -3 29 -11 29 4 32 32 7z"/> <path d="M1040 956 c0 -23 4 -26 36 -26 31 0 35 3 32 23 -2 17 -11 23 -35 25 -30 3 -33 1 -33 -22z"/> <path d="M1392 968 c-19 -19 -14 -63 8 -83 18 -16 20 -16 20 -2 0 10 7 17 16 17 8 0 12 -4 9 -10 -3 -5 0 -10 8 -10 7 0 19 12 26 26 10 22 9 31 -4 50 -17 26 -62 33 -83 12z"/> <path d="M901 946 c-13 -33 -10 -39 17 -34 17 3 17 6 6 33 l-12 30 -11 -29z"/> </g> </svg>