<svg width="188" height="137" viewBox="0 0 188 137" fill="none" xmlns="http://www.w3.org/2000/svg">
<path d="M7.69488 81.2552C6.58728 81.2552 5.4797 81.0976 4.37209 80.7827C3.32279 80.4679 2.30263 79.9955 1.31163 79.3655C0.903565 79.0506 0.582946 78.6411 0.349767 78.1372C0.116589 77.5703 0 77.0665 0 76.6255C0 75.7437 0.291472 74.9879 0.874419 74.3579C1.45737 73.6651 2.12775 73.3186 2.88558 73.3186C3.41023 73.3186 3.87658 73.4445 4.28465 73.6965C5.68372 74.5155 6.96621 74.9248 8.13209 74.9248C10.5805 74.9248 11.8047 72.9721 11.8047 69.0669V45.1627C11.8047 44.2179 12.067 43.462 12.5916 42.8952C13.1746 42.3283 13.9324 42.0448 14.8651 42.0448C15.7978 42.0448 16.5265 42.3283 17.0512 42.8952C17.6341 43.462 17.9256 44.2179 17.9256 45.1627V69.2558C17.9256 73.2872 16.9054 76.3106 14.8651 78.3262C12.8831 80.2789 10.493 81.2552 7.69488 81.2552ZM43.4586 55.5558C43.4586 54.6741 43.7209 53.9496 44.2456 53.3827C44.8286 52.7528 45.5572 52.4379 46.4316 52.4379C47.2477 52.4379 47.9472 52.7528 48.5302 53.3827C49.1132 53.9496 49.4046 54.6741 49.4046 55.5558V68.8779C49.4046 71.7124 48.8216 74.043 47.6558 75.8696C46.49 77.6962 44.9742 79.0506 43.1088 79.9324C41.2435 80.8142 39.2614 81.2552 37.1628 81.2552C35.0642 81.2552 33.0821 80.8142 31.2167 79.9324C29.3514 79.0506 27.8356 77.6962 26.6698 75.8696C25.5039 74.043 24.9209 71.7124 24.9209 68.8779V55.5558C24.9209 54.6741 25.1833 53.9496 25.7079 53.3827C26.2909 52.7528 27.0195 52.4379 27.894 52.4379C28.71 52.4379 29.4095 52.7528 29.9926 53.3827C30.5756 53.9496 30.867 54.6741 30.867 55.5558V68.8779C30.867 71.2086 31.5081 72.8776 32.7907 73.8855C34.0732 74.8934 35.5305 75.3972 37.1628 75.3972C38.8533 75.3972 40.3107 74.8934 41.5349 73.8855C42.8174 72.8776 43.4586 71.2086 43.4586 68.8779V55.5558ZM95.382 81.2552C94.6241 81.2552 93.9246 81.0031 93.2834 80.4993C92.7004 79.9955 92.409 79.271 92.409 78.3262V66.4214C92.409 63.6499 91.826 61.6027 90.6601 60.28C89.5525 58.9572 88.066 58.2958 86.2006 58.2958C83.8106 58.2958 82.0618 59.1462 80.9541 60.8469C79.9048 62.4845 79.3801 64.3113 79.3801 66.3269V78.3262C79.3801 79.271 79.0595 79.9955 78.4183 80.4993C77.8353 81.0031 77.165 81.2552 76.4071 81.2552C75.6492 81.2552 74.9497 81.0031 74.3085 80.4993C73.7255 79.9955 73.4341 79.271 73.4341 78.3262V56.1227C73.4341 55.052 73.7255 54.2645 74.3085 53.7607C74.9497 53.1938 75.6492 52.9103 76.4071 52.9103C77.165 52.9103 77.8353 53.1938 78.4183 53.7607C79.0595 54.2645 79.3801 55.052 79.3801 56.1227C80.3711 55.052 81.6536 54.17 83.2276 53.4772C84.8015 52.7844 86.2881 52.4379 87.6871 52.4379C90.9516 52.4379 93.5457 53.5717 95.4695 55.8393C97.3932 58.1069 98.355 61.4452 98.355 65.8545V78.3262C98.355 79.271 98.0343 79.9955 97.3932 80.4993C96.752 81.0031 96.0815 81.2552 95.382 81.2552ZM116.224 81.2552C113.717 81.2552 111.473 80.6252 109.491 79.3655C107.509 78.1058 105.964 76.3735 104.857 74.1689C103.749 71.9014 103.195 69.3817 103.195 66.6103C103.195 63.9017 103.749 61.4768 104.857 59.3352C105.964 57.1935 107.509 55.5244 109.491 54.3276C111.473 53.0679 113.717 52.4379 116.224 52.4379C117.856 52.4379 119.314 52.7528 120.596 53.3827C121.878 53.9496 122.986 54.7055 123.919 55.6503C124.035 54.7686 124.385 54.1072 124.968 53.6662C125.551 53.1624 126.192 52.9103 126.892 52.9103C127.65 52.9103 128.32 53.1938 128.903 53.7607C129.544 54.2645 129.865 55.052 129.865 56.1227V78.3262C129.865 79.271 129.544 79.9955 128.903 80.4993C128.32 81.0031 127.65 81.2552 126.892 81.2552C126.134 81.2552 125.434 81.0031 124.793 80.4993C124.21 79.9955 123.919 79.271 123.919 78.3262V77.9483C122.986 78.9561 121.878 79.7434 120.596 80.3103C119.314 80.9403 117.856 81.2552 116.224 81.2552ZM116.749 75.3972C118.964 75.3972 120.713 74.6099 121.995 73.0351C123.277 71.3975 123.919 69.2558 123.919 66.6103C123.919 64.0907 123.277 62.0751 121.995 60.5634C120.713 59.0517 118.964 58.2958 116.749 58.2958C114.475 58.2958 112.639 59.0517 111.24 60.5634C109.841 62.0751 109.141 64.0907 109.141 66.6103C109.141 69.2558 109.841 71.3975 111.24 73.0351C112.639 74.6099 114.475 75.3972 116.749 75.3972ZM139.427 81.2552C138.669 81.2552 137.969 81.0031 137.328 80.4993C136.745 79.9955 136.454 79.271 136.454 78.3262V42.4227C136.454 41.352 136.745 40.5645 137.328 40.0607C137.969 39.4938 138.669 39.2103 139.427 39.2103C140.185 39.2103 140.855 39.4938 141.438 40.0607C142.079 40.5645 142.4 41.352 142.4 42.4227V78.3262C142.4 79.271 142.079 79.9955 141.438 80.4993C140.855 81.0031 140.185 81.2552 139.427 81.2552ZM152.665 81.2552C151.907 81.2552 151.207 81.0031 150.566 80.4993C149.983 79.9955 149.691 79.271 149.691 78.3262V55.6503C149.691 54.5796 149.983 53.7921 150.566 53.2883C151.207 52.7214 151.907 52.4379 152.665 52.4379C153.422 52.4379 154.093 52.7214 154.676 53.2883C155.317 53.7921 155.638 54.5796 155.638 55.6503V78.3262C155.638 79.271 155.317 79.9955 154.676 80.4993C154.093 81.0031 153.422 81.2552 152.665 81.2552ZM152.752 47.2414C151.645 47.2414 150.683 46.8634 149.866 46.1076C149.109 45.2886 148.73 44.3124 148.73 43.1786C148.73 42.1079 149.109 41.1945 149.866 40.4386C150.683 39.6197 151.645 39.2103 152.752 39.2103C153.801 39.2103 154.705 39.6197 155.463 40.4386C156.221 41.1945 156.599 42.1079 156.599 43.1786C156.599 44.3124 156.221 45.2886 155.463 46.1076C154.705 46.8634 153.801 47.2414 152.752 47.2414ZM165.728 81.2552C164.97 81.2552 164.27 81.0031 163.629 80.4993C163.046 79.9955 162.755 79.271 162.755 78.3262V42.4227C162.755 41.352 163.046 40.5645 163.629 40.0607C164.27 39.4938 164.97 39.2103 165.728 39.2103C166.485 39.2103 167.156 39.4938 167.739 40.0607C168.38 40.5645 168.701 41.352 168.701 42.4227V60.8469C168.701 61.4768 168.788 61.7917 168.963 61.7917C169.138 61.7917 169.371 61.6658 169.663 61.4138L180.505 53.0048C181.147 52.6269 181.73 52.4379 182.254 52.4379C183.07 52.4379 183.741 52.7528 184.265 53.3827C184.79 53.9496 185.052 54.5796 185.052 55.2724C185.052 56.3431 184.586 57.1935 183.653 57.8234L174.734 63.8703C174.21 64.2483 173.947 64.6262 173.947 65.0041C173.947 65.382 174.151 65.7914 174.559 66.2324L184.09 75.9641C184.732 76.783 185.052 77.5389 185.052 78.2317C185.052 79.0506 184.761 79.7434 184.178 80.3103C183.595 80.9403 182.924 81.2552 182.167 81.2552C181.409 81.2552 180.709 80.9086 180.068 80.2158L169.837 69.2558C169.429 68.8148 169.167 68.5945 169.05 68.5945C168.817 68.5945 168.701 68.9724 168.701 69.7283V78.3262C168.701 79.271 168.38 79.9955 167.739 80.4993C167.156 81.0031 166.485 81.2552 165.728 81.2552Z" fill="black"/>
<path d="M54.6512 77.0625V56.4929C54.6512 55.771 55.2414 54.3276 57.6023 54.3276C59.9632 54.3276 60.5535 55.771 60.5535 56.4929V77.0625C60.5535 78.145 59.9632 80.3103 57.6023 80.3103C55.2414 80.3103 54.6512 78.145 54.6512 77.0625Z" fill="black" stroke="black" stroke-width="0.2"/>
<path d="M152.5 48C154.985 48 157 45.9853 157 43.5C157 41.0147 154.985 39 152.5 39C150.015 39 148 41.0147 148 43.5C148 45.9853 150.015 48 152.5 48Z" fill="#2A0ED3"/>
<path d="M66.3734 63.5463C68.8587 63.5463 70.8734 61.5316 70.8734 59.0463C70.8734 56.561 68.8587 54.5463 66.3734 54.5463C63.8881 54.5463 61.8734 56.561 61.8734 59.0463C61.8734 61.5316 63.8881 63.5463 66.3734 63.5463Z" fill="#2A0ED3"/>
</svg>
