<?xml version="1.0" encoding="UTF-8"?>
<!DOCTYPE svg PUBLIC "-//W3C//DTD SVG 1.1//EN" "http://www.w3.org/Graphics/SVG/1.1/DTD/svg11.dtd">
<svg xmlns="http://www.w3.org/2000/svg" xmlns:xlink="http://www.w3.org/1999/xlink" version="1.1" width="910px" height="491px" viewBox="-0.5 -0.5 910 491" style="background-color: rgb(255, 255, 255);"><defs><clipPath id="mx-clip-605-385-30-30-0"><rect x="605" y="385" width="30" height="30"/></clipPath><clipPath id="mx-clip-641-385-214-30-0"><rect x="641" y="385" width="214" height="30"/></clipPath><clipPath id="mx-clip-605-415-30-30-0"><rect x="605" y="415" width="30" height="30"/></clipPath><clipPath id="mx-clip-641-415-214-30-0"><rect x="641" y="415" width="214" height="30"/></clipPath><clipPath id="mx-clip-641-445-214-30-0"><rect x="641" y="445" width="214" height="30"/></clipPath><clipPath id="mx-clip-295-35-30-30-0"><rect x="295" y="35" width="30" height="30"/></clipPath><clipPath id="mx-clip-331-35-214-30-0"><rect x="331" y="35" width="214" height="30"/></clipPath><clipPath id="mx-clip-331-65-214-30-0"><rect x="331" y="65" width="214" height="30"/></clipPath><clipPath id="mx-clip-331-95-214-30-0"><rect x="331" y="95" width="214" height="30"/></clipPath><clipPath id="mx-clip-331-125-214-30-0"><rect x="331" y="125" width="214" height="30"/></clipPath><clipPath id="mx-clip-331-155-214-30-0"><rect x="331" y="155" width="214" height="30"/></clipPath><clipPath id="mx-clip-331-185-214-30-0"><rect x="331" y="185" width="214" height="30"/></clipPath><clipPath id="mx-clip-331-215-214-30-0"><rect x="331" y="215" width="214" height="30"/></clipPath><clipPath id="mx-clip-331-245-214-30-0"><rect x="331" y="245" width="214" height="30"/></clipPath><clipPath id="mx-clip-605-225-30-30-0"><rect x="605" y="225" width="30" height="30"/></clipPath><clipPath id="mx-clip-641-225-214-30-0"><rect x="641" y="225" width="214" height="30"/></clipPath><clipPath id="mx-clip-641-255-214-30-0"><rect x="641" y="255" width="214" height="30"/></clipPath><clipPath id="mx-clip-641-285-214-30-0"><rect x="641" y="285" width="214" height="30"/></clipPath><clipPath id="mx-clip-5-35-30-30-0"><rect x="5" y="35" width="30" height="30"/></clipPath><clipPath id="mx-clip-41-35-194-30-0"><rect x="41" y="35" width="194" height="30"/></clipPath><clipPath id="mx-clip-41-65-194-30-0"><rect x="41" y="65" width="194" height="30"/></clipPath><clipPath id="mx-clip-41-95-194-30-0"><rect x="41" y="95" width="194" height="30"/></clipPath><clipPath id="mx-clip-41-125-194-30-0"><rect x="41" y="125" width="194" height="30"/></clipPath><clipPath id="mx-clip-41-155-194-30-0"><rect x="41" y="155" width="194" height="30"/></clipPath><clipPath id="mx-clip-41-185-194-30-0"><rect x="41" y="185" width="194" height="30"/></clipPath><clipPath id="mx-clip-41-215-194-30-0"><rect x="41" y="215" width="194" height="30"/></clipPath><clipPath id="mx-clip-41-245-194-30-0"><rect x="41" y="245" width="194" height="30"/></clipPath><clipPath id="mx-clip-41-275-194-30-0"><rect x="41" y="275" width="194" height="30"/></clipPath><clipPath id="mx-clip-605-385-30-30-0"><rect x="605" y="385" width="30" height="30"/></clipPath><clipPath id="mx-clip-641-385-214-30-0"><rect x="641" y="385" width="214" height="30"/></clipPath><clipPath id="mx-clip-605-415-30-30-0"><rect x="605" y="415" width="30" height="30"/></clipPath><clipPath id="mx-clip-641-415-214-30-0"><rect x="641" y="415" width="214" height="30"/></clipPath><clipPath id="mx-clip-641-445-214-30-0"><rect x="641" y="445" width="214" height="30"/></clipPath><clipPath id="mx-clip-605-35-30-30-0"><rect x="605" y="35" width="30" height="30"/></clipPath><clipPath id="mx-clip-641-35-214-30-0"><rect x="641" y="35" width="214" height="30"/></clipPath><clipPath id="mx-clip-641-65-214-30-0"><rect x="641" y="65" width="214" height="30"/></clipPath><clipPath id="mx-clip-641-95-214-30-0"><rect x="641" y="95" width="214" height="30"/></clipPath><clipPath id="mx-clip-641-125-214-30-0"><rect x="641" y="125" width="214" height="30"/></clipPath><clipPath id="mx-clip-295-215-30-30-0"><rect x="295" y="215" width="30" height="30"/></clipPath><clipPath id="mx-clip-295-245-30-30-0"><rect x="295" y="245" width="30" height="30"/></clipPath><clipPath id="mx-clip-605-255-30-30-0"><rect x="605" y="255" width="30" height="30"/></clipPath><clipPath id="mx-clip-5-65-30-30-0"><rect x="5" y="65" width="30" height="30"/></clipPath><clipPath id="mx-clip-605-125-30-30-0"><rect x="605" y="125" width="30" height="30"/></clipPath><style type="text/css">@import url(https://fonts.googleapis.com/css2?family=Permanent+Marker:wght@400;500);&#xa;</style></defs><rect fill="#ffffff" width="100%" height="100%" x="0" y="0"/><g><g><path d="M 605 385 L 605 355 L 855 355 L 855 385" fill="rgb(255, 255, 255)" stroke="rgb(0, 0, 0)" stroke-miterlimit="10" pointer-events="all"/><path d="M 605 385 L 605 485 L 855 485 L 855 385" fill="none" stroke="rgb(0, 0, 0)" stroke-miterlimit="10" pointer-events="none"/><path d="M 605 385 L 855 385" fill="none" stroke="rgb(0, 0, 0)" stroke-miterlimit="10" pointer-events="none"/><path d="M 635 385 L 635 415 L 635 445 L 635 475" fill="none" stroke="rgb(0, 0, 0)" stroke-miterlimit="10" pointer-events="none"/></g><g><g fill="rgb(0, 0, 0)" font-family="Helvetica" font-weight="bold" text-anchor="middle" font-size="12px"><text x="729.5" y="374.5">Users</text></g></g><g><path d="M 605 385 M 855 385 M 855 415 L 605 415" fill="none" stroke="rgb(0, 0, 0)" stroke-linecap="square" stroke-miterlimit="10" pointer-events="none"/></g><g><rect x="605" y="385" width="30" height="30" fill="none" stroke="none" pointer-events="all"/><path d="M 605 385 M 635 385 M 635 415 M 605 415" fill="none" stroke="rgb(0, 0, 0)" stroke-linecap="square" stroke-miterlimit="10" pointer-events="all"/></g><g><g fill="rgb(0, 0, 0)" font-family="Helvetica" font-weight="bold" clip-path="url(#mx-clip-605-385-30-30-0)" text-anchor="middle" font-size="12px"><text x="619.5" y="404.5">PK</text></g></g><g><rect x="635" y="385" width="220" height="30" fill="none" stroke="none" pointer-events="all"/><path d="M 635 385 M 855 385 M 855 415 M 635 415" fill="none" stroke="rgb(0, 0, 0)" stroke-linecap="square" stroke-miterlimit="10" pointer-events="all"/></g><g><g fill="rgb(0, 0, 0)" font-family="Helvetica" font-weight="bold" text-decoration="underline" clip-path="url(#mx-clip-641-385-214-30-0)" font-size="12px"><text x="642.5" y="404.5">user_id int NOT NULL </text></g></g><g><path d="M 605 415 M 855 415 M 855 445 M 605 445" fill="none" stroke="rgb(0, 0, 0)" stroke-linecap="square" stroke-miterlimit="10" pointer-events="none"/></g><g><rect x="605" y="415" width="30" height="30" fill="none" stroke="none" pointer-events="all"/><path d="M 605 415 M 635 415 M 635 445 M 605 445" fill="none" stroke="rgb(0, 0, 0)" stroke-linecap="square" stroke-miterlimit="10" pointer-events="all"/></g><g><g fill="rgb(0, 0, 0)" font-family="Helvetica" clip-path="url(#mx-clip-605-415-30-30-0)" text-anchor="middle" font-size="12px"><text x="619.5" y="434.5">FK1</text></g></g><g><rect x="635" y="415" width="220" height="30" fill="none" stroke="none" pointer-events="all"/><path d="M 635 415 M 855 415 M 855 445 M 635 445" fill="none" stroke="rgb(0, 0, 0)" stroke-linecap="square" stroke-miterlimit="10" pointer-events="all"/></g><g><g fill="rgb(0, 0, 0)" font-family="Helvetica" clip-path="url(#mx-clip-641-415-214-30-0)" font-size="12px"><text x="642.5" y="434.5">name char(100) NOT NULL</text></g></g><g><path d="M 605 445 M 855 445 M 855 475 M 605 475" fill="none" stroke="rgb(0, 0, 0)" stroke-linecap="square" stroke-miterlimit="10" pointer-events="none"/></g><g><rect x="605" y="445" width="30" height="30" fill="none" stroke="none" pointer-events="all"/><path d="M 605 445 M 635 445 M 635 475 M 605 475" fill="none" stroke="rgb(0, 0, 0)" stroke-linecap="square" stroke-miterlimit="10" pointer-events="all"/></g><g><rect x="635" y="445" width="220" height="30" fill="none" stroke="none" pointer-events="all"/><path d="M 635 445 M 855 445 M 855 475 M 635 475" fill="none" stroke="rgb(0, 0, 0)" stroke-linecap="square" stroke-miterlimit="10" pointer-events="all"/></g><g><g fill="rgb(0, 0, 0)" font-family="Helvetica" clip-path="url(#mx-clip-641-445-214-30-0)" font-size="12px"><text x="642.5" y="464.5">password_hash </text></g></g><g><path d="M 295 35 L 295 5 L 545 5 L 545 35" fill="rgb(255, 255, 255)" stroke="rgb(0, 0, 0)" stroke-miterlimit="10" pointer-events="all"/><path d="M 295 35 L 295 285 L 545 285 L 545 35" fill="none" stroke="rgb(0, 0, 0)" stroke-miterlimit="10" pointer-events="none"/><path d="M 295 35 L 545 35" fill="none" stroke="rgb(0, 0, 0)" stroke-miterlimit="10" pointer-events="none"/><path d="M 325 35 L 325 65 L 325 95 L 325 125 L 325 155 L 325 185 L 325 215 L 325 245 L 325 275" fill="none" stroke="rgb(0, 0, 0)" stroke-miterlimit="10" pointer-events="none"/></g><g><g fill="rgb(0, 0, 0)" font-family="Helvetica" font-weight="bold" text-anchor="middle" font-size="12px"><text x="419.5" y="24.5">Links</text></g></g><g><path d="M 295 35 M 545 35 M 545 65 L 295 65" fill="none" stroke="rgb(0, 0, 0)" stroke-linecap="square" stroke-miterlimit="10" pointer-events="none"/></g><g><rect x="295" y="35" width="30" height="30" fill="none" stroke="none" pointer-events="all"/><path d="M 295 35 M 325 35 M 325 65 M 295 65" fill="none" stroke="rgb(0, 0, 0)" stroke-linecap="square" stroke-miterlimit="10" pointer-events="all"/></g><g><g fill="rgb(0, 0, 0)" font-family="Helvetica" font-weight="bold" clip-path="url(#mx-clip-295-35-30-30-0)" text-anchor="middle" font-size="12px"><text x="309.5" y="54.5">PK</text></g></g><g><rect x="325" y="35" width="220" height="30" fill="none" stroke="none" pointer-events="all"/><path d="M 325 35 M 545 35 M 545 65 M 325 65" fill="none" stroke="rgb(0, 0, 0)" stroke-linecap="square" stroke-miterlimit="10" pointer-events="all"/></g><g><g fill="rgb(0, 0, 0)" font-family="Helvetica" font-weight="bold" text-decoration="underline" clip-path="url(#mx-clip-331-35-214-30-0)" font-size="12px"><text x="332.5" y="54.5">short_id char(10) NOT NULL </text></g></g><g><path d="M 295 65 M 545 65 M 545 95 M 295 95" fill="none" stroke="rgb(0, 0, 0)" stroke-linecap="square" stroke-miterlimit="10" pointer-events="none"/></g><g><rect x="295" y="65" width="30" height="30" fill="none" stroke="none" pointer-events="all"/><path d="M 295 65 M 325 65 M 325 95 M 295 95" fill="none" stroke="rgb(0, 0, 0)" stroke-linecap="square" stroke-miterlimit="10" pointer-events="all"/></g><g><rect x="325" y="65" width="220" height="30" fill="none" stroke="none" pointer-events="all"/><path d="M 325 65 M 545 65 M 545 95 M 325 95" fill="none" stroke="rgb(0, 0, 0)" stroke-linecap="square" stroke-miterlimit="10" pointer-events="all"/></g><g><g fill="rgb(0, 0, 0)" font-family="Helvetica" clip-path="url(#mx-clip-331-65-214-30-0)" font-size="12px"><text x="332.5" y="84.5">redirect_url char(200) NOT NULL</text></g></g><g><path d="M 295 95 M 545 95 M 545 125 M 295 125" fill="none" stroke="rgb(0, 0, 0)" stroke-linecap="square" stroke-miterlimit="10" pointer-events="none"/></g><g><rect x="295" y="95" width="30" height="30" fill="none" stroke="none" pointer-events="all"/><path d="M 295 95 M 325 95 M 325 125 M 295 125" fill="none" stroke="rgb(0, 0, 0)" stroke-linecap="square" stroke-miterlimit="10" pointer-events="all"/></g><g><rect x="325" y="95" width="220" height="30" fill="none" stroke="none" pointer-events="all"/><path d="M 325 95 M 545 95 M 545 125 M 325 125" fill="none" stroke="rgb(0, 0, 0)" stroke-linecap="square" stroke-miterlimit="10" pointer-events="all"/></g><g><g fill="rgb(0, 0, 0)" font-family="Helvetica" clip-path="url(#mx-clip-331-95-214-30-0)" font-size="12px"><text x="332.5" y="114.5">expiration_date date</text></g></g><g><path d="M 295 125 M 545 125 M 545 155 M 295 155" fill="none" stroke="rgb(0, 0, 0)" stroke-linecap="square" stroke-miterlimit="10" pointer-events="none"/></g><g><rect x="295" y="125" width="30" height="30" fill="none" stroke="none" pointer-events="all"/><path d="M 295 125 M 325 125 M 325 155 M 295 155" fill="none" stroke="rgb(0, 0, 0)" stroke-linecap="square" stroke-miterlimit="10" pointer-events="all"/></g><g><rect x="325" y="125" width="220" height="30" fill="none" stroke="none" pointer-events="all"/><path d="M 325 125 M 545 125 M 545 155 M 325 155" fill="none" stroke="rgb(0, 0, 0)" stroke-linecap="square" stroke-miterlimit="10" pointer-events="all"/></g><g><g fill="rgb(0, 0, 0)" font-family="Helvetica" clip-path="url(#mx-clip-331-125-214-30-0)" font-size="12px"><text x="332.5" y="144.5">redirects_limit int </text></g></g><g><path d="M 295 155 M 545 155 M 545 185 M 295 185" fill="none" stroke="rgb(0, 0, 0)" stroke-linecap="square" stroke-miterlimit="10" pointer-events="none"/></g><g><rect x="295" y="155" width="30" height="30" fill="none" stroke="none" pointer-events="all"/><path d="M 295 155 M 325 155 M 325 185 M 295 185" fill="none" stroke="rgb(0, 0, 0)" stroke-linecap="square" stroke-miterlimit="10" pointer-events="all"/></g><g><rect x="325" y="155" width="220" height="30" fill="none" stroke="none" pointer-events="all"/><path d="M 325 155 M 545 155 M 545 185 M 325 185" fill="none" stroke="rgb(0, 0, 0)" stroke-linecap="square" stroke-miterlimit="10" pointer-events="all"/></g><g><g fill="rgb(0, 0, 0)" font-family="Helvetica" clip-path="url(#mx-clip-331-155-214-30-0)" font-size="12px"><text x="332.5" y="174.5">redirects_left int</text></g></g><g><path d="M 295 185 M 545 185 M 545 215 M 295 215" fill="none" stroke="rgb(0, 0, 0)" stroke-linecap="square" stroke-miterlimit="10" pointer-events="none"/></g><g><rect x="295" y="185" width="30" height="30" fill="none" stroke="none" pointer-events="all"/><path d="M 295 185 M 325 185 M 325 215 M 295 215" fill="none" stroke="rgb(0, 0, 0)" stroke-linecap="square" stroke-miterlimit="10" pointer-events="all"/></g><g><rect x="325" y="185" width="220" height="30" fill="none" stroke="none" pointer-events="all"/><path d="M 325 185 M 545 185 M 545 215 M 325 215" fill="none" stroke="rgb(0, 0, 0)" stroke-linecap="square" stroke-miterlimit="10" pointer-events="all"/></g><g><g fill="rgb(0, 0, 0)" font-family="Helvetica" clip-path="url(#mx-clip-331-185-214-30-0)" font-size="12px"><text x="332.5" y="204.5">passphrase char(100)  </text></g></g><g><path d="M 295 215 M 545 215 M 545 245 M 295 245" fill="none" stroke="rgb(0, 0, 0)" stroke-linecap="square" stroke-miterlimit="10" pointer-events="none"/></g><g><rect x="295" y="215" width="30" height="30" fill="none" stroke="none" pointer-events="all"/><path d="M 295 215 M 325 215 M 325 245 M 295 245" fill="none" stroke="rgb(0, 0, 0)" stroke-linecap="square" stroke-miterlimit="10" pointer-events="all"/></g><g><rect x="325" y="215" width="220" height="30" fill="none" stroke="none" pointer-events="all"/><path d="M 325 215 M 545 215 M 545 245 M 325 245" fill="none" stroke="rgb(0, 0, 0)" stroke-linecap="square" stroke-miterlimit="10" pointer-events="all"/></g><g><g fill="rgb(0, 0, 0)" font-family="Helvetica" clip-path="url(#mx-clip-331-215-214-30-0)" font-size="12px"><text x="332.5" y="234.5">banner_id int</text></g></g><g><path d="M 295 245 M 545 245 M 545 275 M 295 275" fill="none" stroke="rgb(0, 0, 0)" stroke-linecap="square" stroke-miterlimit="10" pointer-events="none"/></g><g><rect x="295" y="245" width="30" height="30" fill="none" stroke="none" pointer-events="all"/><path d="M 295 245 M 325 245 M 325 275 M 295 275" fill="none" stroke="rgb(0, 0, 0)" stroke-linecap="square" stroke-miterlimit="10" pointer-events="all"/></g><g><rect x="325" y="245" width="220" height="30" fill="none" stroke="none" pointer-events="all"/><path d="M 325 245 M 545 245 M 545 275 M 325 275" fill="none" stroke="rgb(0, 0, 0)" stroke-linecap="square" stroke-miterlimit="10" pointer-events="all"/></g><g><g fill="rgb(0, 0, 0)" font-family="Helvetica" clip-path="url(#mx-clip-331-245-214-30-0)" font-size="12px"><text x="332.5" y="264.5">owner_id int</text></g></g><g><path d="M 605 225 L 605 195 L 855 195 L 855 225" fill="rgb(255, 255, 255)" stroke="rgb(0, 0, 0)" stroke-miterlimit="10" pointer-events="all"/><path d="M 605 225 L 605 325 L 855 325 L 855 225" fill="none" stroke="rgb(0, 0, 0)" stroke-miterlimit="10" pointer-events="none"/><path d="M 605 225 L 855 225" fill="none" stroke="rgb(0, 0, 0)" stroke-miterlimit="10" pointer-events="none"/><path d="M 635 225 L 635 255 L 635 285 L 635 315" fill="none" stroke="rgb(0, 0, 0)" stroke-miterlimit="10" pointer-events="none"/></g><g><g fill="rgb(0, 0, 0)" font-family="Helvetica" font-weight="bold" text-anchor="middle" font-size="12px"><text x="729.5" y="214.5">Tokens</text></g></g><g><path d="M 605 225 M 855 225 M 855 255 L 605 255" fill="none" stroke="rgb(0, 0, 0)" stroke-linecap="square" stroke-miterlimit="10" pointer-events="none"/></g><g><rect x="605" y="225" width="30" height="30" fill="none" stroke="none" pointer-events="all"/><path d="M 605 225 M 635 225 M 635 255 M 605 255" fill="none" stroke="rgb(0, 0, 0)" stroke-linecap="square" stroke-miterlimit="10" pointer-events="all"/></g><g><g fill="rgb(0, 0, 0)" font-family="Helvetica" font-weight="bold" clip-path="url(#mx-clip-605-225-30-30-0)" text-anchor="middle" font-size="12px"><text x="619.5" y="244.5">PK</text></g></g><g><rect x="635" y="225" width="220" height="30" fill="none" stroke="none" pointer-events="all"/><path d="M 635 225 M 855 225 M 855 255 M 635 255" fill="none" stroke="rgb(0, 0, 0)" stroke-linecap="square" stroke-miterlimit="10" pointer-events="all"/></g><g><g fill="rgb(0, 0, 0)" font-family="Helvetica" font-weight="bold" text-decoration="underline" clip-path="url(#mx-clip-641-225-214-30-0)" font-size="12px"><text x="642.5" y="244.5">token char(100) NOT NULL </text></g></g><g><path d="M 605 255 M 855 255 M 855 285 M 605 285" fill="none" stroke="rgb(0, 0, 0)" stroke-linecap="square" stroke-miterlimit="10" pointer-events="none"/></g><g><rect x="605" y="255" width="30" height="30" fill="none" stroke="none" pointer-events="all"/><path d="M 605 255 M 635 255 M 635 285 M 605 285" fill="none" stroke="rgb(0, 0, 0)" stroke-linecap="square" stroke-miterlimit="10" pointer-events="all"/></g><g><rect x="635" y="255" width="220" height="30" fill="none" stroke="none" pointer-events="all"/><path d="M 635 255 M 855 255 M 855 285 M 635 285" fill="none" stroke="rgb(0, 0, 0)" stroke-linecap="square" stroke-miterlimit="10" pointer-events="all"/></g><g><g fill="rgb(0, 0, 0)" font-family="Helvetica" clip-path="url(#mx-clip-641-255-214-30-0)" font-size="12px"><text x="642.5" y="274.5">user_id int NOT NULL</text></g></g><g><path d="M 605 285 M 855 285 M 855 315 M 605 315" fill="none" stroke="rgb(0, 0, 0)" stroke-linecap="square" stroke-miterlimit="10" pointer-events="none"/></g><g><rect x="605" y="285" width="30" height="30" fill="none" stroke="none" pointer-events="all"/><path d="M 605 285 M 635 285 M 635 315 M 605 315" fill="none" stroke="rgb(0, 0, 0)" stroke-linecap="square" stroke-miterlimit="10" pointer-events="all"/></g><g><rect x="635" y="285" width="220" height="30" fill="none" stroke="none" pointer-events="all"/><path d="M 635 285 M 855 285 M 855 315 M 635 315" fill="none" stroke="rgb(0, 0, 0)" stroke-linecap="square" stroke-miterlimit="10" pointer-events="all"/></g><g><g fill="rgb(0, 0, 0)" font-family="Helvetica" clip-path="url(#mx-clip-641-285-214-30-0)" font-size="12px"><text x="642.5" y="304.5">created_at date NOT NULL</text></g></g><g><path d="M 5 35 L 5 5 L 235 5 L 235 35" fill="rgb(255, 255, 255)" stroke="rgb(0, 0, 0)" stroke-miterlimit="10" pointer-events="all"/><path d="M 5 35 L 5 315 L 235 315 L 235 35" fill="none" stroke="rgb(0, 0, 0)" stroke-miterlimit="10" pointer-events="none"/><path d="M 5 35 L 235 35" fill="none" stroke="rgb(0, 0, 0)" stroke-miterlimit="10" pointer-events="none"/><path d="M 35 35 L 35 65 L 35 95 L 35 125 L 35 155 L 35 185 L 35 215 L 35 245 L 35 275 L 35 305" fill="none" stroke="rgb(0, 0, 0)" stroke-miterlimit="10" pointer-events="none"/></g><g><g fill="rgb(0, 0, 0)" font-family="Helvetica" font-weight="bold" text-anchor="middle" font-size="12px"><text x="119.5" y="24.5">Redirects</text></g></g><g><path d="M 5 35 M 235 35 M 235 65 L 5 65" fill="none" stroke="rgb(0, 0, 0)" stroke-linecap="square" stroke-miterlimit="10" pointer-events="none"/></g><g><rect x="5" y="35" width="30" height="30" fill="none" stroke="none" pointer-events="all"/><path d="M 5 35 M 35 35 M 35 65 M 5 65" fill="none" stroke="rgb(0, 0, 0)" stroke-linecap="square" stroke-miterlimit="10" pointer-events="all"/></g><g><g fill="rgb(0, 0, 0)" font-family="Helvetica" font-weight="bold" clip-path="url(#mx-clip-5-35-30-30-0)" text-anchor="middle" font-size="12px"><text x="19.5" y="54.5">PK</text></g></g><g><rect x="35" y="35" width="200" height="30" fill="none" stroke="none" pointer-events="all"/><path d="M 35 35 M 235 35 M 235 65 M 35 65" fill="none" stroke="rgb(0, 0, 0)" stroke-linecap="square" stroke-miterlimit="10" pointer-events="all"/></g><g><g fill="rgb(0, 0, 0)" font-family="Helvetica" font-weight="bold" text-decoration="underline" clip-path="url(#mx-clip-41-35-194-30-0)" font-size="12px"><text x="42.5" y="54.5">redirect_id int NOT NULL</text></g></g><g><path d="M 5 65 M 235 65 M 235 95 M 5 95" fill="none" stroke="rgb(0, 0, 0)" stroke-linecap="square" stroke-miterlimit="10" pointer-events="none"/></g><g><rect x="5" y="65" width="30" height="30" fill="none" stroke="none" pointer-events="all"/><path d="M 5 65 M 35 65 M 35 95 M 5 95" fill="none" stroke="rgb(0, 0, 0)" stroke-linecap="square" stroke-miterlimit="10" pointer-events="all"/></g><g><rect x="35" y="65" width="200" height="30" fill="none" stroke="none" pointer-events="all"/><path d="M 35 65 M 235 65 M 235 95 M 35 95" fill="none" stroke="rgb(0, 0, 0)" stroke-linecap="square" stroke-miterlimit="10" pointer-events="all"/></g><g><g fill="rgb(0, 0, 0)" font-family="Helvetica" clip-path="url(#mx-clip-41-65-194-30-0)" font-size="12px"><text x="42.5" y="84.5">short_id char(10) NOT NULL</text></g></g><g><path d="M 5 95 M 235 95 M 235 125 M 5 125" fill="none" stroke="rgb(0, 0, 0)" stroke-linecap="square" stroke-miterlimit="10" pointer-events="none"/></g><g><rect x="5" y="95" width="30" height="30" fill="none" stroke="none" pointer-events="all"/><path d="M 5 95 M 35 95 M 35 125 M 5 125" fill="none" stroke="rgb(0, 0, 0)" stroke-linecap="square" stroke-miterlimit="10" pointer-events="all"/></g><g><rect x="35" y="95" width="200" height="30" fill="none" stroke="none" pointer-events="all"/><path d="M 35 95 M 235 95 M 235 125 M 35 125" fill="none" stroke="rgb(0, 0, 0)" stroke-linecap="square" stroke-miterlimit="10" pointer-events="all"/></g><g><g fill="rgb(0, 0, 0)" font-family="Helvetica" clip-path="url(#mx-clip-41-95-194-30-0)" font-size="12px"><text x="42.5" y="114.5">redirected_at date NOT NULL</text></g></g><g><path d="M 5 125 M 235 125 M 235 155 M 5 155" fill="none" stroke="rgb(0, 0, 0)" stroke-linecap="square" stroke-miterlimit="10" pointer-events="none"/></g><g><rect x="5" y="125" width="30" height="30" fill="none" stroke="none" pointer-events="all"/><path d="M 5 125 M 35 125 M 35 155 M 5 155" fill="none" stroke="rgb(0, 0, 0)" stroke-linecap="square" stroke-miterlimit="10" pointer-events="all"/></g><g><rect x="35" y="125" width="200" height="30" fill="none" stroke="none" pointer-events="all"/><path d="M 35 125 M 235 125 M 235 155 M 35 155" fill="none" stroke="rgb(0, 0, 0)" stroke-linecap="square" stroke-miterlimit="10" pointer-events="all"/></g><g><g fill="rgb(0, 0, 0)" font-family="Helvetica" clip-path="url(#mx-clip-41-125-194-30-0)" font-size="12px"><text x="42.5" y="144.5">ip char(15) NOT NULL</text></g></g><g><path d="M 5 155 M 235 155 M 235 185 M 5 185" fill="none" stroke="rgb(0, 0, 0)" stroke-linecap="square" stroke-miterlimit="10" pointer-events="none"/></g><g><rect x="5" y="155" width="30" height="30" fill="none" stroke="none" pointer-events="all"/><path d="M 5 155 M 35 155 M 35 185 M 5 185" fill="none" stroke="rgb(0, 0, 0)" stroke-linecap="square" stroke-miterlimit="10" pointer-events="all"/></g><g><rect x="35" y="155" width="200" height="30" fill="none" stroke="none" pointer-events="all"/><path d="M 35 155 M 235 155 M 235 185 M 35 185" fill="none" stroke="rgb(0, 0, 0)" stroke-linecap="square" stroke-miterlimit="10" pointer-events="all"/></g><g><g fill="rgb(0, 0, 0)" font-family="Helvetica" clip-path="url(#mx-clip-41-155-194-30-0)" font-size="12px"><text x="42.5" y="174.5">user_agent char(100)</text></g></g><g><path d="M 5 185 M 235 185 M 235 215 M 5 215" fill="none" stroke="rgb(0, 0, 0)" stroke-linecap="square" stroke-miterlimit="10" pointer-events="none"/></g><g><rect x="5" y="185" width="30" height="30" fill="none" stroke="none" pointer-events="all"/><path d="M 5 185 M 35 185 M 35 215 M 5 215" fill="none" stroke="rgb(0, 0, 0)" stroke-linecap="square" stroke-miterlimit="10" pointer-events="all"/></g><g><rect x="35" y="185" width="200" height="30" fill="none" stroke="none" pointer-events="all"/><path d="M 35 185 M 235 185 M 235 215 M 35 215" fill="none" stroke="rgb(0, 0, 0)" stroke-linecap="square" stroke-miterlimit="10" pointer-events="all"/></g><g><g fill="rgb(0, 0, 0)" font-family="Helvetica" clip-path="url(#mx-clip-41-185-194-30-0)" font-size="12px"><text x="42.5" y="204.5">referrer char(100) </text></g></g><g><path d="M 5 215 M 235 215 M 235 245 M 5 245" fill="none" stroke="rgb(0, 0, 0)" stroke-linecap="square" stroke-miterlimit="10" pointer-events="none"/></g><g><rect x="5" y="215" width="30" height="30" fill="none" stroke="none" pointer-events="all"/><path d="M 5 215 M 35 215 M 35 245 M 5 245" fill="none" stroke="rgb(0, 0, 0)" stroke-linecap="square" stroke-miterlimit="10" pointer-events="all"/></g><g><rect x="35" y="215" width="200" height="30" fill="none" stroke="none" pointer-events="all"/><path d="M 35 215 M 235 215 M 235 245 M 35 245" fill="none" stroke="rgb(0, 0, 0)" stroke-linecap="square" stroke-miterlimit="10" pointer-events="all"/></g><g><g fill="rgb(0, 0, 0)" font-family="Helvetica" clip-path="url(#mx-clip-41-215-194-30-0)" font-size="12px"><text x="42.5" y="234.5">browser char(50) </text></g></g><g><path d="M 5 245 M 235 245 M 235 275 M 5 275" fill="none" stroke="rgb(0, 0, 0)" stroke-linecap="square" stroke-miterlimit="10" pointer-events="none"/></g><g><rect x="5" y="245" width="30" height="30" fill="none" stroke="none" pointer-events="all"/><path d="M 5 245 M 35 245 M 35 275 M 5 275" fill="none" stroke="rgb(0, 0, 0)" stroke-linecap="square" stroke-miterlimit="10" pointer-events="all"/></g><g><rect x="35" y="245" width="200" height="30" fill="none" stroke="none" pointer-events="all"/><path d="M 35 245 M 235 245 M 235 275 M 35 275" fill="none" stroke="rgb(0, 0, 0)" stroke-linecap="square" stroke-miterlimit="10" pointer-events="all"/></g><g><g fill="rgb(0, 0, 0)" font-family="Helvetica" clip-path="url(#mx-clip-41-245-194-30-0)" font-size="12px"><text x="42.5" y="264.5">platform char(50) </text></g></g><g><path d="M 5 275 M 235 275 M 235 305 M 5 305" fill="none" stroke="rgb(0, 0, 0)" stroke-linecap="square" stroke-miterlimit="10" pointer-events="none"/></g><g><rect x="5" y="275" width="30" height="30" fill="none" stroke="none" pointer-events="all"/><path d="M 5 275 M 35 275 M 35 305 M 5 305" fill="none" stroke="rgb(0, 0, 0)" stroke-linecap="square" stroke-miterlimit="10" pointer-events="all"/></g><g><rect x="35" y="275" width="200" height="30" fill="none" stroke="none" pointer-events="all"/><path d="M 35 275 M 235 275 M 235 305 M 35 305" fill="none" stroke="rgb(0, 0, 0)" stroke-linecap="square" stroke-miterlimit="10" pointer-events="all"/></g><g><g fill="rgb(0, 0, 0)" font-family="Helvetica" clip-path="url(#mx-clip-41-275-194-30-0)" font-size="12px"><text x="42.5" y="294.5">language char(10) </text></g></g><g><path d="M 605 385 L 605 355 L 855 355 L 855 385" fill="rgb(255, 255, 255)" stroke="rgb(0, 0, 0)" stroke-miterlimit="10" pointer-events="all"/><path d="M 605 385 L 605 485 L 855 485 L 855 385" fill="none" stroke="rgb(0, 0, 0)" stroke-miterlimit="10" pointer-events="none"/><path d="M 605 385 L 855 385" fill="none" stroke="rgb(0, 0, 0)" stroke-miterlimit="10" pointer-events="none"/><path d="M 635 385 L 635 415 L 635 445 L 635 475" fill="none" stroke="rgb(0, 0, 0)" stroke-miterlimit="10" pointer-events="none"/></g><g><g fill="rgb(0, 0, 0)" font-family="Helvetica" font-weight="bold" text-anchor="middle" font-size="12px"><text x="729.5" y="374.5">Users</text></g></g><g><path d="M 605 385 M 855 385 M 855 415 L 605 415" fill="none" stroke="rgb(0, 0, 0)" stroke-linecap="square" stroke-miterlimit="10" pointer-events="none"/></g><g><rect x="605" y="385" width="30" height="30" fill="none" stroke="none" pointer-events="all"/><path d="M 605 385 M 635 385 M 635 415 M 605 415" fill="none" stroke="rgb(0, 0, 0)" stroke-linecap="square" stroke-miterlimit="10" pointer-events="all"/></g><g><g fill="rgb(0, 0, 0)" font-family="Helvetica" font-weight="bold" clip-path="url(#mx-clip-605-385-30-30-0)" text-anchor="middle" font-size="12px"><text x="619.5" y="404.5">PK</text></g></g><g><rect x="635" y="385" width="220" height="30" fill="none" stroke="none" pointer-events="all"/><path d="M 635 385 M 855 385 M 855 415 M 635 415" fill="none" stroke="rgb(0, 0, 0)" stroke-linecap="square" stroke-miterlimit="10" pointer-events="all"/></g><g><g fill="rgb(0, 0, 0)" font-family="Helvetica" font-weight="bold" text-decoration="underline" clip-path="url(#mx-clip-641-385-214-30-0)" font-size="12px"><text x="642.5" y="404.5">user_id int NOT NULL </text></g></g><g><path d="M 605 415 M 855 415 M 855 445 M 605 445" fill="none" stroke="rgb(0, 0, 0)" stroke-linecap="square" stroke-miterlimit="10" pointer-events="none"/></g><g><rect x="605" y="415" width="30" height="30" fill="none" stroke="none" pointer-events="all"/><path d="M 605 415 M 635 415 M 635 445 M 605 445" fill="none" stroke="rgb(0, 0, 0)" stroke-linecap="square" stroke-miterlimit="10" pointer-events="all"/></g><g><g fill="rgb(0, 0, 0)" font-family="Helvetica" clip-path="url(#mx-clip-605-415-30-30-0)" text-anchor="middle" font-size="12px"><text x="619.5" y="434.5">FK1</text></g></g><g><rect x="635" y="415" width="220" height="30" fill="none" stroke="none" pointer-events="all"/><path d="M 635 415 M 855 415 M 855 445 M 635 445" fill="none" stroke="rgb(0, 0, 0)" stroke-linecap="square" stroke-miterlimit="10" pointer-events="all"/></g><g><g fill="rgb(0, 0, 0)" font-family="Helvetica" clip-path="url(#mx-clip-641-415-214-30-0)" font-size="12px"><text x="642.5" y="434.5">name char(100) NOT NULL</text></g></g><g><path d="M 605 445 M 855 445 M 855 475 M 605 475" fill="none" stroke="rgb(0, 0, 0)" stroke-linecap="square" stroke-miterlimit="10" pointer-events="none"/></g><g><rect x="605" y="445" width="30" height="30" fill="none" stroke="none" pointer-events="all"/><path d="M 605 445 M 635 445 M 635 475 M 605 475" fill="none" stroke="rgb(0, 0, 0)" stroke-linecap="square" stroke-miterlimit="10" pointer-events="all"/></g><g><rect x="635" y="445" width="220" height="30" fill="none" stroke="none" pointer-events="all"/><path d="M 635 445 M 855 445 M 855 475 M 635 475" fill="none" stroke="rgb(0, 0, 0)" stroke-linecap="square" stroke-miterlimit="10" pointer-events="all"/></g><g><g fill="rgb(0, 0, 0)" font-family="Helvetica" clip-path="url(#mx-clip-641-445-214-30-0)" font-size="12px"><text x="642.5" y="464.5">password_hash char(100) NOT NULL</text></g></g><g><path d="M 605 35 L 605 5 L 855 5 L 855 35" fill="rgb(255, 255, 255)" stroke="rgb(0, 0, 0)" stroke-miterlimit="10" pointer-events="all"/><path d="M 605 35 L 605 165 L 855 165 L 855 35" fill="none" stroke="rgb(0, 0, 0)" stroke-miterlimit="10" pointer-events="none"/><path d="M 605 35 L 855 35" fill="none" stroke="rgb(0, 0, 0)" stroke-miterlimit="10" pointer-events="none"/><path d="M 635 35 L 635 65 L 635 95 L 635 125 L 635 155" fill="none" stroke="rgb(0, 0, 0)" stroke-miterlimit="10" pointer-events="none"/></g><g><g fill="rgb(0, 0, 0)" font-family="Helvetica" font-weight="bold" text-anchor="middle" font-size="12px"><text x="729.5" y="24.5">Banners</text></g></g><g><path d="M 605 35 M 855 35 M 855 65 L 605 65" fill="none" stroke="rgb(0, 0, 0)" stroke-linecap="square" stroke-miterlimit="10" pointer-events="none"/></g><g><rect x="605" y="35" width="30" height="30" fill="none" stroke="none" pointer-events="all"/><path d="M 605 35 M 635 35 M 635 65 M 605 65" fill="none" stroke="rgb(0, 0, 0)" stroke-linecap="square" stroke-miterlimit="10" pointer-events="all"/></g><g><g fill="rgb(0, 0, 0)" font-family="Helvetica" font-weight="bold" clip-path="url(#mx-clip-605-35-30-30-0)" text-anchor="middle" font-size="12px"><text x="619.5" y="54.5">PK</text></g></g><g><rect x="635" y="35" width="220" height="30" fill="none" stroke="none" pointer-events="all"/><path d="M 635 35 M 855 35 M 855 65 M 635 65" fill="none" stroke="rgb(0, 0, 0)" stroke-linecap="square" stroke-miterlimit="10" pointer-events="all"/></g><g><g fill="rgb(0, 0, 0)" font-family="Helvetica" font-weight="bold" text-decoration="underline" clip-path="url(#mx-clip-641-35-214-30-0)" font-size="12px"><text x="642.5" y="54.5">banner_id int NOT NULL </text></g></g><g><path d="M 605 65 M 855 65 M 855 95 M 605 95" fill="none" stroke="rgb(0, 0, 0)" stroke-linecap="square" stroke-miterlimit="10" pointer-events="none"/></g><g><rect x="605" y="65" width="30" height="30" fill="none" stroke="none" pointer-events="all"/><path d="M 605 65 M 635 65 M 635 95 M 605 95" fill="none" stroke="rgb(0, 0, 0)" stroke-linecap="square" stroke-miterlimit="10" pointer-events="all"/></g><g><rect x="635" y="65" width="220" height="30" fill="none" stroke="none" pointer-events="all"/><path d="M 635 65 M 855 65 M 855 95 M 635 95" fill="none" stroke="rgb(0, 0, 0)" stroke-linecap="square" stroke-miterlimit="10" pointer-events="all"/></g><g><g fill="rgb(0, 0, 0)" font-family="Helvetica" clip-path="url(#mx-clip-641-65-214-30-0)" font-size="12px"><text x="642.5" y="84.5">title char(100) NOT NULL</text></g></g><g><path d="M 605 95 M 855 95 M 855 125 M 605 125" fill="none" stroke="rgb(0, 0, 0)" stroke-linecap="square" stroke-miterlimit="10" pointer-events="none"/></g><g><rect x="605" y="95" width="30" height="30" fill="none" stroke="none" pointer-events="all"/><path d="M 605 95 M 635 95 M 635 125 M 605 125" fill="none" stroke="rgb(0, 0, 0)" stroke-linecap="square" stroke-miterlimit="10" pointer-events="all"/></g><g><rect x="635" y="95" width="220" height="30" fill="none" stroke="none" pointer-events="all"/><path d="M 635 95 M 855 95 M 855 125 M 635 125" fill="none" stroke="rgb(0, 0, 0)" stroke-linecap="square" stroke-miterlimit="10" pointer-events="all"/></g><g><g fill="rgb(0, 0, 0)" font-family="Helvetica" clip-path="url(#mx-clip-641-95-214-30-0)" font-size="12px"><text x="642.5" y="114.5">description char(500) NOT NULL</text></g></g><g><path d="M 605 125 M 855 125 M 855 155 M 605 155" fill="none" stroke="rgb(0, 0, 0)" stroke-linecap="square" stroke-miterlimit="10" pointer-events="none"/></g><g><rect x="605" y="125" width="30" height="30" fill="none" stroke="none" pointer-events="all"/><path d="M 605 125 M 635 125 M 635 155 M 605 155" fill="none" stroke="rgb(0, 0, 0)" stroke-linecap="square" stroke-miterlimit="10" pointer-events="all"/></g><g><rect x="635" y="125" width="220" height="30" fill="none" stroke="none" pointer-events="all"/><path d="M 635 125 M 855 125 M 855 155 M 635 155" fill="none" stroke="rgb(0, 0, 0)" stroke-linecap="square" stroke-miterlimit="10" pointer-events="all"/></g><g><g fill="rgb(0, 0, 0)" font-family="Helvetica" clip-path="url(#mx-clip-641-125-214-30-0)" font-size="12px"><text x="642.5" y="144.5">owner_id int NOT NULL</text></g></g><g><rect x="295" y="215" width="30" height="30" fill="none" stroke="none" pointer-events="all"/><path d="M 295 215 M 325 215 M 325 245 M 295 245" fill="none" stroke="rgb(0, 0, 0)" stroke-linecap="square" stroke-miterlimit="10" pointer-events="all"/></g><g><g fill="rgb(0, 0, 0)" font-family="Helvetica" clip-path="url(#mx-clip-295-215-30-30-0)" text-anchor="middle" font-size="12px"><text x="309.5" y="234.5">FK1</text></g></g><g><rect x="295" y="245" width="30" height="30" fill="none" stroke="none" pointer-events="all"/><path d="M 295 245 M 325 245 M 325 275 M 295 275" fill="none" stroke="rgb(0, 0, 0)" stroke-linecap="square" stroke-miterlimit="10" pointer-events="all"/></g><g><g fill="rgb(0, 0, 0)" font-family="Helvetica" clip-path="url(#mx-clip-295-245-30-30-0)" text-anchor="middle" font-size="12px"><text x="309.5" y="264.5">FK1</text></g></g><g><path d="M 605 50 L 585 50 Q 575 50 575 60 L 575 220 Q 575 230 565 230 L 545 230" fill="none" stroke="rgb(0, 0, 0)" stroke-miterlimit="10" pointer-events="stroke"/><ellipse cx="593" cy="50" rx="3" ry="3" fill="#ffffff" stroke="rgb(0, 0, 0)" pointer-events="all"/><path d="M 601 54 L 601 46" fill="none" stroke="rgb(0, 0, 0)" stroke-miterlimit="10" pointer-events="all"/><ellipse cx="557" cy="230" rx="3" ry="3" fill="#ffffff" stroke="rgb(0, 0, 0)" pointer-events="all"/><path d="M 545 234 L 553 230 L 545 226" fill="none" stroke="rgb(0, 0, 0)" stroke-miterlimit="10" pointer-events="all"/></g><g><path d="M 605 400 L 585 400 Q 575 400 575 390 L 575 270 Q 575 260 565 260 L 545 260" fill="none" stroke="rgb(0, 0, 0)" stroke-miterlimit="10" pointer-events="stroke"/><path d="M 601 404 L 601 396" fill="none" stroke="rgb(0, 0, 0)" stroke-miterlimit="10" pointer-events="all"/><ellipse cx="557" cy="260" rx="3" ry="3" fill="#ffffff" stroke="rgb(0, 0, 0)" pointer-events="all"/><path d="M 545 264 L 553 260 L 545 256" fill="none" stroke="rgb(0, 0, 0)" stroke-miterlimit="10" pointer-events="all"/></g><g><path d="M 855 394.99 L 875 394.99 Q 885 394.99 885 384.99 L 885 280 Q 885 270 875 270 L 855 270" fill="none" stroke="rgb(0, 0, 0)" stroke-miterlimit="10" pointer-events="stroke"/><path d="M 859 390.99 L 859 398.99" fill="none" stroke="rgb(0, 0, 0)" stroke-miterlimit="10" pointer-events="all"/><ellipse cx="867" cy="270" rx="3" ry="3" fill="#ffffff" stroke="rgb(0, 0, 0)" pointer-events="all"/><path d="M 855 274 L 863 270 L 855 266" fill="none" stroke="rgb(0, 0, 0)" stroke-miterlimit="10" pointer-events="all"/></g><g><rect x="605" y="255" width="30" height="30" fill="none" stroke="none" pointer-events="all"/><path d="M 605 255 M 635 255 M 635 285 M 605 285" fill="none" stroke="rgb(0, 0, 0)" stroke-linecap="square" stroke-miterlimit="10" pointer-events="all"/></g><g><g fill="rgb(0, 0, 0)" font-family="Helvetica" clip-path="url(#mx-clip-605-255-30-30-0)" text-anchor="middle" font-size="12px"><text x="619.5" y="274.5">FK1</text></g></g><g><rect x="5" y="65" width="30" height="30" fill="none" stroke="none" pointer-events="all"/><path d="M 5 65 M 35 65 M 35 95 M 5 95" fill="none" stroke="rgb(0, 0, 0)" stroke-linecap="square" stroke-miterlimit="10" pointer-events="all"/></g><g><g fill="rgb(0, 0, 0)" font-family="Helvetica" clip-path="url(#mx-clip-5-65-30-30-0)" text-anchor="middle" font-size="12px"><text x="19.5" y="84.5">FK1</text></g></g><g><path d="M 295 50 L 275 50 Q 265 50 265 60 L 265 70 Q 265 80 255 80 L 235 80" fill="none" stroke="rgb(0, 0, 0)" stroke-miterlimit="10" pointer-events="stroke"/><path d="M 291 54 L 291 46" fill="none" stroke="rgb(0, 0, 0)" stroke-miterlimit="10" pointer-events="all"/><ellipse cx="247" cy="80" rx="3" ry="3" fill="#ffffff" stroke="rgb(0, 0, 0)" pointer-events="all"/><path d="M 235 84 L 243 80 L 235 76" fill="none" stroke="rgb(0, 0, 0)" stroke-miterlimit="10" pointer-events="all"/></g><g><rect x="605" y="125" width="30" height="30" fill="none" stroke="none" pointer-events="all"/><path d="M 605 125 M 635 125 M 635 155 M 605 155" fill="none" stroke="rgb(0, 0, 0)" stroke-linecap="square" stroke-miterlimit="10" pointer-events="all"/></g><g><g fill="rgb(0, 0, 0)" font-family="Helvetica" clip-path="url(#mx-clip-605-125-30-30-0)" text-anchor="middle" font-size="12px"><text x="619.5" y="144.5">FK1</text></g></g><g><path d="M 855 405.01 L 885 405 Q 895 405 895 395 L 895 150 Q 895 140 885 140 L 855 140" fill="none" stroke="rgb(0, 0, 0)" stroke-miterlimit="10" pointer-events="stroke"/><path d="M 859 401.01 L 859 409.01" fill="none" stroke="rgb(0, 0, 0)" stroke-miterlimit="10" pointer-events="all"/><ellipse cx="867" cy="140" rx="3" ry="3" fill="#ffffff" stroke="rgb(0, 0, 0)" pointer-events="all"/><path d="M 855 144 L 863 140 L 855 136" fill="none" stroke="rgb(0, 0, 0)" stroke-miterlimit="10" pointer-events="all"/></g></g></svg>