<svg width="603" height="354" viewBox="0 0 603 354" fill="none" xmlns="http://www.w3.org/2000/svg">
<path d="M213 0L213 354" stroke="#0F82EC" stroke-opacity="0.1" stroke-width="2" stroke-linecap="round" stroke-linejoin="round" stroke-dasharray="8 12"/>
<rect x="490" y="174" width="113" height="48" rx="8" fill="#EBF5FF"/>
<path d="M511.643 205H507.603V191.909H511.822C513.091 191.909 514.178 192.171 515.081 192.695C515.985 193.215 516.677 193.963 517.159 194.939C517.64 195.911 517.881 197.074 517.881 198.429C517.881 199.793 517.638 200.967 517.153 201.951C516.667 202.931 515.959 203.685 515.03 204.214C514.101 204.738 512.972 205 511.643 205ZM509.188 203.594H511.54C512.623 203.594 513.52 203.385 514.231 202.967C514.943 202.55 515.474 201.955 515.823 201.184C516.172 200.413 516.347 199.494 516.347 198.429C516.347 197.372 516.175 196.462 515.829 195.7C515.484 194.933 514.969 194.344 514.282 193.935C513.596 193.522 512.742 193.315 511.719 193.315H509.188V203.594ZM523.225 205.23C522.603 205.23 522.038 205.113 521.531 204.879C521.024 204.64 520.621 204.297 520.323 203.849C520.025 203.398 519.876 202.852 519.876 202.213C519.876 201.651 519.986 201.195 520.208 200.845C520.43 200.491 520.726 200.214 521.096 200.014C521.467 199.814 521.876 199.665 522.324 199.567C522.775 199.464 523.229 199.384 523.685 199.324C524.282 199.247 524.765 199.19 525.136 199.151C525.511 199.109 525.784 199.038 525.954 198.94C526.129 198.842 526.216 198.672 526.216 198.429V198.378C526.216 197.747 526.044 197.257 525.699 196.908C525.358 196.558 524.84 196.384 524.145 196.384C523.425 196.384 522.861 196.541 522.452 196.857C522.042 197.172 521.755 197.509 521.589 197.866L520.157 197.355C520.412 196.759 520.753 196.294 521.18 195.962C521.61 195.625 522.079 195.391 522.586 195.259C523.097 195.122 523.6 195.054 524.094 195.054C524.41 195.054 524.772 195.092 525.181 195.169C525.594 195.241 525.993 195.393 526.376 195.623C526.764 195.853 527.086 196.2 527.341 196.665C527.597 197.129 527.725 197.751 527.725 198.531V205H526.216V203.67H526.14C526.037 203.884 525.867 204.112 525.628 204.354C525.39 204.597 525.072 204.804 524.676 204.974C524.28 205.145 523.796 205.23 523.225 205.23ZM523.455 203.875C524.052 203.875 524.555 203.758 524.964 203.523C525.377 203.289 525.688 202.987 525.897 202.616C526.11 202.245 526.216 201.855 526.216 201.446V200.065C526.153 200.142 526.012 200.212 525.795 200.276C525.581 200.336 525.334 200.389 525.053 200.436C524.776 200.479 524.506 200.517 524.241 200.551C523.981 200.581 523.77 200.607 523.608 200.628C523.216 200.679 522.85 200.762 522.509 200.877C522.172 200.988 521.9 201.156 521.691 201.382C521.486 201.604 521.384 201.906 521.384 202.29C521.384 202.814 521.578 203.21 521.966 203.479C522.358 203.743 522.854 203.875 523.455 203.875ZM534.748 195.182V196.46H529.66V195.182H534.748ZM531.143 192.83H532.652V202.188C532.652 202.614 532.713 202.933 532.837 203.146C532.965 203.355 533.127 203.496 533.323 203.568C533.523 203.636 533.734 203.67 533.956 203.67C534.122 203.67 534.258 203.662 534.365 203.645C534.471 203.624 534.556 203.607 534.62 203.594L534.927 204.949C534.825 204.987 534.682 205.026 534.499 205.064C534.316 205.107 534.083 205.128 533.802 205.128C533.376 205.128 532.958 205.036 532.549 204.853C532.145 204.67 531.808 204.391 531.539 204.016C531.275 203.641 531.143 203.168 531.143 202.597V192.83ZM539.907 205.23C539.284 205.23 538.72 205.113 538.213 204.879C537.706 204.64 537.303 204.297 537.005 203.849C536.706 203.398 536.557 202.852 536.557 202.213C536.557 201.651 536.668 201.195 536.89 200.845C537.111 200.491 537.407 200.214 537.778 200.014C538.149 199.814 538.558 199.665 539.005 199.567C539.457 199.464 539.911 199.384 540.367 199.324C540.963 199.247 541.447 199.19 541.818 199.151C542.193 199.109 542.466 199.038 542.636 198.94C542.811 198.842 542.898 198.672 542.898 198.429V198.378C542.898 197.747 542.725 197.257 542.38 196.908C542.039 196.558 541.522 196.384 540.827 196.384C540.107 196.384 539.542 196.541 539.133 196.857C538.724 197.172 538.436 197.509 538.27 197.866L536.838 197.355C537.094 196.759 537.435 196.294 537.861 195.962C538.292 195.625 538.76 195.391 539.267 195.259C539.779 195.122 540.282 195.054 540.776 195.054C541.091 195.054 541.453 195.092 541.863 195.169C542.276 195.241 542.674 195.393 543.058 195.623C543.446 195.853 543.767 196.2 544.023 196.665C544.279 197.129 544.407 197.751 544.407 198.531V205H542.898V203.67H542.821C542.719 203.884 542.549 204.112 542.31 204.354C542.071 204.597 541.754 204.804 541.358 204.974C540.961 205.145 540.478 205.23 539.907 205.23ZM540.137 203.875C540.733 203.875 541.236 203.758 541.645 203.523C542.059 203.289 542.37 202.987 542.578 202.616C542.792 202.245 542.898 201.855 542.898 201.446V200.065C542.834 200.142 542.694 200.212 542.476 200.276C542.263 200.336 542.016 200.389 541.735 200.436C541.458 200.479 541.187 200.517 540.923 200.551C540.663 200.581 540.452 200.607 540.29 200.628C539.898 200.679 539.532 200.762 539.191 200.877C538.854 200.988 538.581 201.156 538.373 201.382C538.168 201.604 538.066 201.906 538.066 202.29C538.066 202.814 538.26 203.21 538.647 203.479C539.039 203.743 539.536 203.875 540.137 203.875ZM547.365 205V191.909H548.873V196.741H549.001C549.112 196.571 549.265 196.354 549.461 196.089C549.661 195.821 549.947 195.582 550.318 195.374C550.693 195.161 551.2 195.054 551.839 195.054C552.666 195.054 553.394 195.261 554.025 195.674C554.656 196.087 555.148 196.673 555.502 197.432C555.855 198.19 556.032 199.085 556.032 200.116C556.032 201.156 555.855 202.058 555.502 202.82C555.148 203.579 554.658 204.167 554.031 204.585C553.405 204.998 552.683 205.205 551.865 205.205C551.234 205.205 550.729 205.1 550.35 204.891C549.97 204.678 549.678 204.437 549.474 204.169C549.269 203.896 549.112 203.67 549.001 203.491H548.822V205H547.365ZM548.847 200.091C548.847 200.832 548.956 201.487 549.173 202.053C549.391 202.616 549.708 203.057 550.126 203.376C550.544 203.692 551.055 203.849 551.66 203.849C552.291 203.849 552.817 203.683 553.239 203.351C553.665 203.014 553.985 202.562 554.198 201.996C554.415 201.425 554.524 200.79 554.524 200.091C554.524 199.401 554.417 198.778 554.204 198.224C553.995 197.666 553.678 197.225 553.252 196.901C552.83 196.573 552.299 196.409 551.66 196.409C551.046 196.409 550.531 196.565 550.113 196.876C549.695 197.183 549.38 197.613 549.167 198.167C548.954 198.717 548.847 199.358 548.847 200.091ZM561.229 205.23C560.607 205.23 560.042 205.113 559.535 204.879C559.028 204.64 558.625 204.297 558.327 203.849C558.029 203.398 557.879 202.852 557.879 202.213C557.879 201.651 557.99 201.195 558.212 200.845C558.433 200.491 558.73 200.214 559.1 200.014C559.471 199.814 559.88 199.665 560.328 199.567C560.779 199.464 561.233 199.384 561.689 199.324C562.286 199.247 562.769 199.19 563.14 199.151C563.515 199.109 563.788 199.038 563.958 198.94C564.133 198.842 564.22 198.672 564.22 198.429V198.378C564.22 197.747 564.048 197.257 563.703 196.908C563.362 196.558 562.844 196.384 562.149 196.384C561.429 196.384 560.865 196.541 560.455 196.857C560.046 197.172 559.759 197.509 559.593 197.866L558.161 197.355C558.416 196.759 558.757 196.294 559.183 195.962C559.614 195.625 560.083 195.391 560.59 195.259C561.101 195.122 561.604 195.054 562.098 195.054C562.414 195.054 562.776 195.092 563.185 195.169C563.598 195.241 563.997 195.393 564.38 195.623C564.768 195.853 565.09 196.2 565.345 196.665C565.601 197.129 565.729 197.751 565.729 198.531V205H564.22V203.67H564.144C564.041 203.884 563.871 204.112 563.632 204.354C563.394 204.597 563.076 204.804 562.68 204.974C562.284 205.145 561.8 205.23 561.229 205.23ZM561.459 203.875C562.056 203.875 562.558 203.758 562.968 203.523C563.381 203.289 563.692 202.987 563.901 202.616C564.114 202.245 564.22 201.855 564.22 201.446V200.065C564.156 200.142 564.016 200.212 563.798 200.276C563.585 200.336 563.338 200.389 563.057 200.436C562.78 200.479 562.509 200.517 562.245 200.551C561.985 200.581 561.774 200.607 561.612 200.628C561.22 200.679 560.854 200.762 560.513 200.877C560.176 200.988 559.904 201.156 559.695 201.382C559.49 201.604 559.388 201.906 559.388 202.29C559.388 202.814 559.582 203.21 559.97 203.479C560.362 203.743 560.858 203.875 561.459 203.875ZM575.437 197.381L574.082 197.764C573.996 197.538 573.871 197.319 573.705 197.106C573.543 196.888 573.321 196.71 573.04 196.569C572.759 196.428 572.398 196.358 571.96 196.358C571.359 196.358 570.858 196.496 570.457 196.773C570.061 197.046 569.863 197.393 569.863 197.815C569.863 198.19 569.999 198.487 570.272 198.704C570.545 198.921 570.971 199.102 571.55 199.247L573.008 199.605C573.886 199.818 574.54 200.144 574.97 200.583C575.401 201.018 575.616 201.578 575.616 202.264C575.616 202.827 575.454 203.33 575.13 203.773C574.81 204.216 574.363 204.565 573.788 204.821C573.212 205.077 572.543 205.205 571.781 205.205C570.779 205.205 569.95 204.987 569.294 204.553C568.638 204.118 568.222 203.483 568.048 202.648L569.479 202.29C569.616 202.818 569.874 203.214 570.253 203.479C570.636 203.743 571.137 203.875 571.755 203.875C572.458 203.875 573.016 203.726 573.43 203.428C573.847 203.125 574.056 202.763 574.056 202.341C574.056 202 573.937 201.714 573.698 201.484C573.46 201.25 573.093 201.075 572.599 200.96L570.962 200.577C570.063 200.364 569.403 200.033 568.981 199.586C568.563 199.134 568.354 198.57 568.354 197.892C568.354 197.338 568.51 196.848 568.821 196.422C569.136 195.996 569.565 195.661 570.106 195.418C570.651 195.175 571.269 195.054 571.96 195.054C572.931 195.054 573.694 195.267 574.248 195.693C574.806 196.119 575.202 196.682 575.437 197.381ZM582.003 205.205C581.057 205.205 580.241 204.996 579.555 204.578C578.873 204.156 578.347 203.568 577.976 202.814C577.61 202.055 577.426 201.173 577.426 200.168C577.426 199.162 577.61 198.276 577.976 197.509C578.347 196.737 578.862 196.136 579.523 195.706C580.188 195.271 580.963 195.054 581.85 195.054C582.361 195.054 582.866 195.139 583.365 195.31C583.863 195.48 584.317 195.757 584.726 196.141C585.135 196.52 585.461 197.023 585.704 197.649C585.947 198.276 586.068 199.047 586.068 199.963V200.602H578.5V199.298H584.534C584.534 198.744 584.423 198.25 584.202 197.815C583.985 197.381 583.673 197.038 583.269 196.786C582.868 196.535 582.395 196.409 581.85 196.409C581.249 196.409 580.729 196.558 580.29 196.857C579.855 197.151 579.521 197.534 579.286 198.007C579.052 198.48 578.935 198.987 578.935 199.528V200.398C578.935 201.139 579.063 201.768 579.318 202.283C579.578 202.795 579.938 203.185 580.399 203.453C580.859 203.717 581.394 203.849 582.003 203.849C582.399 203.849 582.757 203.794 583.077 203.683C583.401 203.568 583.68 203.398 583.914 203.172C584.149 202.942 584.33 202.656 584.458 202.315L585.915 202.724C585.762 203.219 585.504 203.653 585.142 204.028C584.779 204.399 584.332 204.689 583.799 204.898C583.267 205.102 582.668 205.205 582.003 205.205Z" fill="#0F1215"/>
<rect x="245" y="162" width="181" height="72" rx="8" fill="#EBF5FF"/>
<path d="M273.44 184H271.854C271.761 183.544 271.597 183.143 271.362 182.798C271.132 182.453 270.851 182.163 270.518 181.929C270.19 181.69 269.826 181.511 269.425 181.392C269.025 181.273 268.607 181.213 268.173 181.213C267.38 181.213 266.662 181.413 266.018 181.814C265.379 182.214 264.87 182.805 264.491 183.585C264.116 184.364 263.928 185.321 263.928 186.455C263.928 187.588 264.116 188.545 264.491 189.325C264.87 190.104 265.379 190.695 266.018 191.095C266.662 191.496 267.38 191.696 268.173 191.696C268.607 191.696 269.025 191.636 269.425 191.517C269.826 191.398 270.19 191.221 270.518 190.987C270.851 190.748 271.132 190.456 271.362 190.111C271.597 189.761 271.761 189.361 271.854 188.909H273.44C273.32 189.578 273.103 190.177 272.788 190.705C272.472 191.234 272.08 191.683 271.612 192.054C271.143 192.42 270.616 192.7 270.033 192.891C269.453 193.083 268.833 193.179 268.173 193.179C267.056 193.179 266.063 192.906 265.194 192.361C264.325 191.815 263.641 191.04 263.142 190.034C262.643 189.028 262.394 187.835 262.394 186.455C262.394 185.074 262.643 183.881 263.142 182.875C263.641 181.869 264.325 181.094 265.194 180.548C266.063 180.003 267.056 179.73 268.173 179.73C268.833 179.73 269.453 179.826 270.033 180.018C270.616 180.21 271.143 180.491 271.612 180.862C272.08 181.228 272.472 181.675 272.788 182.204C273.103 182.728 273.32 183.327 273.44 184ZM279.785 193.205C278.899 193.205 278.121 192.994 277.452 192.572C276.787 192.15 276.268 191.56 275.893 190.801C275.522 190.043 275.336 189.156 275.336 188.142C275.336 187.119 275.522 186.227 275.893 185.464C276.268 184.701 276.787 184.109 277.452 183.687C278.121 183.265 278.899 183.054 279.785 183.054C280.672 183.054 281.447 183.265 282.112 183.687C282.781 184.109 283.301 184.701 283.672 185.464C284.047 186.227 284.234 187.119 284.234 188.142C284.234 189.156 284.047 190.043 283.672 190.801C283.301 191.56 282.781 192.15 282.112 192.572C281.447 192.994 280.672 193.205 279.785 193.205ZM279.785 191.849C280.459 191.849 281.013 191.677 281.447 191.332C281.882 190.987 282.204 190.533 282.412 189.97C282.621 189.408 282.726 188.798 282.726 188.142C282.726 187.486 282.621 186.874 282.412 186.308C282.204 185.741 281.882 185.283 281.447 184.933C281.013 184.584 280.459 184.409 279.785 184.409C279.112 184.409 278.558 184.584 278.123 184.933C277.689 185.283 277.367 185.741 277.158 186.308C276.949 186.874 276.845 187.486 276.845 188.142C276.845 188.798 276.949 189.408 277.158 189.97C277.367 190.533 277.689 190.987 278.123 191.332C278.558 191.677 279.112 191.849 279.785 191.849ZM292.724 188.986V183.182H294.233V193H292.724V191.338H292.622C292.392 191.837 292.034 192.261 291.548 192.61C291.063 192.955 290.449 193.128 289.707 193.128C289.094 193.128 288.548 192.994 288.071 192.725C287.594 192.452 287.219 192.043 286.946 191.498C286.673 190.948 286.537 190.256 286.537 189.42V183.182H288.045V189.318C288.045 190.034 288.246 190.605 288.646 191.031C289.051 191.457 289.567 191.67 290.193 191.67C290.568 191.67 290.95 191.575 291.337 191.383C291.729 191.191 292.058 190.897 292.322 190.501C292.59 190.104 292.724 189.599 292.724 188.986ZM296.996 193V183.182H298.453V184.665H298.556C298.735 184.179 299.058 183.785 299.527 183.482C299.996 183.18 300.524 183.028 301.112 183.028C301.223 183.028 301.362 183.031 301.528 183.035C301.694 183.039 301.82 183.045 301.905 183.054V184.588C301.854 184.575 301.737 184.556 301.553 184.531C301.374 184.501 301.185 184.486 300.985 184.486C300.507 184.486 300.081 184.586 299.706 184.786C299.335 184.982 299.041 185.255 298.824 185.604C298.611 185.95 298.504 186.344 298.504 186.787V193H296.996ZM310.648 185.381L309.293 185.764C309.207 185.538 309.082 185.319 308.915 185.106C308.754 184.888 308.532 184.71 308.251 184.569C307.969 184.428 307.609 184.358 307.17 184.358C306.57 184.358 306.069 184.496 305.668 184.773C305.272 185.046 305.074 185.393 305.074 185.815C305.074 186.19 305.21 186.487 305.483 186.704C305.756 186.921 306.182 187.102 306.761 187.247L308.219 187.605C309.097 187.818 309.751 188.144 310.181 188.583C310.612 189.018 310.827 189.578 310.827 190.264C310.827 190.827 310.665 191.33 310.341 191.773C310.021 192.216 309.574 192.565 308.999 192.821C308.423 193.077 307.754 193.205 306.991 193.205C305.99 193.205 305.161 192.987 304.505 192.553C303.849 192.118 303.433 191.483 303.259 190.648L304.69 190.29C304.827 190.818 305.085 191.214 305.464 191.479C305.847 191.743 306.348 191.875 306.966 191.875C307.669 191.875 308.227 191.726 308.641 191.428C309.058 191.125 309.267 190.763 309.267 190.341C309.267 190 309.148 189.714 308.909 189.484C308.67 189.25 308.304 189.075 307.81 188.96L306.173 188.577C305.274 188.364 304.614 188.033 304.192 187.586C303.774 187.134 303.565 186.57 303.565 185.892C303.565 185.338 303.721 184.848 304.032 184.422C304.347 183.996 304.776 183.661 305.317 183.418C305.862 183.175 306.48 183.054 307.17 183.054C308.142 183.054 308.905 183.267 309.459 183.693C310.017 184.119 310.413 184.682 310.648 185.381ZM317.214 193.205C316.268 193.205 315.452 192.996 314.766 192.578C314.084 192.156 313.558 191.568 313.187 190.814C312.82 190.055 312.637 189.173 312.637 188.168C312.637 187.162 312.82 186.276 313.187 185.509C313.558 184.737 314.073 184.136 314.734 183.706C315.399 183.271 316.174 183.054 317.061 183.054C317.572 183.054 318.077 183.139 318.575 183.31C319.074 183.48 319.528 183.757 319.937 184.141C320.346 184.52 320.672 185.023 320.915 185.649C321.158 186.276 321.279 187.047 321.279 187.963V188.602H313.711V187.298H319.745C319.745 186.744 319.634 186.25 319.413 185.815C319.195 185.381 318.884 185.038 318.48 184.786C318.079 184.535 317.606 184.409 317.061 184.409C316.46 184.409 315.94 184.558 315.501 184.857C315.066 185.151 314.732 185.534 314.497 186.007C314.263 186.48 314.146 186.987 314.146 187.528V188.398C314.146 189.139 314.274 189.768 314.529 190.283C314.789 190.795 315.149 191.185 315.61 191.453C316.07 191.717 316.605 191.849 317.214 191.849C317.61 191.849 317.968 191.794 318.288 191.683C318.612 191.568 318.891 191.398 319.125 191.172C319.36 190.942 319.541 190.656 319.669 190.315L321.126 190.724C320.972 191.219 320.715 191.653 320.352 192.028C319.99 192.399 319.543 192.689 319.01 192.898C318.477 193.102 317.879 193.205 317.214 193.205ZM328.637 196.682V183.182H330.094V184.741H330.273C330.384 184.571 330.537 184.354 330.733 184.089C330.933 183.821 331.219 183.582 331.59 183.374C331.965 183.161 332.472 183.054 333.111 183.054C333.938 183.054 334.666 183.261 335.297 183.674C335.928 184.087 336.42 184.673 336.774 185.432C337.127 186.19 337.304 187.085 337.304 188.116C337.304 189.156 337.127 190.058 336.774 190.82C336.42 191.579 335.93 192.167 335.303 192.585C334.677 192.998 333.955 193.205 333.137 193.205C332.506 193.205 332.001 193.1 331.622 192.891C331.242 192.678 330.95 192.437 330.746 192.169C330.541 191.896 330.384 191.67 330.273 191.491H330.145V196.682H328.637ZM330.119 188.091C330.119 188.832 330.228 189.487 330.445 190.053C330.663 190.616 330.98 191.057 331.398 191.376C331.816 191.692 332.327 191.849 332.932 191.849C333.563 191.849 334.089 191.683 334.511 191.351C334.937 191.014 335.257 190.562 335.47 189.996C335.687 189.425 335.796 188.79 335.796 188.091C335.796 187.401 335.689 186.778 335.476 186.224C335.267 185.666 334.95 185.225 334.524 184.901C334.102 184.573 333.571 184.409 332.932 184.409C332.318 184.409 331.803 184.565 331.385 184.876C330.968 185.183 330.652 185.613 330.439 186.167C330.226 186.717 330.119 187.358 330.119 188.091ZM341.114 179.909V193H339.605V179.909H341.114ZM346.766 193.23C346.144 193.23 345.579 193.113 345.072 192.879C344.565 192.64 344.162 192.297 343.864 191.849C343.566 191.398 343.417 190.852 343.417 190.213C343.417 189.651 343.527 189.195 343.749 188.845C343.971 188.491 344.267 188.214 344.637 188.014C345.008 187.814 345.417 187.665 345.865 187.567C346.316 187.464 346.77 187.384 347.226 187.324C347.823 187.247 348.306 187.19 348.677 187.151C349.052 187.109 349.325 187.038 349.495 186.94C349.67 186.842 349.757 186.672 349.757 186.429V186.378C349.757 185.747 349.585 185.257 349.24 184.908C348.899 184.558 348.381 184.384 347.686 184.384C346.966 184.384 346.402 184.541 345.993 184.857C345.583 185.172 345.296 185.509 345.13 185.866L343.698 185.355C343.953 184.759 344.294 184.294 344.721 183.962C345.151 183.625 345.62 183.391 346.127 183.259C346.638 183.122 347.141 183.054 347.635 183.054C347.951 183.054 348.313 183.092 348.722 183.169C349.135 183.241 349.534 183.393 349.917 183.623C350.305 183.853 350.627 184.2 350.882 184.665C351.138 185.129 351.266 185.751 351.266 186.531V193H349.757V191.67H349.681C349.578 191.884 349.408 192.112 349.169 192.354C348.931 192.597 348.613 192.804 348.217 192.974C347.821 193.145 347.337 193.23 346.766 193.23ZM346.996 191.875C347.593 191.875 348.096 191.758 348.505 191.523C348.918 191.289 349.229 190.987 349.438 190.616C349.651 190.245 349.757 189.855 349.757 189.446V188.065C349.694 188.142 349.553 188.212 349.336 188.276C349.123 188.336 348.875 188.389 348.594 188.436C348.317 188.479 348.047 188.517 347.782 188.551C347.522 188.581 347.311 188.607 347.15 188.628C346.757 188.679 346.391 188.762 346.05 188.877C345.713 188.988 345.441 189.156 345.232 189.382C345.027 189.604 344.925 189.906 344.925 190.29C344.925 190.814 345.119 191.21 345.507 191.479C345.899 191.743 346.395 191.875 346.996 191.875ZM358.289 183.182V184.46H353.201V183.182H358.289ZM354.684 180.83H356.193V190.188C356.193 190.614 356.254 190.933 356.378 191.146C356.506 191.355 356.668 191.496 356.864 191.568C357.064 191.636 357.275 191.67 357.497 191.67C357.663 191.67 357.799 191.662 357.906 191.645C358.012 191.624 358.097 191.607 358.161 191.594L358.468 192.949C358.366 192.987 358.223 193.026 358.04 193.064C357.857 193.107 357.624 193.128 357.343 193.128C356.917 193.128 356.499 193.036 356.09 192.853C355.686 192.67 355.349 192.391 355.08 192.016C354.816 191.641 354.684 191.168 354.684 190.597V180.83ZM364.931 183.182V184.46H359.638V183.182H364.931ZM361.223 193V181.827C361.223 181.264 361.355 180.795 361.619 180.42C361.884 180.045 362.227 179.764 362.649 179.577C363.07 179.389 363.516 179.295 363.985 179.295C364.355 179.295 364.658 179.325 364.892 179.385C365.127 179.445 365.301 179.5 365.416 179.551L364.982 180.855C364.905 180.83 364.798 180.798 364.662 180.759C364.53 180.721 364.355 180.702 364.138 180.702C363.639 180.702 363.279 180.827 363.058 181.079C362.84 181.33 362.732 181.699 362.732 182.185V193H361.223ZM370.629 193.205C369.743 193.205 368.965 192.994 368.296 192.572C367.631 192.15 367.111 191.56 366.736 190.801C366.366 190.043 366.18 189.156 366.18 188.142C366.18 187.119 366.366 186.227 366.736 185.464C367.111 184.701 367.631 184.109 368.296 183.687C368.965 183.265 369.743 183.054 370.629 183.054C371.515 183.054 372.291 183.265 372.956 183.687C373.625 184.109 374.145 184.701 374.515 185.464C374.89 186.227 375.078 187.119 375.078 188.142C375.078 189.156 374.89 190.043 374.515 190.801C374.145 191.56 373.625 192.15 372.956 192.572C372.291 192.994 371.515 193.205 370.629 193.205ZM370.629 191.849C371.302 191.849 371.856 191.677 372.291 191.332C372.726 190.987 373.047 190.533 373.256 189.97C373.465 189.408 373.569 188.798 373.569 188.142C373.569 187.486 373.465 186.874 373.256 186.308C373.047 185.741 372.726 185.283 372.291 184.933C371.856 184.584 371.302 184.409 370.629 184.409C369.956 184.409 369.402 184.584 368.967 184.933C368.532 185.283 368.211 185.741 368.002 186.308C367.793 186.874 367.689 187.486 367.689 188.142C367.689 188.798 367.793 189.408 368.002 189.97C368.211 190.533 368.532 190.987 368.967 191.332C369.402 191.677 369.956 191.849 370.629 191.849ZM377.381 193V183.182H378.838V184.665H378.94C379.119 184.179 379.443 183.785 379.912 183.482C380.381 183.18 380.909 183.028 381.497 183.028C381.608 183.028 381.746 183.031 381.913 183.035C382.079 183.039 382.205 183.045 382.29 183.054V184.588C382.239 184.575 382.121 184.556 381.938 184.531C381.759 184.501 381.57 184.486 381.369 184.486C380.892 184.486 380.466 184.586 380.091 184.786C379.72 184.982 379.426 185.255 379.209 185.604C378.996 185.95 378.889 186.344 378.889 186.787V193H377.381ZM384.078 193V183.182H385.535V184.716H385.663C385.868 184.192 386.198 183.785 386.654 183.495C387.11 183.201 387.657 183.054 388.297 183.054C388.944 183.054 389.483 183.201 389.914 183.495C390.349 183.785 390.687 184.192 390.93 184.716H391.032C391.284 184.209 391.661 183.806 392.164 183.508C392.667 183.205 393.27 183.054 393.973 183.054C394.851 183.054 395.569 183.329 396.127 183.879C396.685 184.424 396.964 185.274 396.964 186.429V193H395.456V186.429C395.456 185.705 395.258 185.187 394.861 184.876C394.465 184.565 393.998 184.409 393.461 184.409C392.771 184.409 392.236 184.618 391.857 185.036C391.478 185.449 391.288 185.973 391.288 186.608V193H389.754V186.276C389.754 185.717 389.573 185.268 389.211 184.927C388.849 184.582 388.382 184.409 387.811 184.409C387.419 184.409 387.052 184.513 386.711 184.722C386.375 184.931 386.102 185.221 385.893 185.592C385.689 185.958 385.586 186.382 385.586 186.864V193H384.078ZM401.052 179.909V181.06C401.052 181.409 400.988 181.782 400.86 182.178C400.737 182.57 400.553 182.952 400.311 183.322C400.072 183.689 399.782 184.009 399.441 184.281L398.623 183.616C398.892 183.233 399.124 182.835 399.32 182.421C399.52 182.004 399.62 181.558 399.62 181.085V179.909H401.052ZM408.611 185.381L407.256 185.764C407.17 185.538 407.045 185.319 406.878 185.106C406.716 184.888 406.495 184.71 406.214 184.569C405.932 184.428 405.572 184.358 405.133 184.358C404.532 184.358 404.032 184.496 403.631 184.773C403.235 185.046 403.037 185.393 403.037 185.815C403.037 186.19 403.173 186.487 403.446 186.704C403.719 186.921 404.145 187.102 404.724 187.247L406.182 187.605C407.059 187.818 407.714 188.144 408.144 188.583C408.574 189.018 408.79 189.578 408.79 190.264C408.79 190.827 408.628 191.33 408.304 191.773C407.984 192.216 407.537 192.565 406.961 192.821C406.386 193.077 405.717 193.205 404.954 193.205C403.953 193.205 403.124 192.987 402.468 192.553C401.812 192.118 401.396 191.483 401.221 190.648L402.653 190.29C402.79 190.818 403.047 191.214 403.427 191.479C403.81 191.743 404.311 191.875 404.929 191.875C405.632 191.875 406.19 191.726 406.604 191.428C407.021 191.125 407.23 190.763 407.23 190.341C407.23 190 407.111 189.714 406.872 189.484C406.633 189.25 406.267 189.075 405.773 188.96L404.136 188.577C403.237 188.364 402.577 188.033 402.155 187.586C401.737 187.134 401.528 186.57 401.528 185.892C401.528 185.338 401.684 184.848 401.995 184.422C402.31 183.996 402.738 183.661 403.28 183.418C403.825 183.175 404.443 183.054 405.133 183.054C406.105 183.054 406.868 183.267 407.422 183.693C407.98 184.119 408.376 184.682 408.611 185.381ZM300.611 217V203.909H302.119V208.741H302.247C302.358 208.571 302.511 208.354 302.707 208.089C302.907 207.821 303.193 207.582 303.564 207.374C303.939 207.161 304.446 207.054 305.085 207.054C305.912 207.054 306.64 207.261 307.271 207.674C307.902 208.087 308.394 208.673 308.748 209.432C309.101 210.19 309.278 211.085 309.278 212.116C309.278 213.156 309.101 214.058 308.748 214.82C308.394 215.579 307.904 216.167 307.278 216.585C306.651 216.998 305.929 217.205 305.111 217.205C304.48 217.205 303.975 217.1 303.596 216.891C303.216 216.678 302.925 216.437 302.72 216.169C302.515 215.896 302.358 215.67 302.247 215.491H302.068V217H300.611ZM302.094 212.091C302.094 212.832 302.202 213.487 302.42 214.053C302.637 214.616 302.954 215.057 303.372 215.376C303.79 215.692 304.301 215.849 304.906 215.849C305.537 215.849 306.063 215.683 306.485 215.351C306.911 215.014 307.231 214.562 307.444 213.996C307.661 213.425 307.77 212.79 307.77 212.091C307.77 211.401 307.663 210.778 307.45 210.224C307.241 209.666 306.924 209.225 306.498 208.901C306.076 208.573 305.545 208.409 304.906 208.409C304.292 208.409 303.777 208.565 303.359 208.876C302.942 209.183 302.626 209.613 302.413 210.167C302.2 210.717 302.094 211.358 302.094 212.091ZM314.475 217.23C313.853 217.23 313.288 217.113 312.781 216.879C312.274 216.64 311.871 216.297 311.573 215.849C311.275 215.398 311.126 214.852 311.126 214.213C311.126 213.651 311.236 213.195 311.458 212.845C311.68 212.491 311.976 212.214 312.346 212.014C312.717 211.814 313.126 211.665 313.574 211.567C314.025 211.464 314.479 211.384 314.935 211.324C315.532 211.247 316.015 211.19 316.386 211.151C316.761 211.109 317.034 211.038 317.204 210.94C317.379 210.842 317.466 210.672 317.466 210.429V210.378C317.466 209.747 317.294 209.257 316.949 208.908C316.608 208.558 316.09 208.384 315.395 208.384C314.675 208.384 314.111 208.541 313.702 208.857C313.292 209.172 313.005 209.509 312.839 209.866L311.407 209.355C311.662 208.759 312.003 208.294 312.43 207.962C312.86 207.625 313.329 207.391 313.836 207.259C314.347 207.122 314.85 207.054 315.344 207.054C315.66 207.054 316.022 207.092 316.431 207.169C316.844 207.241 317.243 207.393 317.626 207.623C318.014 207.853 318.336 208.2 318.591 208.665C318.847 209.129 318.975 209.751 318.975 210.531V217H317.466V215.67H317.39C317.287 215.884 317.117 216.112 316.878 216.354C316.64 216.597 316.322 216.804 315.926 216.974C315.53 217.145 315.046 217.23 314.475 217.23ZM314.705 215.875C315.302 215.875 315.805 215.758 316.214 215.523C316.627 215.289 316.938 214.987 317.147 214.616C317.36 214.245 317.466 213.855 317.466 213.446V212.065C317.403 212.142 317.262 212.212 317.045 212.276C316.831 212.336 316.584 212.389 316.303 212.436C316.026 212.479 315.756 212.517 315.491 212.551C315.231 212.581 315.02 212.607 314.858 212.628C314.466 212.679 314.1 212.762 313.759 212.877C313.422 212.988 313.15 213.156 312.941 213.382C312.736 213.604 312.634 213.906 312.634 214.29C312.634 214.814 312.828 215.21 313.216 215.479C313.608 215.743 314.104 215.875 314.705 215.875ZM325.717 217.205C324.797 217.205 324.004 216.987 323.339 216.553C322.674 216.118 322.163 215.519 321.805 214.756C321.447 213.994 321.268 213.122 321.268 212.142C321.268 211.145 321.451 210.265 321.818 209.502C322.189 208.735 322.704 208.136 323.365 207.706C324.029 207.271 324.805 207.054 325.691 207.054C326.382 207.054 327.004 207.182 327.558 207.438C328.112 207.693 328.566 208.051 328.919 208.511C329.273 208.972 329.493 209.509 329.578 210.122H328.069C327.954 209.675 327.699 209.278 327.302 208.933C326.91 208.584 326.382 208.409 325.717 208.409C325.129 208.409 324.613 208.562 324.17 208.869C323.731 209.172 323.388 209.6 323.141 210.154C322.898 210.704 322.777 211.349 322.777 212.091C322.777 212.849 322.896 213.51 323.135 214.072C323.377 214.635 323.718 215.072 324.157 215.383C324.6 215.694 325.12 215.849 325.717 215.849C326.109 215.849 326.465 215.781 326.784 215.645C327.104 215.509 327.375 215.312 327.596 215.057C327.818 214.801 327.975 214.494 328.069 214.136H329.578C329.493 214.716 329.282 215.238 328.945 215.702C328.613 216.163 328.172 216.529 327.622 216.802C327.076 217.07 326.441 217.205 325.717 217.205ZM333.189 213.42L333.164 211.554H333.471L337.766 207.182H339.632L335.056 211.81H334.928L333.189 213.42ZM331.783 217V203.909H333.292V217H331.783ZM338.022 217L334.186 212.142L335.26 211.094L339.939 217H338.022ZM345.286 217.205C344.34 217.205 343.524 216.996 342.838 216.578C342.156 216.156 341.63 215.568 341.259 214.814C340.893 214.055 340.71 213.173 340.71 212.168C340.71 211.162 340.893 210.276 341.259 209.509C341.63 208.737 342.146 208.136 342.806 207.706C343.471 207.271 344.246 207.054 345.133 207.054C345.644 207.054 346.149 207.139 346.648 207.31C347.146 207.48 347.6 207.757 348.009 208.141C348.418 208.52 348.744 209.023 348.987 209.649C349.23 210.276 349.352 211.047 349.352 211.963V212.602H341.783V211.298H347.817C347.817 210.744 347.707 210.25 347.485 209.815C347.268 209.381 346.957 209.038 346.552 208.786C346.151 208.535 345.678 208.409 345.133 208.409C344.532 208.409 344.012 208.558 343.573 208.857C343.138 209.151 342.804 209.534 342.57 210.007C342.335 210.48 342.218 210.987 342.218 211.528V212.398C342.218 213.139 342.346 213.768 342.602 214.283C342.862 214.795 343.222 215.185 343.682 215.453C344.142 215.717 344.677 215.849 345.286 215.849C345.683 215.849 346.04 215.794 346.36 215.683C346.684 215.568 346.963 215.398 347.197 215.172C347.432 214.942 347.613 214.656 347.741 214.315L349.198 214.724C349.045 215.219 348.787 215.653 348.425 216.028C348.063 216.399 347.615 216.689 347.082 216.898C346.55 217.102 345.951 217.205 345.286 217.205ZM353.155 211.094V217H351.646V207.182H353.104V208.716H353.232C353.462 208.217 353.811 207.817 354.28 207.514C354.749 207.207 355.354 207.054 356.095 207.054C356.76 207.054 357.342 207.19 357.84 207.463C358.339 207.732 358.727 208.141 359.004 208.69C359.281 209.236 359.419 209.926 359.419 210.761V217H357.911V210.864C357.911 210.092 357.71 209.491 357.31 209.061C356.909 208.626 356.359 208.409 355.661 208.409C355.179 208.409 354.749 208.513 354.369 208.722C353.994 208.931 353.698 209.236 353.481 209.636C353.263 210.037 353.155 210.523 353.155 211.094ZM365.883 217.205C365.065 217.205 364.343 216.998 363.716 216.585C363.09 216.167 362.6 215.579 362.246 214.82C361.892 214.058 361.715 213.156 361.715 212.116C361.715 211.085 361.892 210.19 362.246 209.432C362.6 208.673 363.092 208.087 363.722 207.674C364.353 207.261 365.082 207.054 365.909 207.054C366.548 207.054 367.053 207.161 367.423 207.374C367.798 207.582 368.084 207.821 368.28 208.089C368.48 208.354 368.636 208.571 368.747 208.741H368.874V203.909H370.383V217H368.926V215.491H368.747C368.636 215.67 368.478 215.896 368.274 216.169C368.069 216.437 367.777 216.678 367.398 216.891C367.019 217.1 366.514 217.205 365.883 217.205ZM366.088 215.849C366.693 215.849 367.204 215.692 367.622 215.376C368.039 215.057 368.357 214.616 368.574 214.053C368.791 213.487 368.9 212.832 368.9 212.091C368.9 211.358 368.794 210.717 368.58 210.167C368.367 209.613 368.052 209.183 367.634 208.876C367.217 208.565 366.701 208.409 366.088 208.409C365.448 208.409 364.916 208.573 364.49 208.901C364.068 209.225 363.75 209.666 363.537 210.224C363.328 210.778 363.224 211.401 363.224 212.091C363.224 212.79 363.33 213.425 363.544 213.996C363.761 214.562 364.08 215.014 364.502 215.351C364.928 215.683 365.457 215.849 366.088 215.849Z" fill="#0F1215"/>
<rect x="245" y="82" width="121" height="48" rx="8" fill="#EBF5FF"/>
<path d="M263.607 113H261.945L266.751 99.9091H268.388L273.195 113H271.533L267.621 101.98H267.518L263.607 113ZM264.22 107.886H270.919V109.293H264.22V107.886ZM276.819 99.9091V113H275.234V99.9091H276.819ZM288.844 113.205C287.923 113.205 287.131 112.987 286.466 112.553C285.801 112.118 285.29 111.519 284.932 110.756C284.574 109.994 284.395 109.122 284.395 108.142C284.395 107.145 284.578 106.265 284.945 105.502C285.316 104.735 285.831 104.136 286.492 103.706C287.156 103.271 287.932 103.054 288.818 103.054C289.509 103.054 290.131 103.182 290.685 103.438C291.239 103.693 291.693 104.051 292.046 104.511C292.4 104.972 292.619 105.509 292.705 106.122H291.196C291.081 105.675 290.825 105.278 290.429 104.933C290.037 104.584 289.509 104.409 288.844 104.409C288.256 104.409 287.74 104.562 287.297 104.869C286.858 105.172 286.515 105.6 286.268 106.154C286.025 106.704 285.904 107.349 285.904 108.091C285.904 108.849 286.023 109.51 286.262 110.072C286.504 110.635 286.845 111.072 287.284 111.383C287.727 111.694 288.247 111.849 288.844 111.849C289.236 111.849 289.592 111.781 289.911 111.645C290.231 111.509 290.502 111.312 290.723 111.057C290.945 110.801 291.102 110.494 291.196 110.136H292.705C292.619 110.716 292.409 111.238 292.072 111.702C291.74 112.163 291.298 112.529 290.749 112.802C290.203 113.07 289.568 113.205 288.844 113.205ZM296.419 107.094V113H294.91V99.9091H296.419V104.716H296.546C296.776 104.209 297.122 103.806 297.582 103.508C298.046 103.205 298.664 103.054 299.436 103.054C300.105 103.054 300.691 103.188 301.193 103.457C301.696 103.721 302.086 104.128 302.363 104.678C302.644 105.223 302.785 105.918 302.785 106.761V113H301.276V106.864C301.276 106.084 301.074 105.481 300.669 105.055C300.269 104.624 299.713 104.409 299.001 104.409C298.507 104.409 298.063 104.513 297.671 104.722C297.284 104.931 296.977 105.236 296.751 105.636C296.529 106.037 296.419 106.523 296.419 107.094ZM308.434 113.23C307.812 113.23 307.247 113.113 306.74 112.879C306.233 112.64 305.83 112.297 305.532 111.849C305.234 111.398 305.085 110.852 305.085 110.213C305.085 109.651 305.195 109.195 305.417 108.845C305.638 108.491 305.935 108.214 306.305 108.014C306.676 107.814 307.085 107.665 307.533 107.567C307.984 107.464 308.438 107.384 308.894 107.324C309.491 107.247 309.974 107.19 310.345 107.151C310.72 107.109 310.993 107.038 311.163 106.94C311.338 106.842 311.425 106.672 311.425 106.429V106.378C311.425 105.747 311.253 105.257 310.908 104.908C310.567 104.558 310.049 104.384 309.354 104.384C308.634 104.384 308.07 104.541 307.661 104.857C307.251 105.172 306.964 105.509 306.798 105.866L305.366 105.355C305.621 104.759 305.962 104.294 306.388 103.962C306.819 103.625 307.288 103.391 307.795 103.259C308.306 103.122 308.809 103.054 309.303 103.054C309.619 103.054 309.981 103.092 310.39 103.169C310.803 103.241 311.202 103.393 311.585 103.623C311.973 103.853 312.295 104.2 312.55 104.665C312.806 105.129 312.934 105.751 312.934 106.531V113H311.425V111.67H311.349C311.246 111.884 311.076 112.112 310.837 112.354C310.599 112.597 310.281 112.804 309.885 112.974C309.489 113.145 309.005 113.23 308.434 113.23ZM308.664 111.875C309.261 111.875 309.763 111.758 310.173 111.523C310.586 111.289 310.897 110.987 311.106 110.616C311.319 110.245 311.425 109.855 311.425 109.446V108.065C311.362 108.142 311.221 108.212 311.004 108.276C310.79 108.336 310.543 108.389 310.262 108.436C309.985 108.479 309.714 108.517 309.45 108.551C309.19 108.581 308.979 108.607 308.817 108.628C308.425 108.679 308.059 108.762 307.718 108.877C307.381 108.988 307.109 109.156 306.9 109.382C306.695 109.604 306.593 109.906 306.593 110.29C306.593 110.814 306.787 111.21 307.175 111.479C307.567 111.743 308.063 111.875 308.664 111.875ZM319.957 103.182V104.46H314.869V103.182H319.957ZM316.352 100.83H317.861V110.188C317.861 110.614 317.922 110.933 318.046 111.146C318.174 111.355 318.336 111.496 318.532 111.568C318.732 111.636 318.943 111.67 319.165 111.67C319.331 111.67 319.467 111.662 319.574 111.645C319.68 111.624 319.765 111.607 319.829 111.594L320.136 112.949C320.034 112.987 319.891 113.026 319.708 113.064C319.525 113.107 319.292 113.128 319.011 113.128C318.585 113.128 318.167 113.036 317.758 112.853C317.354 112.67 317.017 112.391 316.748 112.016C316.484 111.641 316.352 111.168 316.352 110.597V100.83ZM322.642 113V99.9091H324.15V104.741H324.278C324.389 104.571 324.542 104.354 324.738 104.089C324.939 103.821 325.224 103.582 325.595 103.374C325.97 103.161 326.477 103.054 327.116 103.054C327.943 103.054 328.672 103.261 329.302 103.674C329.933 104.087 330.425 104.673 330.779 105.432C331.133 106.19 331.309 107.085 331.309 108.116C331.309 109.156 331.133 110.058 330.779 110.82C330.425 111.579 329.935 112.167 329.309 112.585C328.682 112.998 327.96 113.205 327.142 113.205C326.511 113.205 326.006 113.1 325.627 112.891C325.248 112.678 324.956 112.437 324.751 112.169C324.547 111.896 324.389 111.67 324.278 111.491H324.099V113H322.642ZM324.125 108.091C324.125 108.832 324.233 109.487 324.451 110.053C324.668 110.616 324.986 111.057 325.403 111.376C325.821 111.692 326.332 111.849 326.937 111.849C327.568 111.849 328.094 111.683 328.516 111.351C328.942 111.014 329.262 110.562 329.475 109.996C329.692 109.425 329.801 108.79 329.801 108.091C329.801 107.401 329.694 106.778 329.481 106.224C329.273 105.666 328.955 105.225 328.529 104.901C328.107 104.573 327.577 104.409 326.937 104.409C326.324 104.409 325.808 104.565 325.39 104.876C324.973 105.183 324.657 105.613 324.444 106.167C324.231 106.717 324.125 107.358 324.125 108.091ZM337.606 113.205C336.719 113.205 335.942 112.994 335.273 112.572C334.608 112.15 334.088 111.56 333.713 110.801C333.342 110.043 333.157 109.156 333.157 108.142C333.157 107.119 333.342 106.227 333.713 105.464C334.088 104.701 334.608 104.109 335.273 103.687C335.942 103.265 336.719 103.054 337.606 103.054C338.492 103.054 339.268 103.265 339.932 103.687C340.601 104.109 341.121 104.701 341.492 105.464C341.867 106.227 342.055 107.119 342.055 108.142C342.055 109.156 341.867 110.043 341.492 110.801C341.121 111.56 340.601 112.15 339.932 112.572C339.268 112.994 338.492 113.205 337.606 113.205ZM337.606 111.849C338.279 111.849 338.833 111.677 339.268 111.332C339.702 110.987 340.024 110.533 340.233 109.97C340.442 109.408 340.546 108.798 340.546 108.142C340.546 107.486 340.442 106.874 340.233 106.308C340.024 105.741 339.702 105.283 339.268 104.933C338.833 104.584 338.279 104.409 337.606 104.409C336.932 104.409 336.378 104.584 335.944 104.933C335.509 105.283 335.187 105.741 334.979 106.308C334.77 106.874 334.665 107.486 334.665 108.142C334.665 108.798 334.77 109.408 334.979 109.97C335.187 110.533 335.509 110.987 335.944 111.332C336.378 111.677 336.932 111.849 337.606 111.849ZM348.627 103.182V104.46H343.539V103.182H348.627ZM345.022 100.83H346.531V110.188C346.531 110.614 346.592 110.933 346.716 111.146C346.844 111.355 347.006 111.496 347.202 111.568C347.402 111.636 347.613 111.67 347.835 111.67C348.001 111.67 348.137 111.662 348.244 111.645C348.35 111.624 348.435 111.607 348.499 111.594L348.806 112.949C348.704 112.987 348.561 113.026 348.378 113.064C348.195 113.107 347.962 113.128 347.681 113.128C347.255 113.128 346.837 113.036 346.428 112.853C346.023 112.67 345.687 112.391 345.418 112.016C345.154 111.641 345.022 111.168 345.022 110.597V100.83Z" fill="#0F1215"/>
<rect y="110" width="181" height="72" rx="8" fill="#EBF5FF"/>
<path d="M28.4396 132H26.8544C26.7607 131.544 26.5966 131.143 26.3622 130.798C26.1321 130.453 25.8509 130.163 25.5185 129.929C25.1903 129.69 24.826 129.511 24.4254 129.392C24.0249 129.273 23.6072 129.213 23.1726 129.213C22.38 129.213 21.6619 129.413 21.0185 129.814C20.3793 130.214 19.87 130.805 19.4908 131.585C19.1158 132.364 18.9283 133.321 18.9283 134.455C18.9283 135.588 19.1158 136.545 19.4908 137.325C19.87 138.104 20.3793 138.695 21.0185 139.095C21.6619 139.496 22.38 139.696 23.1726 139.696C23.6072 139.696 24.0249 139.636 24.4254 139.517C24.826 139.398 25.1903 139.221 25.5185 138.987C25.8509 138.748 26.1321 138.456 26.3622 138.111C26.5966 137.761 26.7607 137.361 26.8544 136.909H28.4396C28.3203 137.578 28.103 138.177 27.7876 138.705C27.4723 139.234 27.0803 139.683 26.6115 140.054C26.1428 140.42 25.6165 140.7 25.0327 140.891C24.4531 141.083 23.8331 141.179 23.1726 141.179C22.0561 141.179 21.0632 140.906 20.1939 140.361C19.3246 139.815 18.6406 139.04 18.142 138.034C17.6435 137.028 17.3942 135.835 17.3942 134.455C17.3942 133.074 17.6435 131.881 18.142 130.875C18.6406 129.869 19.3246 129.094 20.1939 128.548C21.0632 128.003 22.0561 127.73 23.1726 127.73C23.8331 127.73 24.4531 127.826 25.0327 128.018C25.6165 128.21 26.1428 128.491 26.6115 128.862C27.0803 129.228 27.4723 129.675 27.7876 130.204C28.103 130.728 28.3203 131.327 28.4396 132ZM34.7853 141.205C33.899 141.205 33.1213 140.994 32.4522 140.572C31.7875 140.15 31.2676 139.56 30.8926 138.801C30.5218 138.043 30.3365 137.156 30.3365 136.142C30.3365 135.119 30.5218 134.227 30.8926 133.464C31.2676 132.701 31.7875 132.109 32.4522 131.687C33.1213 131.265 33.899 131.054 34.7853 131.054C35.6717 131.054 36.4473 131.265 37.112 131.687C37.7811 132.109 38.301 132.701 38.6717 133.464C39.0467 134.227 39.2342 135.119 39.2342 136.142C39.2342 137.156 39.0467 138.043 38.6717 138.801C38.301 139.56 37.7811 140.15 37.112 140.572C36.4473 140.994 35.6717 141.205 34.7853 141.205ZM34.7853 139.849C35.4586 139.849 36.0126 139.677 36.4473 139.332C36.8819 138.987 37.2037 138.533 37.4125 137.97C37.6213 137.408 37.7257 136.798 37.7257 136.142C37.7257 135.486 37.6213 134.874 37.4125 134.308C37.2037 133.741 36.8819 133.283 36.4473 132.933C36.0126 132.584 35.4586 132.409 34.7853 132.409C34.112 132.409 33.5581 132.584 33.1234 132.933C32.6887 133.283 32.367 133.741 32.1582 134.308C31.9494 134.874 31.845 135.486 31.845 136.142C31.845 136.798 31.9494 137.408 32.1582 137.97C32.367 138.533 32.6887 138.987 33.1234 139.332C33.5581 139.677 34.112 139.849 34.7853 139.849ZM47.7244 136.986V131.182H49.233V141H47.7244V139.338H47.6222C47.392 139.837 47.0341 140.261 46.5483 140.61C46.0625 140.955 45.4489 141.128 44.7074 141.128C44.0938 141.128 43.5483 140.994 43.071 140.725C42.5938 140.452 42.2188 140.043 41.946 139.498C41.6733 138.948 41.5369 138.256 41.5369 137.42V131.182H43.0455V137.318C43.0455 138.034 43.2457 138.605 43.6463 139.031C44.0511 139.457 44.5668 139.67 45.1932 139.67C45.5682 139.67 45.9496 139.575 46.3374 139.383C46.7294 139.191 47.0575 138.897 47.3217 138.501C47.5902 138.104 47.7244 137.599 47.7244 136.986ZM51.9959 141V131.182H53.4533V132.665H53.5556C53.7346 132.179 54.0584 131.785 54.5272 131.482C54.9959 131.18 55.5243 131.028 56.1124 131.028C56.2232 131.028 56.3617 131.031 56.5279 131.035C56.6941 131.039 56.8198 131.045 56.905 131.054V132.588C56.8539 132.575 56.7367 132.556 56.5534 132.531C56.3745 132.501 56.1848 132.486 55.9846 132.486C55.5073 132.486 55.0811 132.586 54.7061 132.786C54.3354 132.982 54.0414 133.255 53.824 133.604C53.611 133.95 53.5044 134.344 53.5044 134.787V141H51.9959ZM65.6477 133.381L64.2926 133.764C64.2074 133.538 64.0817 133.319 63.9155 133.106C63.7536 132.888 63.532 132.71 63.2507 132.569C62.9695 132.428 62.6094 132.358 62.1705 132.358C61.5696 132.358 61.0689 132.496 60.6683 132.773C60.272 133.046 60.0739 133.393 60.0739 133.815C60.0739 134.19 60.2102 134.487 60.483 134.704C60.7557 134.921 61.1818 135.102 61.7614 135.247L63.2188 135.605C64.0966 135.818 64.7507 136.144 65.1811 136.583C65.6115 137.018 65.8267 137.578 65.8267 138.264C65.8267 138.827 65.6648 139.33 65.3409 139.773C65.0213 140.216 64.5739 140.565 63.9986 140.821C63.4233 141.077 62.7543 141.205 61.9915 141.205C60.9901 141.205 60.1612 140.987 59.505 140.553C58.8487 140.118 58.4332 139.483 58.2585 138.648L59.6903 138.29C59.8267 138.818 60.0845 139.214 60.4638 139.479C60.8473 139.743 61.348 139.875 61.9659 139.875C62.669 139.875 63.2273 139.726 63.6406 139.428C64.0582 139.125 64.267 138.763 64.267 138.341C64.267 138 64.1477 137.714 63.9091 137.484C63.6705 137.25 63.304 137.075 62.8097 136.96L61.1733 136.577C60.2741 136.364 59.6136 136.033 59.1918 135.586C58.7741 135.134 58.5653 134.57 58.5653 133.892C58.5653 133.338 58.7209 132.848 59.032 132.422C59.3473 131.996 59.7756 131.661 60.3168 131.418C60.8622 131.175 61.4801 131.054 62.1705 131.054C63.142 131.054 63.9048 131.267 64.4588 131.693C65.017 132.119 65.4134 132.682 65.6477 133.381ZM72.214 141.205C71.2679 141.205 70.4519 140.996 69.7658 140.578C69.084 140.156 68.5577 139.568 68.187 138.814C67.8205 138.055 67.6373 137.173 67.6373 136.168C67.6373 135.162 67.8205 134.276 68.187 133.509C68.5577 132.737 69.0733 132.136 69.7338 131.706C70.3986 131.271 71.1742 131.054 72.0605 131.054C72.5719 131.054 73.0769 131.139 73.5755 131.31C74.074 131.48 74.5279 131.757 74.937 132.141C75.3461 132.52 75.6721 133.023 75.915 133.649C76.1578 134.276 76.2793 135.047 76.2793 135.963V136.602H68.7111V135.298H74.7452C74.7452 134.744 74.6344 134.25 74.4128 133.815C74.1955 133.381 73.8844 133.038 73.4796 132.786C73.079 132.535 72.606 132.409 72.0605 132.409C71.4597 132.409 70.9398 132.558 70.5009 132.857C70.0662 133.151 69.7317 133.534 69.4973 134.007C69.263 134.48 69.1458 134.987 69.1458 135.528V136.398C69.1458 137.139 69.2736 137.768 69.5293 138.283C69.7892 138.795 70.1493 139.185 70.6096 139.453C71.0698 139.717 71.6046 139.849 72.214 139.849C72.6103 139.849 72.9682 139.794 73.2878 139.683C73.6117 139.568 73.8908 139.398 74.1252 139.172C74.3596 138.942 74.5407 138.656 74.6685 138.315L76.1259 138.724C75.9725 139.219 75.7147 139.653 75.3525 140.028C74.9902 140.399 74.5428 140.689 74.0101 140.898C73.4775 141.102 72.8787 141.205 72.214 141.205ZM83.6365 144.682V131.182H85.0939V132.741H85.2729C85.3837 132.571 85.5371 132.354 85.7331 132.089C85.9334 131.821 86.2189 131.582 86.5897 131.374C86.9647 131.161 87.4718 131.054 88.111 131.054C88.9377 131.054 89.6664 131.261 90.2971 131.674C90.9277 132.087 91.4199 132.673 91.7736 133.432C92.1273 134.19 92.3042 135.085 92.3042 136.116C92.3042 137.156 92.1273 138.058 91.7736 138.82C91.4199 139.579 90.9299 140.167 90.3034 140.585C89.677 140.998 88.9547 141.205 88.1365 141.205C87.5059 141.205 87.0009 141.1 86.6216 140.891C86.2424 140.678 85.9505 140.437 85.7459 140.169C85.5414 139.896 85.3837 139.67 85.2729 139.491H85.1451V144.682H83.6365ZM85.1195 136.091C85.1195 136.832 85.2282 137.487 85.4455 138.053C85.6628 138.616 85.9803 139.057 86.3979 139.376C86.8155 139.692 87.3269 139.849 87.932 139.849C88.5627 139.849 89.089 139.683 89.5108 139.351C89.937 139.014 90.2566 138.562 90.4696 137.996C90.687 137.425 90.7956 136.79 90.7956 136.091C90.7956 135.401 90.6891 134.778 90.476 134.224C90.2672 133.666 89.9498 133.225 89.5236 132.901C89.1017 132.573 88.5712 132.409 87.932 132.409C87.3184 132.409 86.8027 132.565 86.3851 132.876C85.9675 133.183 85.6522 133.613 85.4391 134.167C85.226 134.717 85.1195 135.358 85.1195 136.091ZM96.1138 127.909V141H94.6053V127.909H96.1138ZM101.766 141.23C101.144 141.23 100.579 141.113 100.072 140.879C99.565 140.64 99.1623 140.297 98.864 139.849C98.5657 139.398 98.4165 138.852 98.4165 138.213C98.4165 137.651 98.5273 137.195 98.7489 136.845C98.9705 136.491 99.2667 136.214 99.6374 136.014C100.008 135.814 100.417 135.665 100.865 135.567C101.316 135.464 101.77 135.384 102.226 135.324C102.823 135.247 103.306 135.19 103.677 135.151C104.052 135.109 104.325 135.038 104.495 134.94C104.67 134.842 104.757 134.672 104.757 134.429V134.378C104.757 133.747 104.585 133.257 104.24 132.908C103.899 132.558 103.381 132.384 102.686 132.384C101.966 132.384 101.402 132.541 100.993 132.857C100.583 133.172 100.296 133.509 100.13 133.866L98.6978 133.355C98.9535 132.759 99.2944 132.294 99.7205 131.962C100.151 131.625 100.62 131.391 101.127 131.259C101.638 131.122 102.141 131.054 102.635 131.054C102.951 131.054 103.313 131.092 103.722 131.169C104.135 131.241 104.534 131.393 104.917 131.623C105.305 131.853 105.627 132.2 105.882 132.665C106.138 133.129 106.266 133.751 106.266 134.531V141H104.757V139.67H104.681C104.578 139.884 104.408 140.112 104.169 140.354C103.931 140.597 103.613 140.804 103.217 140.974C102.821 141.145 102.337 141.23 101.766 141.23ZM101.996 139.875C102.593 139.875 103.096 139.758 103.505 139.523C103.918 139.289 104.229 138.987 104.438 138.616C104.651 138.245 104.757 137.855 104.757 137.446V136.065C104.694 136.142 104.553 136.212 104.336 136.276C104.123 136.336 103.875 136.389 103.594 136.436C103.317 136.479 103.047 136.517 102.782 136.551C102.522 136.581 102.311 136.607 102.15 136.628C101.757 136.679 101.391 136.762 101.05 136.877C100.713 136.988 100.441 137.156 100.232 137.382C100.027 137.604 99.9251 137.906 99.9251 138.29C99.9251 138.814 100.119 139.21 100.507 139.479C100.899 139.743 101.395 139.875 101.996 139.875ZM113.289 131.182V132.46H108.201V131.182H113.289ZM109.684 128.83H111.193V138.188C111.193 138.614 111.254 138.933 111.378 139.146C111.506 139.355 111.668 139.496 111.864 139.568C112.064 139.636 112.275 139.67 112.497 139.67C112.663 139.67 112.799 139.662 112.906 139.645C113.012 139.624 113.097 139.607 113.161 139.594L113.468 140.949C113.366 140.987 113.223 141.026 113.04 141.064C112.857 141.107 112.624 141.128 112.343 141.128C111.917 141.128 111.499 141.036 111.09 140.853C110.686 140.67 110.349 140.391 110.08 140.016C109.816 139.641 109.684 139.168 109.684 138.597V128.83ZM119.931 131.182V132.46H114.638V131.182H119.931ZM116.223 141V129.827C116.223 129.264 116.355 128.795 116.619 128.42C116.884 128.045 117.227 127.764 117.649 127.577C118.07 127.389 118.516 127.295 118.985 127.295C119.355 127.295 119.658 127.325 119.892 127.385C120.127 127.445 120.301 127.5 120.416 127.551L119.982 128.855C119.905 128.83 119.798 128.798 119.662 128.759C119.53 128.721 119.355 128.702 119.138 128.702C118.639 128.702 118.279 128.827 118.058 129.079C117.84 129.33 117.732 129.699 117.732 130.185V141H116.223ZM125.629 141.205C124.743 141.205 123.965 140.994 123.296 140.572C122.631 140.15 122.111 139.56 121.736 138.801C121.366 138.043 121.18 137.156 121.18 136.142C121.18 135.119 121.366 134.227 121.736 133.464C122.111 132.701 122.631 132.109 123.296 131.687C123.965 131.265 124.743 131.054 125.629 131.054C126.515 131.054 127.291 131.265 127.956 131.687C128.625 132.109 129.145 132.701 129.515 133.464C129.89 134.227 130.078 135.119 130.078 136.142C130.078 137.156 129.89 138.043 129.515 138.801C129.145 139.56 128.625 140.15 127.956 140.572C127.291 140.994 126.515 141.205 125.629 141.205ZM125.629 139.849C126.302 139.849 126.856 139.677 127.291 139.332C127.726 138.987 128.047 138.533 128.256 137.97C128.465 137.408 128.569 136.798 128.569 136.142C128.569 135.486 128.465 134.874 128.256 134.308C128.047 133.741 127.726 133.283 127.291 132.933C126.856 132.584 126.302 132.409 125.629 132.409C124.956 132.409 124.402 132.584 123.967 132.933C123.532 133.283 123.211 133.741 123.002 134.308C122.793 134.874 122.689 135.486 122.689 136.142C122.689 136.798 122.793 137.408 123.002 137.97C123.211 138.533 123.532 138.987 123.967 139.332C124.402 139.677 124.956 139.849 125.629 139.849ZM132.381 141V131.182H133.838V132.665H133.94C134.119 132.179 134.443 131.785 134.912 131.482C135.381 131.18 135.909 131.028 136.497 131.028C136.608 131.028 136.746 131.031 136.913 131.035C137.079 131.039 137.205 131.045 137.29 131.054V132.588C137.239 132.575 137.121 132.556 136.938 132.531C136.759 132.501 136.57 132.486 136.369 132.486C135.892 132.486 135.466 132.586 135.091 132.786C134.72 132.982 134.426 133.255 134.209 133.604C133.996 133.95 133.889 134.344 133.889 134.787V141H132.381ZM139.078 141V131.182H140.535V132.716H140.663C140.868 132.192 141.198 131.785 141.654 131.495C142.11 131.201 142.657 131.054 143.297 131.054C143.944 131.054 144.483 131.201 144.914 131.495C145.349 131.785 145.687 132.192 145.93 132.716H146.032C146.284 132.209 146.661 131.806 147.164 131.508C147.667 131.205 148.27 131.054 148.973 131.054C149.851 131.054 150.569 131.329 151.127 131.879C151.685 132.424 151.964 133.274 151.964 134.429V141H150.456V134.429C150.456 133.705 150.258 133.187 149.861 132.876C149.465 132.565 148.998 132.409 148.461 132.409C147.771 132.409 147.236 132.618 146.857 133.036C146.478 133.449 146.288 133.973 146.288 134.608V141H144.754V134.276C144.754 133.717 144.573 133.268 144.211 132.927C143.849 132.582 143.382 132.409 142.811 132.409C142.419 132.409 142.052 132.513 141.711 132.722C141.375 132.931 141.102 133.221 140.893 133.592C140.689 133.958 140.586 134.382 140.586 134.864V141H139.078ZM156.052 127.909V129.06C156.052 129.409 155.988 129.782 155.86 130.178C155.737 130.57 155.553 130.952 155.311 131.322C155.072 131.689 154.782 132.009 154.441 132.281L153.623 131.616C153.892 131.233 154.124 130.835 154.32 130.421C154.52 130.004 154.62 129.558 154.62 129.085V127.909H156.052ZM163.611 133.381L162.256 133.764C162.17 133.538 162.045 133.319 161.878 133.106C161.716 132.888 161.495 132.71 161.214 132.569C160.932 132.428 160.572 132.358 160.133 132.358C159.532 132.358 159.032 132.496 158.631 132.773C158.235 133.046 158.037 133.393 158.037 133.815C158.037 134.19 158.173 134.487 158.446 134.704C158.719 134.921 159.145 135.102 159.724 135.247L161.182 135.605C162.059 135.818 162.714 136.144 163.144 136.583C163.574 137.018 163.79 137.578 163.79 138.264C163.79 138.827 163.628 139.33 163.304 139.773C162.984 140.216 162.537 140.565 161.961 140.821C161.386 141.077 160.717 141.205 159.954 141.205C158.953 141.205 158.124 140.987 157.468 140.553C156.812 140.118 156.396 139.483 156.221 138.648L157.653 138.29C157.79 138.818 158.047 139.214 158.427 139.479C158.81 139.743 159.311 139.875 159.929 139.875C160.632 139.875 161.19 139.726 161.604 139.428C162.021 139.125 162.23 138.763 162.23 138.341C162.23 138 162.111 137.714 161.872 137.484C161.633 137.25 161.267 137.075 160.773 136.96L159.136 136.577C158.237 136.364 157.577 136.033 157.155 135.586C156.737 135.134 156.528 134.57 156.528 133.892C156.528 133.338 156.684 132.848 156.995 132.422C157.31 131.996 157.738 131.661 158.28 131.418C158.825 131.175 159.443 131.054 160.133 131.054C161.105 131.054 161.868 131.267 162.422 131.693C162.98 132.119 163.376 132.682 163.611 133.381ZM60.8385 165L57.847 155.182H59.4323L61.5544 162.699H61.6567L63.7533 155.182H65.3641L67.4351 162.673H67.5374L69.6595 155.182H71.2448L68.2533 165H66.7703L64.6226 157.457H64.4692L62.3215 165H60.8385ZM77.0216 165.205C76.0756 165.205 75.2595 164.996 74.5734 164.578C73.8916 164.156 73.3653 163.568 72.9946 162.814C72.6281 162.055 72.4449 161.173 72.4449 160.168C72.4449 159.162 72.6281 158.276 72.9946 157.509C73.3653 156.737 73.8809 156.136 74.5415 155.706C75.2062 155.271 75.9818 155.054 76.8682 155.054C77.3795 155.054 77.8845 155.139 78.3831 155.31C78.8817 155.48 79.3355 155.757 79.7446 156.141C80.1537 156.52 80.4797 157.023 80.7226 157.649C80.9655 158.276 81.0869 159.047 81.0869 159.963V160.602H73.5187V159.298H79.5528C79.5528 158.744 79.442 158.25 79.2204 157.815C79.0031 157.381 78.692 157.038 78.2872 156.786C77.8866 156.535 77.4136 156.409 76.8682 156.409C76.2673 156.409 75.7474 156.558 75.3085 156.857C74.8738 157.151 74.5393 157.534 74.305 158.007C74.0706 158.48 73.9534 158.987 73.9534 159.528V160.398C73.9534 161.139 74.0812 161.768 74.3369 162.283C74.5969 162.795 74.9569 163.185 75.4172 163.453C75.8774 163.717 76.4122 163.849 77.0216 163.849C77.4179 163.849 77.7758 163.794 78.0954 163.683C78.4193 163.568 78.6984 163.398 78.9328 163.172C79.1672 162.942 79.3483 162.656 79.4761 162.315L80.9335 162.724C80.7801 163.219 80.5223 163.653 80.1601 164.028C79.7979 164.399 79.3504 164.689 78.8177 164.898C78.2851 165.102 77.6863 165.205 77.0216 165.205ZM83.5862 165V151.909H85.0947V156.741H85.2226C85.3334 156.571 85.4868 156.354 85.6828 156.089C85.8831 155.821 86.1686 155.582 86.5393 155.374C86.9143 155.161 87.4214 155.054 88.0606 155.054C88.8873 155.054 89.616 155.261 90.2467 155.674C90.8774 156.087 91.3696 156.673 91.7233 157.432C92.077 158.19 92.2538 159.085 92.2538 160.116C92.2538 161.156 92.077 162.058 91.7233 162.82C91.3696 163.579 90.8795 164.167 90.2531 164.585C89.6267 164.998 88.9044 165.205 88.0862 165.205C87.4555 165.205 86.9506 165.1 86.5713 164.891C86.192 164.678 85.9001 164.437 85.6956 164.169C85.491 163.896 85.3334 163.67 85.2226 163.491H85.0436V165H83.5862ZM85.0692 160.091C85.0692 160.832 85.1778 161.487 85.3952 162.053C85.6125 162.616 85.93 163.057 86.3476 163.376C86.7652 163.692 87.2765 163.849 87.8817 163.849C88.5123 163.849 89.0386 163.683 89.4605 163.351C89.8866 163.014 90.2062 162.562 90.4193 161.996C90.6366 161.425 90.7453 160.79 90.7453 160.091C90.7453 159.401 90.6388 158.778 90.4257 158.224C90.2169 157.666 89.8994 157.225 89.4733 156.901C89.0514 156.573 88.5209 156.409 87.8817 156.409C87.268 156.409 86.7524 156.565 86.3348 156.876C85.9172 157.183 85.6018 157.613 85.3888 158.167C85.1757 158.717 85.0692 159.358 85.0692 160.091ZM101.516 157.381L100.161 157.764C100.076 157.538 99.9498 157.319 99.7836 157.106C99.6217 156.888 99.4001 156.71 99.1189 156.569C98.8376 156.428 98.4775 156.358 98.0386 156.358C97.4378 156.358 96.9371 156.496 96.5365 156.773C96.1402 157.046 95.942 157.393 95.942 157.815C95.942 158.19 96.0784 158.487 96.3511 158.704C96.6238 158.921 97.05 159.102 97.6295 159.247L99.0869 159.605C99.9648 159.818 100.619 160.144 101.049 160.583C101.48 161.018 101.695 161.578 101.695 162.264C101.695 162.827 101.533 163.33 101.209 163.773C100.889 164.216 100.442 164.565 99.8667 164.821C99.2915 165.077 98.6224 165.205 97.8596 165.205C96.8582 165.205 96.0294 164.987 95.3731 164.553C94.7169 164.118 94.3014 163.483 94.1267 162.648L95.5585 162.29C95.6949 162.818 95.9527 163.214 96.3319 163.479C96.7155 163.743 97.2162 163.875 97.8341 163.875C98.5372 163.875 99.0954 163.726 99.5088 163.428C99.9264 163.125 100.135 162.763 100.135 162.341C100.135 162 100.016 161.714 99.7773 161.484C99.5386 161.25 99.1721 161.075 98.6778 160.96L97.0415 160.577C96.1423 160.364 95.4818 160.033 95.0599 159.586C94.6423 159.134 94.4335 158.57 94.4335 157.892C94.4335 157.338 94.589 156.848 94.9001 156.422C95.2155 155.996 95.6437 155.661 96.1849 155.418C96.7304 155.175 97.3483 155.054 98.0386 155.054C99.0102 155.054 99.773 155.267 100.327 155.693C100.885 156.119 101.282 156.682 101.516 157.381ZM103.966 165V155.182H105.474V165H103.966ZM104.733 153.545C104.439 153.545 104.185 153.445 103.972 153.245C103.763 153.045 103.659 152.804 103.659 152.523C103.659 152.241 103.763 152.001 103.972 151.8C104.185 151.6 104.439 151.5 104.733 151.5C105.027 151.5 105.278 151.6 105.487 151.8C105.7 152.001 105.807 152.241 105.807 152.523C105.807 152.804 105.7 153.045 105.487 153.245C105.278 153.445 105.027 153.545 104.733 153.545ZM112.507 155.182V156.46H107.419V155.182H112.507ZM108.902 152.83H110.41V162.188C110.41 162.614 110.472 162.933 110.596 163.146C110.724 163.355 110.886 163.496 111.082 163.568C111.282 163.636 111.493 163.67 111.714 163.67C111.881 163.67 112.017 163.662 112.123 163.645C112.23 163.624 112.315 163.607 112.379 163.594L112.686 164.949C112.584 164.987 112.441 165.026 112.258 165.064C112.074 165.107 111.842 165.128 111.561 165.128C111.135 165.128 110.717 165.036 110.308 164.853C109.903 164.67 109.567 164.391 109.298 164.016C109.034 163.641 108.902 163.168 108.902 162.597V152.83ZM118.787 165.205C117.841 165.205 117.025 164.996 116.339 164.578C115.657 164.156 115.131 163.568 114.76 162.814C114.394 162.055 114.21 161.173 114.21 160.168C114.21 159.162 114.394 158.276 114.76 157.509C115.131 156.737 115.647 156.136 116.307 155.706C116.972 155.271 117.747 155.054 118.634 155.054C119.145 155.054 119.65 155.139 120.149 155.31C120.647 155.48 121.101 155.757 121.51 156.141C121.919 156.52 122.245 157.023 122.488 157.649C122.731 158.276 122.853 159.047 122.853 159.963V160.602H115.284V159.298H121.318C121.318 158.744 121.208 158.25 120.986 157.815C120.769 157.381 120.458 157.038 120.053 156.786C119.652 156.535 119.179 156.409 118.634 156.409C118.033 156.409 117.513 156.558 117.074 156.857C116.639 157.151 116.305 157.534 116.071 158.007C115.836 158.48 115.719 158.987 115.719 159.528V160.398C115.719 161.139 115.847 161.768 116.103 162.283C116.362 162.795 116.723 163.185 117.183 163.453C117.643 163.717 118.178 163.849 118.787 163.849C119.184 163.849 119.541 163.794 119.861 163.683C120.185 163.568 120.464 163.398 120.698 163.172C120.933 162.942 121.114 162.656 121.242 162.315L122.699 162.724C122.546 163.219 122.288 163.653 121.926 164.028C121.563 164.399 121.116 164.689 120.583 164.898C120.051 165.102 119.452 165.205 118.787 165.205Z" fill="#0F1215"/>
<rect x="118" y="274" width="190" height="48" rx="8" fill="#EBF5FF"/>
<path d="M146.828 298.455C146.828 299.835 146.579 301.028 146.08 302.034C145.581 303.04 144.898 303.815 144.028 304.361C143.159 304.906 142.166 305.179 141.05 305.179C139.933 305.179 138.94 304.906 138.071 304.361C137.202 303.815 136.518 303.04 136.019 302.034C135.52 301.028 135.271 299.835 135.271 298.455C135.271 297.074 135.52 295.881 136.019 294.875C136.518 293.869 137.202 293.094 138.071 292.548C138.94 292.003 139.933 291.73 141.05 291.73C142.166 291.73 143.159 292.003 144.028 292.548C144.898 293.094 145.581 293.869 146.08 294.875C146.579 295.881 146.828 297.074 146.828 298.455ZM145.294 298.455C145.294 297.321 145.104 296.364 144.725 295.585C144.35 294.805 143.841 294.214 143.197 293.814C142.558 293.413 141.842 293.213 141.05 293.213C140.257 293.213 139.539 293.413 138.895 293.814C138.256 294.214 137.747 294.805 137.368 295.585C136.993 296.364 136.805 297.321 136.805 298.455C136.805 299.588 136.993 300.545 137.368 301.325C137.747 302.104 138.256 302.695 138.895 303.095C139.539 303.496 140.257 303.696 141.05 303.696C141.842 303.696 142.558 303.496 143.197 303.095C143.841 302.695 144.35 302.104 144.725 301.325C145.104 300.545 145.294 299.588 145.294 298.455ZM150.797 299.094V305H149.289V295.182H150.746V296.716H150.874C151.104 296.217 151.454 295.817 151.922 295.514C152.391 295.207 152.996 295.054 153.738 295.054C154.403 295.054 154.984 295.19 155.483 295.463C155.981 295.732 156.369 296.141 156.646 296.69C156.923 297.236 157.062 297.926 157.062 298.761V305H155.553V298.864C155.553 298.092 155.353 297.491 154.952 297.061C154.552 296.626 154.002 296.409 153.303 296.409C152.822 296.409 152.391 296.513 152.012 296.722C151.637 296.931 151.341 297.236 151.123 297.636C150.906 298.037 150.797 298.523 150.797 299.094ZM161.327 291.909V305H159.818V291.909H161.327ZM164.09 305V295.182H165.598V305H164.09ZM164.857 293.545C164.563 293.545 164.309 293.445 164.096 293.245C163.887 293.045 163.783 292.804 163.783 292.523C163.783 292.241 163.887 292.001 164.096 291.8C164.309 291.6 164.563 291.5 164.857 291.5C165.151 291.5 165.402 291.6 165.611 291.8C165.824 292.001 165.931 292.241 165.931 292.523C165.931 292.804 165.824 293.045 165.611 293.245C165.402 293.445 165.151 293.545 164.857 293.545ZM169.87 299.094V305H168.361V295.182H169.819V296.716H169.946C170.176 296.217 170.526 295.817 170.995 295.514C171.463 295.207 172.069 295.054 172.81 295.054C173.475 295.054 174.056 295.19 174.555 295.463C175.054 295.732 175.441 296.141 175.718 296.69C175.995 297.236 176.134 297.926 176.134 298.761V305H174.625V298.864C174.625 298.092 174.425 297.491 174.025 297.061C173.624 296.626 173.074 296.409 172.375 296.409C171.894 296.409 171.463 296.513 171.084 296.722C170.709 296.931 170.413 297.236 170.196 297.636C169.978 298.037 169.87 298.523 169.87 299.094ZM183.007 305.205C182.061 305.205 181.245 304.996 180.559 304.578C179.877 304.156 179.351 303.568 178.98 302.814C178.613 302.055 178.43 301.173 178.43 300.168C178.43 299.162 178.613 298.276 178.98 297.509C179.351 296.737 179.866 296.136 180.527 295.706C181.192 295.271 181.967 295.054 182.854 295.054C183.365 295.054 183.87 295.139 184.368 295.31C184.867 295.48 185.321 295.757 185.73 296.141C186.139 296.52 186.465 297.023 186.708 297.649C186.951 298.276 187.072 299.047 187.072 299.963V300.602H179.504V299.298H185.538C185.538 298.744 185.427 298.25 185.206 297.815C184.988 297.381 184.677 297.038 184.273 296.786C183.872 296.535 183.399 296.409 182.854 296.409C182.253 296.409 181.733 296.558 181.294 296.857C180.859 297.151 180.525 297.534 180.29 298.007C180.056 298.48 179.939 298.987 179.939 299.528V300.398C179.939 301.139 180.067 301.768 180.322 302.283C180.582 302.795 180.942 303.185 181.403 303.453C181.863 303.717 182.398 303.849 183.007 303.849C183.403 303.849 183.761 303.794 184.081 303.683C184.405 303.568 184.684 303.398 184.918 303.172C185.153 302.942 185.334 302.656 185.461 302.315L186.919 302.724C186.765 303.219 186.508 303.653 186.145 304.028C185.783 304.399 185.336 304.689 184.803 304.898C184.27 305.102 183.672 305.205 183.007 305.205ZM196.219 291.909V305H194.634V291.909H196.219ZM203.438 305H199.398V291.909H203.616C204.886 291.909 205.973 292.171 206.876 292.695C207.78 293.215 208.472 293.963 208.954 294.939C209.435 295.911 209.676 297.074 209.676 298.429C209.676 299.793 209.433 300.967 208.947 301.951C208.462 302.931 207.754 303.685 206.825 304.214C205.896 304.738 204.767 305 203.438 305ZM200.983 303.594H203.335C204.418 303.594 205.315 303.385 206.026 302.967C206.738 302.55 207.268 301.955 207.618 301.184C207.967 300.413 208.142 299.494 208.142 298.429C208.142 297.372 207.969 296.462 207.624 295.7C207.279 294.933 206.763 294.344 206.077 293.935C205.391 293.522 204.537 293.315 203.514 293.315H200.983V303.594ZM212.335 305V291.909H220.236V293.315H213.92V297.739H219.827V299.145H213.92V303.594H220.338V305H212.335Z" fill="#0F1215"/>
<path d="M228.488 298.455C228.488 296.844 228.697 295.363 229.114 294.012C229.536 292.657 230.137 291.411 230.917 290.273H232.246C231.94 290.695 231.652 291.214 231.384 291.832C231.119 292.446 230.887 293.121 230.687 293.859C230.487 294.592 230.329 295.35 230.214 296.134C230.103 296.918 230.048 297.692 230.048 298.455C230.048 299.469 230.146 300.498 230.342 301.542C230.538 302.586 230.802 303.555 231.134 304.45C231.467 305.345 231.837 306.074 232.246 306.636H230.917C230.137 305.499 229.536 304.254 229.114 302.903C228.697 301.548 228.488 300.065 228.488 298.455ZM245.211 296H243.626C243.532 295.544 243.368 295.143 243.134 294.798C242.904 294.453 242.622 294.163 242.29 293.929C241.962 293.69 241.597 293.511 241.197 293.392C240.796 293.273 240.379 293.213 239.944 293.213C239.151 293.213 238.433 293.413 237.79 293.814C237.151 294.214 236.642 294.805 236.262 295.585C235.887 296.364 235.7 297.321 235.7 298.455C235.7 299.588 235.887 300.545 236.262 301.325C236.642 302.104 237.151 302.695 237.79 303.095C238.433 303.496 239.151 303.696 239.944 303.696C240.379 303.696 240.796 303.636 241.197 303.517C241.597 303.398 241.962 303.221 242.29 302.987C242.622 302.748 242.904 302.456 243.134 302.111C243.368 301.761 243.532 301.361 243.626 300.909H245.211C245.092 301.578 244.874 302.177 244.559 302.705C244.244 303.234 243.852 303.683 243.383 304.054C242.914 304.42 242.388 304.7 241.804 304.891C241.225 305.083 240.605 305.179 239.944 305.179C238.828 305.179 237.835 304.906 236.965 304.361C236.096 303.815 235.412 303.04 234.914 302.034C234.415 301.028 234.166 299.835 234.166 298.455C234.166 297.074 234.415 295.881 234.914 294.875C235.412 293.869 236.096 293.094 236.965 292.548C237.835 292.003 238.828 291.73 239.944 291.73C240.605 291.73 241.225 291.826 241.804 292.018C242.388 292.21 242.914 292.491 243.383 292.862C243.852 293.228 244.244 293.675 244.559 294.204C244.874 294.728 245.092 295.327 245.211 296ZM251.557 305.205C250.67 305.205 249.893 304.994 249.224 304.572C248.559 304.15 248.039 303.56 247.664 302.801C247.293 302.043 247.108 301.156 247.108 300.142C247.108 299.119 247.293 298.227 247.664 297.464C248.039 296.701 248.559 296.109 249.224 295.687C249.893 295.265 250.67 295.054 251.557 295.054C252.443 295.054 253.219 295.265 253.884 295.687C254.553 296.109 255.072 296.701 255.443 297.464C255.818 298.227 256.006 299.119 256.006 300.142C256.006 301.156 255.818 302.043 255.443 302.801C255.072 303.56 254.553 304.15 253.884 304.572C253.219 304.994 252.443 305.205 251.557 305.205ZM251.557 303.849C252.23 303.849 252.784 303.677 253.219 303.332C253.653 302.987 253.975 302.533 254.184 301.97C254.393 301.408 254.497 300.798 254.497 300.142C254.497 299.486 254.393 298.874 254.184 298.308C253.975 297.741 253.653 297.283 253.219 296.933C252.784 296.584 252.23 296.409 251.557 296.409C250.884 296.409 250.33 296.584 249.895 296.933C249.46 297.283 249.138 297.741 248.93 298.308C248.721 298.874 248.616 299.486 248.616 300.142C248.616 300.798 248.721 301.408 248.93 301.97C249.138 302.533 249.46 302.987 249.895 303.332C250.33 303.677 250.884 303.849 251.557 303.849ZM262.016 305.205C261.198 305.205 260.475 304.998 259.849 304.585C259.222 304.167 258.732 303.579 258.379 302.82C258.025 302.058 257.848 301.156 257.848 300.116C257.848 299.085 258.025 298.19 258.379 297.432C258.732 296.673 259.225 296.087 259.855 295.674C260.486 295.261 261.215 295.054 262.041 295.054C262.681 295.054 263.186 295.161 263.556 295.374C263.931 295.582 264.217 295.821 264.413 296.089C264.613 296.354 264.769 296.571 264.879 296.741H265.007V291.909H266.516V305H265.058V303.491H264.879C264.769 303.67 264.611 303.896 264.406 304.169C264.202 304.437 263.91 304.678 263.531 304.891C263.151 305.1 262.646 305.205 262.016 305.205ZM262.22 303.849C262.825 303.849 263.337 303.692 263.754 303.376C264.172 303.057 264.49 302.616 264.707 302.053C264.924 301.487 265.033 300.832 265.033 300.091C265.033 299.358 264.926 298.717 264.713 298.167C264.5 297.613 264.185 297.183 263.767 296.876C263.35 296.565 262.834 296.409 262.22 296.409C261.581 296.409 261.048 296.573 260.622 296.901C260.2 297.225 259.883 297.666 259.67 298.224C259.461 298.778 259.357 299.401 259.357 300.091C259.357 300.79 259.463 301.425 259.676 301.996C259.894 302.562 260.213 303.014 260.635 303.351C261.061 303.683 261.59 303.849 262.22 303.849ZM273.605 305.205C272.659 305.205 271.843 304.996 271.156 304.578C270.475 304.156 269.948 303.568 269.578 302.814C269.211 302.055 269.028 301.173 269.028 300.168C269.028 299.162 269.211 298.276 269.578 297.509C269.948 296.737 270.464 296.136 271.124 295.706C271.789 295.271 272.565 295.054 273.451 295.054C273.963 295.054 274.468 295.139 274.966 295.31C275.465 295.48 275.919 295.757 276.328 296.141C276.737 296.52 277.063 297.023 277.306 297.649C277.548 298.276 277.67 299.047 277.67 299.963V300.602H270.102V299.298H276.136C276.136 298.744 276.025 298.25 275.803 297.815C275.586 297.381 275.275 297.038 274.87 296.786C274.47 296.535 273.997 296.409 273.451 296.409C272.85 296.409 272.33 296.558 271.892 296.857C271.457 297.151 271.122 297.534 270.888 298.007C270.654 298.48 270.536 298.987 270.536 299.528V300.398C270.536 301.139 270.664 301.768 270.92 302.283C271.18 302.795 271.54 303.185 272 303.453C272.46 303.717 272.995 303.849 273.605 303.849C274.001 303.849 274.359 303.794 274.678 303.683C275.002 303.568 275.281 303.398 275.516 303.172C275.75 302.942 275.931 302.656 276.059 302.315L277.517 302.724C277.363 303.219 277.105 303.653 276.743 304.028C276.381 304.399 275.933 304.689 275.401 304.898C274.868 305.102 274.269 305.205 273.605 305.205ZM279.965 305V295.182H281.422V296.665H281.524C281.703 296.179 282.027 295.785 282.496 295.482C282.965 295.18 283.493 295.028 284.081 295.028C284.192 295.028 284.33 295.031 284.497 295.035C284.663 295.039 284.789 295.045 284.874 295.054V296.588C284.823 296.575 284.705 296.556 284.522 296.531C284.343 296.501 284.154 296.486 283.953 296.486C283.476 296.486 283.05 296.586 282.675 296.786C282.304 296.982 282.01 297.255 281.793 297.604C281.58 297.95 281.473 298.344 281.473 298.787V305H279.965ZM289.884 299.477C289.884 301.088 289.673 302.571 289.251 303.926C288.833 305.277 288.234 306.521 287.455 307.659H286.125C286.432 307.237 286.717 306.717 286.982 306.099C287.25 305.486 287.484 304.812 287.685 304.08C287.885 303.342 288.04 302.582 288.151 301.798C288.266 301.009 288.324 300.236 288.324 299.477C288.324 298.463 288.226 297.434 288.03 296.39C287.834 295.346 287.57 294.376 287.237 293.482C286.905 292.587 286.534 291.858 286.125 291.295H287.455C288.234 292.433 288.833 293.68 289.251 295.035C289.673 296.386 289.884 297.866 289.884 299.477Z" fill="#0F82EC"/>
<path d="M433.293 197.293C432.902 197.683 432.902 198.317 433.293 198.707L439.657 205.071C440.047 205.462 440.681 205.462 441.071 205.071C441.462 204.681 441.462 204.047 441.071 203.657L435.414 198L441.071 192.343C441.462 191.953 441.462 191.319 441.071 190.929C440.681 190.538 440.047 190.538 439.657 190.929L433.293 197.293ZM482.707 198.707C483.098 198.317 483.098 197.683 482.707 197.293L476.343 190.929C475.953 190.538 475.319 190.538 474.929 190.929C474.538 191.319 474.538 191.953 474.929 192.343L480.586 198L474.929 203.657C474.538 204.047 474.538 204.681 474.929 205.071C475.319 205.462 475.953 205.462 476.343 205.071L482.707 198.707ZM434 199H482V197H434V199Z" fill="#0F82EC"/>
<path d="M188.293 122.293C187.902 122.683 187.902 123.317 188.293 123.707L194.657 130.071C195.047 130.462 195.681 130.462 196.071 130.071C196.462 129.681 196.462 129.047 196.071 128.657L190.414 123L196.071 117.343C196.462 116.953 196.462 116.319 196.071 115.929C195.681 115.538 195.047 115.538 194.657 115.929L188.293 122.293ZM237.707 123.707C238.098 123.317 238.098 122.683 237.707 122.293L231.343 115.929C230.953 115.538 230.319 115.538 229.929 115.929C229.538 116.319 229.538 116.953 229.929 117.343L235.586 123L229.929 128.657C229.538 129.047 229.538 129.681 229.929 130.071C230.319 130.462 230.953 130.462 231.343 130.071L237.707 123.707ZM189 124H237V122H189V124Z" fill="#0F82EC"/>
<path d="M188.293 168.293C187.902 168.683 187.902 169.317 188.293 169.707L194.657 176.071C195.047 176.462 195.681 176.462 196.071 176.071C196.462 175.681 196.462 175.047 196.071 174.657L190.414 169L196.071 163.343C196.462 162.953 196.462 162.319 196.071 161.929C195.681 161.538 195.047 161.538 194.657 161.929L188.293 168.293ZM237.707 169.707C238.098 169.317 238.098 168.683 237.707 168.293L231.343 161.929C230.953 161.538 230.319 161.538 229.929 161.929C229.538 162.319 229.538 162.953 229.929 163.343L235.586 169L229.929 174.657C229.538 175.047 229.538 175.681 229.929 176.071C230.319 176.462 230.953 176.462 231.343 176.071L237.707 169.707ZM189 170H237V168H189V170Z" fill="#0F82EC"/>
<path d="M275.793 266.707C276.183 267.098 276.817 267.098 277.207 266.707L283.571 260.343C283.962 259.953 283.962 259.319 283.571 258.929C283.181 258.538 282.547 258.538 282.157 258.929L276.5 264.586L270.843 258.929C270.453 258.538 269.819 258.538 269.429 258.929C269.038 259.319 269.038 259.953 269.429 260.343L275.793 266.707ZM277.207 241.293C276.817 240.902 276.183 240.902 275.793 241.293L269.429 247.657C269.038 248.047 269.038 248.681 269.429 249.071C269.819 249.462 270.453 249.462 270.843 249.071L276.5 243.414L282.157 249.071C282.547 249.462 283.181 249.462 283.571 249.071C283.962 248.681 283.962 248.047 283.571 247.657L277.207 241.293ZM277.5 266L277.5 242L275.5 242L275.5 266L277.5 266Z" fill="#0F82EC"/>
<path d="M246.585 48V34.9091H251.162C252.074 34.9091 252.826 35.0668 253.418 35.3821C254.011 35.6932 254.452 36.1129 254.741 36.6413C255.031 37.1655 255.176 37.7472 255.176 38.3864C255.176 38.9489 255.076 39.4134 254.876 39.7798C254.68 40.1463 254.42 40.4361 254.096 40.6491C253.776 40.8622 253.429 41.0199 253.054 41.1222V41.25C253.455 41.2756 253.857 41.4162 254.262 41.6719C254.667 41.9276 255.006 42.294 255.278 42.7713C255.551 43.2486 255.688 43.8324 255.688 44.5227C255.688 45.179 255.538 45.7692 255.24 46.2933C254.942 46.8175 254.471 47.233 253.827 47.5398C253.184 47.8466 252.347 48 251.315 48H246.585ZM248.17 46.5938H251.315C252.351 46.5938 253.086 46.3935 253.521 45.9929C253.96 45.5881 254.179 45.098 254.179 44.5227C254.179 44.0795 254.066 43.6705 253.84 43.2955C253.614 42.9162 253.293 42.6136 252.875 42.3878C252.457 42.1577 251.963 42.0426 251.392 42.0426H248.17V46.5938ZM248.17 40.6619H251.111C251.588 40.6619 252.018 40.5682 252.402 40.3807C252.79 40.1932 253.097 39.929 253.322 39.5881C253.553 39.2472 253.668 38.8466 253.668 38.3864C253.668 37.8111 253.467 37.3232 253.067 36.9226C252.666 36.5178 252.031 36.3153 251.162 36.3153H248.17V40.6619ZM260.977 48.2301C260.355 48.2301 259.79 48.1129 259.283 47.8786C258.776 47.6399 258.373 47.2969 258.075 46.8494C257.777 46.3977 257.627 45.8523 257.627 45.2131C257.627 44.6506 257.738 44.1946 257.96 43.8452C258.181 43.4915 258.478 43.2145 258.848 43.0142C259.219 42.8139 259.628 42.6648 260.076 42.5668C260.527 42.4645 260.981 42.3835 261.437 42.3239C262.034 42.2472 262.517 42.1896 262.888 42.1513C263.263 42.1087 263.536 42.0384 263.706 41.9403C263.881 41.8423 263.968 41.6719 263.968 41.429V41.3778C263.968 40.7472 263.796 40.2571 263.451 39.9077C263.11 39.5582 262.592 39.3835 261.897 39.3835C261.177 39.3835 260.613 39.5412 260.203 39.8565C259.794 40.1719 259.507 40.5085 259.341 40.8665L257.909 40.3551C258.164 39.7585 258.505 39.294 258.931 38.9616C259.362 38.625 259.831 38.3906 260.338 38.2585C260.849 38.1222 261.352 38.054 261.846 38.054C262.162 38.054 262.524 38.0923 262.933 38.169C263.346 38.2415 263.745 38.3928 264.128 38.6229C264.516 38.853 264.838 39.2003 265.093 39.6648C265.349 40.1293 265.477 40.7514 265.477 41.5312V48H263.968V46.6705H263.892C263.789 46.8835 263.619 47.1115 263.38 47.3544C263.142 47.5973 262.824 47.804 262.428 47.9744C262.032 48.1449 261.548 48.2301 260.977 48.2301ZM261.207 46.875C261.804 46.875 262.306 46.7578 262.716 46.5234C263.129 46.2891 263.44 45.9865 263.649 45.6158C263.862 45.245 263.968 44.8551 263.968 44.446V43.0653C263.904 43.142 263.764 43.2124 263.547 43.2763C263.333 43.3359 263.086 43.3892 262.805 43.4361C262.528 43.4787 262.257 43.517 261.993 43.5511C261.733 43.581 261.522 43.6065 261.36 43.6278C260.968 43.679 260.602 43.7621 260.261 43.8771C259.924 43.9879 259.652 44.1562 259.443 44.3821C259.238 44.6037 259.136 44.9062 259.136 45.2898C259.136 45.8139 259.33 46.2102 259.718 46.4787C260.11 46.7429 260.606 46.875 261.207 46.875ZM272.219 48.2045C271.298 48.2045 270.506 47.9872 269.841 47.5526C269.176 47.1179 268.665 46.5192 268.307 45.7564C267.949 44.9936 267.77 44.1222 267.77 43.142C267.77 42.1449 267.953 41.2649 268.32 40.5021C268.691 39.7351 269.206 39.1364 269.867 38.706C270.531 38.2713 271.307 38.054 272.193 38.054C272.884 38.054 273.506 38.1818 274.06 38.4375C274.614 38.6932 275.068 39.0511 275.421 39.5114C275.775 39.9716 275.994 40.5085 276.08 41.1222H274.571C274.456 40.6747 274.2 40.2784 273.804 39.9332C273.412 39.5838 272.884 39.4091 272.219 39.4091C271.631 39.4091 271.115 39.5625 270.672 39.8693C270.233 40.1719 269.89 40.6001 269.643 41.1541C269.4 41.7038 269.279 42.3494 269.279 43.0909C269.279 43.8494 269.398 44.5099 269.637 45.0724C269.879 45.6349 270.22 46.0717 270.659 46.3828C271.102 46.6939 271.622 46.8494 272.219 46.8494C272.611 46.8494 272.967 46.7812 273.286 46.6449C273.606 46.5085 273.877 46.3125 274.098 46.0568C274.32 45.8011 274.477 45.4943 274.571 45.1364H276.08C275.994 45.7159 275.784 46.2379 275.447 46.7024C275.115 47.1626 274.673 47.5291 274.124 47.8018C273.578 48.0703 272.943 48.2045 272.219 48.2045ZM279.691 44.4205L279.666 42.554H279.972L284.268 38.1818H286.134L281.558 42.8097H281.43L279.691 44.4205ZM278.285 48V34.9091H279.794V48H278.285ZM284.524 48L280.688 43.142L281.762 42.0938L286.441 48H284.524ZM291.788 48.2045C290.842 48.2045 290.026 47.9957 289.34 47.5781C288.658 47.1562 288.132 46.5682 287.761 45.8139C287.395 45.0554 287.211 44.1733 287.211 43.1676C287.211 42.1619 287.395 41.2756 287.761 40.5085C288.132 39.7372 288.648 39.1364 289.308 38.706C289.973 38.2713 290.748 38.054 291.635 38.054C292.146 38.054 292.651 38.1392 293.15 38.3097C293.648 38.4801 294.102 38.7571 294.511 39.1406C294.92 39.5199 295.246 40.0227 295.489 40.6491C295.732 41.2756 295.854 42.0469 295.854 42.9631V43.6023H288.285V42.2983H294.319C294.319 41.7443 294.209 41.25 293.987 40.8153C293.77 40.3807 293.459 40.0376 293.054 39.7862C292.653 39.5348 292.18 39.4091 291.635 39.4091C291.034 39.4091 290.514 39.5582 290.075 39.8565C289.64 40.1506 289.306 40.5341 289.072 41.0071C288.837 41.4801 288.72 41.9872 288.72 42.5284V43.3977C288.72 44.1392 288.848 44.7678 289.104 45.2834C289.363 45.7947 289.724 46.1847 290.184 46.4531C290.644 46.7173 291.179 46.8494 291.788 46.8494C292.184 46.8494 292.542 46.794 292.862 46.6832C293.186 46.5682 293.465 46.3977 293.699 46.1719C293.934 45.9418 294.115 45.6562 294.243 45.3153L295.7 45.7244C295.547 46.2188 295.289 46.6534 294.927 47.0284C294.564 47.3991 294.117 47.6889 293.584 47.8977C293.052 48.1023 292.453 48.2045 291.788 48.2045ZM299.657 42.0938V48H298.148V38.1818H299.606V39.7159H299.733C299.964 39.2173 300.313 38.8168 300.782 38.5142C301.251 38.2074 301.856 38.054 302.597 38.054C303.262 38.054 303.844 38.1903 304.342 38.4631C304.841 38.7315 305.229 39.1406 305.506 39.6903C305.782 40.2358 305.921 40.9261 305.921 41.7614V48H304.412V41.8636C304.412 41.0923 304.212 40.4915 303.812 40.0611C303.411 39.6264 302.861 39.4091 302.162 39.4091C301.681 39.4091 301.251 39.5135 300.871 39.7223C300.496 39.9311 300.2 40.2358 299.983 40.6364C299.765 41.0369 299.657 41.5227 299.657 42.0938ZM312.385 48.2045C311.567 48.2045 310.844 47.9979 310.218 47.5845C309.592 47.1669 309.102 46.5788 308.748 45.8203C308.394 45.0575 308.217 44.1562 308.217 43.1165C308.217 42.0852 308.394 41.1903 308.748 40.4318C309.102 39.6733 309.594 39.0874 310.224 38.674C310.855 38.2607 311.584 38.054 312.411 38.054C313.05 38.054 313.555 38.1605 313.925 38.3736C314.3 38.5824 314.586 38.821 314.782 39.0895C314.982 39.3537 315.138 39.571 315.249 39.7415H315.376V34.9091H316.885V48H315.428V46.4915H315.249C315.138 46.6705 314.98 46.8963 314.776 47.169C314.571 47.4375 314.279 47.6783 313.9 47.8913C313.521 48.1001 313.016 48.2045 312.385 48.2045ZM312.589 46.8494C313.195 46.8494 313.706 46.6918 314.124 46.3764C314.541 46.0568 314.859 45.6158 315.076 45.0533C315.293 44.4865 315.402 43.8324 315.402 43.0909C315.402 42.358 315.295 41.7166 315.082 41.1669C314.869 40.6129 314.554 40.1825 314.136 39.8757C313.719 39.5646 313.203 39.4091 312.589 39.4091C311.95 39.4091 311.418 39.5732 310.991 39.9013C310.57 40.2251 310.252 40.6662 310.039 41.2244C309.83 41.7784 309.726 42.4006 309.726 43.0909C309.726 43.7898 309.832 44.4247 310.045 44.9957C310.263 45.5625 310.582 46.0142 311.004 46.3509C311.43 46.6832 311.959 46.8494 312.589 46.8494Z" fill="#0F82EC"/>
<path d="M105.839 48V34.9091H113.689V36.3153H107.424V40.7386H113.1V42.1449H107.424V48H105.839ZM116.094 48V38.1818H117.551V39.6648H117.653C117.832 39.179 118.156 38.7848 118.625 38.4822C119.094 38.1797 119.622 38.0284 120.21 38.0284C120.321 38.0284 120.459 38.0305 120.626 38.0348C120.792 38.0391 120.917 38.0455 121.003 38.054V39.5881C120.952 39.5753 120.834 39.5561 120.651 39.5305C120.472 39.5007 120.282 39.4858 120.082 39.4858C119.605 39.4858 119.179 39.5859 118.804 39.7862C118.433 39.9822 118.139 40.255 117.922 40.6044C117.709 40.9496 117.602 41.3437 117.602 41.7869V48H116.094ZM126.481 48.2045C125.594 48.2045 124.817 47.9936 124.148 47.5717C123.483 47.1499 122.963 46.5597 122.588 45.8011C122.217 45.0426 122.032 44.1562 122.032 43.142C122.032 42.1193 122.217 41.2266 122.588 40.4638C122.963 39.701 123.483 39.1087 124.148 38.6868C124.817 38.2649 125.594 38.054 126.481 38.054C127.367 38.054 128.143 38.2649 128.807 38.6868C129.476 39.1087 129.996 39.701 130.367 40.4638C130.742 41.2266 130.93 42.1193 130.93 43.142C130.93 44.1562 130.742 45.0426 130.367 45.8011C129.996 46.5597 129.476 47.1499 128.807 47.5717C128.143 47.9936 127.367 48.2045 126.481 48.2045ZM126.481 46.8494C127.154 46.8494 127.708 46.6768 128.143 46.3317C128.577 45.9865 128.899 45.5327 129.108 44.9702C129.317 44.4077 129.421 43.7983 129.421 43.142C129.421 42.4858 129.317 41.8743 129.108 41.3075C128.899 40.7408 128.577 40.2827 128.143 39.9332C127.708 39.5838 127.154 39.4091 126.481 39.4091C125.807 39.4091 125.253 39.5838 124.819 39.9332C124.384 40.2827 124.062 40.7408 123.854 41.3075C123.645 41.8743 123.54 42.4858 123.54 43.142C123.54 43.7983 123.645 44.4077 123.854 44.9702C124.062 45.5327 124.384 45.9865 124.819 46.3317C125.253 46.6768 125.807 46.8494 126.481 46.8494ZM134.741 42.0938V48H133.232V38.1818H134.69V39.7159H134.817C135.048 39.2173 135.397 38.8168 135.866 38.5142C136.335 38.2074 136.94 38.054 137.681 38.054C138.346 38.054 138.928 38.1903 139.426 38.4631C139.925 38.7315 140.313 39.1406 140.589 39.6903C140.866 40.2358 141.005 40.9261 141.005 41.7614V48H139.496V41.8636C139.496 41.0923 139.296 40.4915 138.896 40.0611C138.495 39.6264 137.945 39.4091 137.246 39.4091C136.765 39.4091 136.335 39.5135 135.955 39.7223C135.58 39.9311 135.284 40.2358 135.067 40.6364C134.849 41.0369 134.741 41.5227 134.741 42.0938ZM148.031 38.1818V39.4602H142.943V38.1818H148.031ZM144.426 35.8295H145.935V45.1875C145.935 45.6136 145.997 45.9332 146.12 46.1463C146.248 46.3551 146.41 46.4957 146.606 46.5682C146.806 46.6364 147.017 46.6705 147.239 46.6705C147.405 46.6705 147.541 46.6619 147.648 46.6449C147.754 46.6236 147.84 46.6065 147.904 46.5938L148.21 47.9489C148.108 47.9872 147.965 48.0256 147.782 48.0639C147.599 48.1065 147.367 48.1278 147.085 48.1278C146.659 48.1278 146.242 48.0362 145.833 47.853C145.428 47.6697 145.091 47.3906 144.823 47.0156C144.558 46.6406 144.426 46.1676 144.426 45.5966V35.8295ZM154.312 48.2045C153.366 48.2045 152.55 47.9957 151.863 47.5781C151.182 47.1562 150.655 46.5682 150.285 45.8139C149.918 45.0554 149.735 44.1733 149.735 43.1676C149.735 42.1619 149.918 41.2756 150.285 40.5085C150.655 39.7372 151.171 39.1364 151.831 38.706C152.496 38.2713 153.272 38.054 154.158 38.054C154.67 38.054 155.175 38.1392 155.673 38.3097C156.172 38.4801 156.626 38.7571 157.035 39.1406C157.444 39.5199 157.77 40.0227 158.013 40.6491C158.256 41.2756 158.377 42.0469 158.377 42.9631V43.6023H150.809V42.2983H156.843C156.843 41.7443 156.732 41.25 156.51 40.8153C156.293 40.3807 155.982 40.0376 155.577 39.7862C155.177 39.5348 154.704 39.4091 154.158 39.4091C153.557 39.4091 153.037 39.5582 152.599 39.8565C152.164 40.1506 151.829 40.5341 151.595 41.0071C151.361 41.4801 151.243 41.9872 151.243 42.5284V43.3977C151.243 44.1392 151.371 44.7678 151.627 45.2834C151.887 45.7947 152.247 46.1847 152.707 46.4531C153.167 46.7173 153.702 46.8494 154.312 46.8494C154.708 46.8494 155.066 46.794 155.385 46.6832C155.709 46.5682 155.988 46.3977 156.223 46.1719C156.457 45.9418 156.638 45.6562 156.766 45.3153L158.224 45.7244C158.07 46.2188 157.812 46.6534 157.45 47.0284C157.088 47.3991 156.64 47.6889 156.108 47.8977C155.575 48.1023 154.976 48.2045 154.312 48.2045ZM162.18 42.0938V48H160.672V38.1818H162.129V39.7159H162.257C162.487 39.2173 162.836 38.8168 163.305 38.5142C163.774 38.2074 164.379 38.054 165.121 38.054C165.785 38.054 166.367 38.1903 166.866 38.4631C167.364 38.7315 167.752 39.1406 168.029 39.6903C168.306 40.2358 168.444 40.9261 168.444 41.7614V48H166.936V41.8636C166.936 41.0923 166.736 40.4915 166.335 40.0611C165.934 39.6264 165.385 39.4091 164.686 39.4091C164.204 39.4091 163.774 39.5135 163.395 39.7223C163.02 39.9311 162.724 40.2358 162.506 40.6364C162.289 41.0369 162.18 41.5227 162.18 42.0938ZM174.908 48.2045C174.09 48.2045 173.368 47.9979 172.741 47.5845C172.115 47.1669 171.625 46.5788 171.271 45.8203C170.918 45.0575 170.741 44.1562 170.741 43.1165C170.741 42.0852 170.918 41.1903 171.271 40.4318C171.625 39.6733 172.117 39.0874 172.748 38.674C173.379 38.2607 174.107 38.054 174.934 38.054C175.573 38.054 176.078 38.1605 176.449 38.3736C176.824 38.5824 177.109 38.821 177.305 39.0895C177.506 39.3537 177.661 39.571 177.772 39.7415H177.9V34.9091H179.408V48H177.951V46.4915H177.772C177.661 46.6705 177.504 46.8963 177.299 47.169C177.094 47.4375 176.803 47.6783 176.423 47.8913C176.044 48.1001 175.539 48.2045 174.908 48.2045ZM175.113 46.8494C175.718 46.8494 176.229 46.6918 176.647 46.3764C177.065 46.0568 177.382 45.6158 177.599 45.0533C177.817 44.4865 177.925 43.8324 177.925 43.0909C177.925 42.358 177.819 41.7166 177.606 41.1669C177.393 40.6129 177.077 40.1825 176.66 39.8757C176.242 39.5646 175.727 39.4091 175.113 39.4091C174.474 39.4091 173.941 39.5732 173.515 39.9013C173.093 40.2251 172.776 40.6662 172.562 41.2244C172.354 41.7784 172.249 42.4006 172.249 43.0909C172.249 43.7898 172.356 44.4247 172.569 44.9957C172.786 45.5625 173.106 46.0142 173.528 46.3509C173.954 46.6832 174.482 46.8494 175.113 46.8494Z" fill="#0F82EC"/>
</svg>
