<svg width="92" height="24" viewBox="0 0 92 24" fill="none" xmlns="http://www.w3.org/2000/svg">
<path d="M15.494 17V4.4H18.41V17H15.494ZM27.0883 7.172C27.8563 7.172 28.5403 7.328 29.1403 7.64C29.7523 7.94 30.2323 8.408 30.5803 9.044C30.9283 9.668 31.1023 10.472 31.1023 11.456V17H28.2943V11.888C28.2943 11.108 28.1203 10.532 27.7723 10.16C27.4363 9.788 26.9563 9.602 26.3323 9.602C25.8883 9.602 25.4863 9.698 25.1263 9.89C24.7783 10.07 24.5023 10.352 24.2983 10.736C24.1063 11.12 24.0103 11.612 24.0103 12.212V17H21.2023V7.316H23.8843V9.998L23.3803 9.188C23.7283 8.54 24.2263 8.042 24.8743 7.694C25.5223 7.346 26.2603 7.172 27.0883 7.172ZM39.5336 7.172C40.3016 7.172 40.9856 7.328 41.5856 7.64C42.1976 7.94 42.6776 8.408 43.0256 9.044C43.3736 9.668 43.5476 10.472 43.5476 11.456V17H40.7396V11.888C40.7396 11.108 40.5656 10.532 40.2176 10.16C39.8816 9.788 39.4016 9.602 38.7776 9.602C38.3336 9.602 37.9316 9.698 37.5716 9.89C37.2236 10.07 36.9476 10.352 36.7436 10.736C36.5516 11.12 36.4556 11.612 36.4556 12.212V17H33.6476V7.316H36.3296V9.998L35.8256 9.188C36.1736 8.54 36.6716 8.042 37.3196 7.694C37.9676 7.346 38.7056 7.172 39.5336 7.172Z" fill="#FDD57F"/>
<path d="M48.9009 17V6.776H44.8689V4.4H55.8489V6.776H51.8169V17H48.9009ZM57.2198 17V7.316H60.0278V17H57.2198ZM58.6238 5.966C58.1078 5.966 57.6878 5.816 57.3638 5.516C57.0398 5.216 56.8778 4.844 56.8778 4.4C56.8778 3.956 57.0398 3.584 57.3638 3.284C57.6878 2.984 58.1078 2.834 58.6238 2.834C59.1398 2.834 59.5598 2.978 59.8838 3.266C60.2078 3.542 60.3698 3.902 60.3698 4.346C60.3698 4.814 60.2078 5.204 59.8838 5.516C59.5718 5.816 59.1518 5.966 58.6238 5.966ZM75.0359 7.172C75.8039 7.172 76.4819 7.328 77.0699 7.64C77.6699 7.94 78.1379 8.408 78.4739 9.044C78.8219 9.668 78.9959 10.472 78.9959 11.456V17H76.1879V11.888C76.1879 11.108 76.0259 10.532 75.7019 10.16C75.3779 9.788 74.9219 9.602 74.3339 9.602C73.9259 9.602 73.5599 9.698 73.2359 9.89C72.9119 10.07 72.6599 10.346 72.4799 10.718C72.2999 11.09 72.2099 11.564 72.2099 12.14V17H69.4019V11.888C69.4019 11.108 69.2399 10.532 68.9159 10.16C68.6039 9.788 68.1539 9.602 67.5659 9.602C67.1579 9.602 66.7919 9.698 66.4679 9.89C66.1439 10.07 65.8919 10.346 65.7119 10.718C65.5319 11.09 65.4419 11.564 65.4419 12.14V17H62.6339V7.316H65.3159V9.962L64.8119 9.188C65.1479 8.528 65.6219 8.03 66.2339 7.694C66.8579 7.346 67.5659 7.172 68.3579 7.172C69.2459 7.172 70.0199 7.4 70.6799 7.856C71.3519 8.3 71.7959 8.984 72.0119 9.908L71.0219 9.638C71.3459 8.882 71.8619 8.282 72.5699 7.838C73.2899 7.394 74.1119 7.172 75.0359 7.172ZM86.3891 17.144C85.2851 17.144 84.3131 16.928 83.4731 16.496C82.6451 16.064 82.0031 15.476 81.5471 14.732C81.0911 13.976 80.8631 13.118 80.8631 12.158C80.8631 11.186 81.0851 10.328 81.5291 9.584C81.9851 8.828 82.6031 8.24 83.3831 7.82C84.1631 7.388 85.0451 7.172 86.0291 7.172C86.9771 7.172 87.8291 7.376 88.5851 7.784C89.3531 8.18 89.9591 8.756 90.4031 9.512C90.8471 10.256 91.0691 11.15 91.0691 12.194C91.0691 12.302 91.0631 12.428 91.0511 12.572C91.0391 12.704 91.0271 12.83 91.0151 12.95H83.1491V11.312H89.5391L88.4591 11.798C88.4591 11.294 88.3571 10.856 88.1531 10.484C87.9491 10.112 87.6671 9.824 87.3071 9.62C86.9471 9.404 86.5271 9.296 86.0471 9.296C85.5671 9.296 85.1411 9.404 84.7691 9.62C84.4091 9.824 84.1271 10.118 83.9231 10.502C83.7191 10.874 83.6171 11.318 83.6171 11.834V12.266C83.6171 12.794 83.7311 13.262 83.9591 13.67C84.1991 14.066 84.5291 14.372 84.9491 14.588C85.3811 14.792 85.8851 14.894 86.4611 14.894C86.9771 14.894 87.4271 14.816 87.8111 14.66C88.2071 14.504 88.5671 14.27 88.8911 13.958L90.3851 15.578C89.9411 16.082 89.3831 16.472 88.7111 16.748C88.0391 17.012 87.2651 17.144 86.3891 17.144Z" fill="black"/>
<path d="M1.878 23.072C1.542 23.072 1.22 23.028 0.912 22.94C0.604 22.848 0.356 22.73 0.168 22.586L0.498 21.854C0.678 21.982 0.89 22.088 1.134 22.172C1.382 22.252 1.632 22.292 1.884 22.292C2.076 22.292 2.23 22.274 2.346 22.238C2.466 22.198 2.554 22.144 2.61 22.076C2.666 22.008 2.694 21.93 2.694 21.842C2.694 21.73 2.65 21.642 2.562 21.578C2.474 21.51 2.358 21.456 2.214 21.416C2.07 21.372 1.91 21.332 1.734 21.296C1.562 21.256 1.388 21.208 1.212 21.152C1.04 21.096 0.882 21.024 0.738 20.936C0.594 20.848 0.476 20.732 0.384 20.588C0.296 20.444 0.252 20.26 0.252 20.036C0.252 19.796 0.316 19.578 0.444 19.382C0.576 19.182 0.772 19.024 1.032 18.908C1.296 18.788 1.626 18.728 2.022 18.728C2.286 18.728 2.546 18.76 2.802 18.824C3.058 18.884 3.284 18.976 3.48 19.1L3.18 19.838C2.984 19.726 2.788 19.644 2.592 19.592C2.396 19.536 2.204 19.508 2.016 19.508C1.828 19.508 1.674 19.53 1.554 19.574C1.434 19.618 1.348 19.676 1.296 19.748C1.244 19.816 1.218 19.896 1.218 19.988C1.218 20.096 1.262 20.184 1.35 20.252C1.438 20.316 1.554 20.368 1.698 20.408C1.842 20.448 2 20.488 2.172 20.528C2.348 20.568 2.522 20.614 2.694 20.666C2.87 20.718 3.03 20.788 3.174 20.876C3.318 20.964 3.434 21.08 3.522 21.224C3.614 21.368 3.66 21.55 3.66 21.77C3.66 22.006 3.594 22.222 3.462 22.418C3.33 22.614 3.132 22.772 2.868 22.892C2.608 23.012 2.278 23.072 1.878 23.072ZM7.53417 23.072C7.21017 23.072 6.90817 23.02 6.62817 22.916C6.35217 22.808 6.11217 22.656 5.90817 22.46C5.70417 22.264 5.54417 22.034 5.42817 21.77C5.31617 21.506 5.26017 21.216 5.26017 20.9C5.26017 20.584 5.31617 20.294 5.42817 20.03C5.54417 19.766 5.70417 19.536 5.90817 19.34C6.11617 19.144 6.35817 18.994 6.63417 18.89C6.91017 18.782 7.21217 18.728 7.54017 18.728C7.90417 18.728 8.23217 18.792 8.52417 18.92C8.82017 19.044 9.06817 19.228 9.26817 19.472L8.64417 20.048C8.50017 19.884 8.34017 19.762 8.16417 19.682C7.98817 19.598 7.79617 19.556 7.58817 19.556C7.39217 19.556 7.21217 19.588 7.04817 19.652C6.88417 19.716 6.74217 19.808 6.62217 19.928C6.50217 20.048 6.40817 20.19 6.34017 20.354C6.27617 20.518 6.24417 20.7 6.24417 20.9C6.24417 21.1 6.27617 21.282 6.34017 21.446C6.40817 21.61 6.50217 21.752 6.62217 21.872C6.74217 21.992 6.88417 22.084 7.04817 22.148C7.21217 22.212 7.39217 22.244 7.58817 22.244C7.79617 22.244 7.98817 22.204 8.16417 22.124C8.34017 22.04 8.50017 21.914 8.64417 21.746L9.26817 22.322C9.06817 22.566 8.82017 22.752 8.52417 22.88C8.23217 23.008 7.90217 23.072 7.53417 23.072ZM14.0046 18.8H14.9766V23H14.0046V18.8ZM12.0966 23H11.1246V18.8H12.0966V23ZM14.0766 21.278H12.0246V20.456H14.0766V21.278ZM18.0643 20.492H20.0863V21.248H18.0643V20.492ZM18.1363 22.22H20.4223V23H17.1703V18.8H20.3443V19.58H18.1363V22.22ZM22.3957 23V18.8H24.3037C24.7597 18.8 25.1617 18.888 25.5097 19.064C25.8577 19.236 26.1297 19.478 26.3257 19.79C26.5217 20.102 26.6197 20.472 26.6197 20.9C26.6197 21.324 26.5217 21.694 26.3257 22.01C26.1297 22.322 25.8577 22.566 25.5097 22.742C25.1617 22.914 24.7597 23 24.3037 23H22.3957ZM23.3677 22.202H24.2557C24.5357 22.202 24.7777 22.15 24.9817 22.046C25.1897 21.938 25.3497 21.786 25.4617 21.59C25.5777 21.394 25.6357 21.164 25.6357 20.9C25.6357 20.632 25.5777 20.402 25.4617 20.21C25.3497 20.014 25.1897 19.864 24.9817 19.76C24.7777 19.652 24.5357 19.598 24.2557 19.598H23.3677V22.202ZM30.4187 23.072C29.8227 23.072 29.3567 22.906 29.0207 22.574C28.6847 22.242 28.5167 21.768 28.5167 21.152V18.8H29.4887V21.116C29.4887 21.516 29.5707 21.804 29.7347 21.98C29.8987 22.156 30.1287 22.244 30.4247 22.244C30.7207 22.244 30.9507 22.156 31.1147 21.98C31.2787 21.804 31.3607 21.516 31.3607 21.116V18.8H32.3207V21.152C32.3207 21.768 32.1527 22.242 31.8167 22.574C31.4807 22.906 31.0147 23.072 30.4187 23.072ZM34.4812 23V18.8H35.4532V22.208H37.5592V23H34.4812ZM40.1963 20.492H42.2183V21.248H40.1963V20.492ZM40.2683 22.22H42.5543V23H39.3023V18.8H42.4763V19.58H40.2683V22.22Z" fill="#151515"/>
<path d="M48.4709 23V21.284L48.6929 21.872L46.8449 18.8H47.8769L49.2929 21.158H48.6989L50.1209 18.8H51.0749L49.2269 21.872L49.4429 21.284V23H48.4709ZM54.54 23.072C54.208 23.072 53.9 23.018 53.616 22.91C53.336 22.802 53.092 22.65 52.884 22.454C52.68 22.258 52.52 22.028 52.404 21.764C52.292 21.5 52.236 21.212 52.236 20.9C52.236 20.588 52.292 20.3 52.404 20.036C52.52 19.772 52.682 19.542 52.89 19.346C53.098 19.15 53.342 18.998 53.622 18.89C53.902 18.782 54.206 18.728 54.534 18.728C54.866 18.728 55.17 18.782 55.446 18.89C55.726 18.998 55.968 19.15 56.172 19.346C56.38 19.542 56.542 19.772 56.658 20.036C56.774 20.296 56.832 20.584 56.832 20.9C56.832 21.212 56.774 21.502 56.658 21.77C56.542 22.034 56.38 22.264 56.172 22.46C55.968 22.652 55.726 22.802 55.446 22.91C55.17 23.018 54.868 23.072 54.54 23.072ZM54.534 22.244C54.722 22.244 54.894 22.212 55.05 22.148C55.21 22.084 55.35 21.992 55.47 21.872C55.59 21.752 55.682 21.61 55.746 21.446C55.814 21.282 55.848 21.1 55.848 20.9C55.848 20.7 55.814 20.518 55.746 20.354C55.682 20.19 55.59 20.048 55.47 19.928C55.354 19.808 55.216 19.716 55.056 19.652C54.896 19.588 54.722 19.556 54.534 19.556C54.346 19.556 54.172 19.588 54.012 19.652C53.856 19.716 53.718 19.808 53.598 19.928C53.478 20.048 53.384 20.19 53.316 20.354C53.252 20.518 53.22 20.7 53.22 20.9C53.22 21.096 53.252 21.278 53.316 21.446C53.384 21.61 53.476 21.752 53.592 21.872C53.712 21.992 53.852 22.084 54.012 22.148C54.172 22.212 54.346 22.244 54.534 22.244ZM60.6285 23.072C60.0325 23.072 59.5665 22.906 59.2305 22.574C58.8945 22.242 58.7265 21.768 58.7265 21.152V18.8H59.6985V21.116C59.6985 21.516 59.7805 21.804 59.9445 21.98C60.1085 22.156 60.3385 22.244 60.6345 22.244C60.9305 22.244 61.1605 22.156 61.3245 21.98C61.4885 21.804 61.5705 21.516 61.5705 21.116V18.8H62.5305V21.152C62.5305 21.768 62.3625 22.242 62.0265 22.574C61.6905 22.906 61.2245 23.072 60.6285 23.072ZM64.691 23V18.8H66.509C66.885 18.8 67.209 18.862 67.481 18.986C67.753 19.106 67.963 19.28 68.111 19.508C68.259 19.736 68.333 20.008 68.333 20.324C68.333 20.636 68.259 20.906 68.111 21.134C67.963 21.358 67.753 21.53 67.481 21.65C67.209 21.77 66.885 21.83 66.509 21.83H65.231L65.663 21.404V23H64.691ZM67.361 23L66.311 21.476H67.349L68.411 23H67.361ZM65.663 21.512L65.231 21.056H66.455C66.755 21.056 66.979 20.992 67.127 20.864C67.275 20.732 67.349 20.552 67.349 20.324C67.349 20.092 67.275 19.912 67.127 19.784C66.979 19.656 66.755 19.592 66.455 19.592H65.231L65.663 19.13V21.512ZM74.0723 23V19.592H72.7283V18.8H76.3883V19.592H75.0443V23H74.0723ZM78.1113 23V18.8H79.0833V23H78.1113ZM81.28 23V18.8H82.084L83.872 21.764H83.446L85.204 18.8H86.002L86.014 23H85.102L85.096 20.198H85.264L83.86 22.556H83.422L81.988 20.198H82.192V23H81.28ZM89.1045 20.492H91.1265V21.248H89.1045V20.492ZM89.1765 22.22H91.4625V23H88.2105V18.8H91.3845V19.58H89.1765V22.22Z" fill="#FDD57F"/>
<rect y="5" width="12" height="12" rx="2" fill="#151515"/>
<path d="M6.00001 6.84615C3.71539 6.84615 1.84616 8.71538 1.84616 11C1.84616 13.2846 3.71539 15.1538 6.00001 15.1538C8.28462 15.1538 10.1539 13.2846 10.1539 11C10.1539 8.71538 8.28462 6.84615 6.00001 6.84615ZM6.00001 7.88461C7.72385 7.88461 9.11539 9.27615 9.11539 11C9.11539 12.7238 7.72385 14.1154 6.00001 14.1154C4.27616 14.1154 2.88462 12.7238 2.88462 11C2.88462 9.27615 4.27616 7.88461 6.00001 7.88461ZM5.48078 8.92308V11.2285L5.64693 11.3635L6.16616 11.8827L6.51924 12.2773L7.26693 11.5296L6.87232 11.1765L6.51924 10.8235V8.94385H5.48078V8.92308Z" fill="#FDD57F"/>
</svg>
