<svg width="1140" height="840" viewBox="0 0 1140 840" fill="none" xmlns="http://www.w3.org/2000/svg">
<rect x="420" width="300" height="200" rx="20" fill="#CF2F74"/>
<path d="M451.896 111V89.1818H466.342V92.9851H456.509V98.1839H465.384V101.987H456.509V111H451.896ZM469.096 111V94.6364H473.496V97.4915H473.667C473.965 96.4759 474.466 95.7088 475.169 95.1903C475.872 94.6648 476.681 94.402 477.598 94.402C477.825 94.402 478.07 94.4162 478.333 94.4446C478.596 94.473 478.826 94.5121 479.025 94.5618V98.5888C478.812 98.5249 478.517 98.468 478.141 98.4183C477.765 98.3686 477.42 98.3438 477.108 98.3438C476.44 98.3438 475.843 98.4893 475.318 98.7805C474.799 99.0646 474.387 99.4624 474.082 99.9737C473.784 100.485 473.635 101.075 473.635 101.742V111H469.096ZM488.003 111.32C486.349 111.32 484.917 110.968 483.71 110.265C482.51 109.555 481.583 108.567 480.93 107.303C480.276 106.032 479.949 104.558 479.949 102.882C479.949 101.192 480.276 99.7145 480.93 98.4503C481.583 97.179 482.51 96.1918 483.71 95.4886C484.917 94.7784 486.349 94.4233 488.003 94.4233C489.658 94.4233 491.086 94.7784 492.286 95.4886C493.493 96.1918 494.424 97.179 495.077 98.4503C495.731 99.7145 496.057 101.192 496.057 102.882C496.057 104.558 495.731 106.032 495.077 107.303C494.424 108.567 493.493 109.555 492.286 110.265C491.086 110.968 489.658 111.32 488.003 111.32ZM488.025 107.804C488.778 107.804 489.406 107.591 489.91 107.165C490.415 106.732 490.795 106.142 491.05 105.396C491.313 104.651 491.444 103.802 491.444 102.85C491.444 101.898 491.313 101.05 491.05 100.304C490.795 99.5582 490.415 98.9687 489.91 98.5355C489.406 98.1023 488.778 97.8857 488.025 97.8857C487.265 97.8857 486.626 98.1023 486.107 98.5355C485.596 98.9687 485.209 99.5582 484.946 100.304C484.69 101.05 484.562 101.898 484.562 102.85C484.562 103.802 484.69 104.651 484.946 105.396C485.209 106.142 485.596 106.732 486.107 107.165C486.626 107.591 487.265 107.804 488.025 107.804ZM503.547 101.54V111H499.008V94.6364H503.334V97.5234H503.525C503.888 96.5717 504.495 95.8189 505.347 95.2649C506.199 94.7038 507.233 94.4233 508.447 94.4233C509.584 94.4233 510.574 94.6719 511.42 95.169C512.265 95.6662 512.922 96.3764 513.39 97.2997C513.859 98.2159 514.094 99.3097 514.094 100.581V111H509.555V101.391C509.562 100.389 509.307 99.608 508.788 99.0469C508.27 98.4787 507.556 98.1946 506.647 98.1946C506.036 98.1946 505.496 98.326 505.028 98.5888C504.566 98.8516 504.204 99.2351 503.941 99.7393C503.685 100.237 503.554 100.837 503.547 101.54ZM526.374 94.6364V98.0455H516.52V94.6364H526.374ZM518.757 90.7159H523.295V105.972C523.295 106.391 523.359 106.717 523.487 106.952C523.615 107.179 523.793 107.339 524.02 107.431C524.254 107.523 524.524 107.57 524.83 107.57C525.043 107.57 525.256 107.552 525.469 107.516C525.682 107.474 525.845 107.442 525.959 107.42L526.673 110.798C526.445 110.869 526.126 110.95 525.714 111.043C525.302 111.142 524.801 111.202 524.212 111.224C523.118 111.266 522.159 111.121 521.335 110.787C520.518 110.453 519.883 109.935 519.428 109.232C518.974 108.528 518.75 107.641 518.757 106.568V90.7159ZM536.612 111.32C534.929 111.32 533.48 110.979 532.266 110.297C531.058 109.608 530.128 108.635 529.474 107.378C528.821 106.114 528.494 104.619 528.494 102.893C528.494 101.21 528.821 99.7322 529.474 98.4609C530.128 97.1896 531.048 96.1989 532.234 95.4886C533.427 94.7784 534.826 94.4233 536.431 94.4233C537.511 94.4233 538.516 94.5973 539.446 94.9453C540.384 95.2862 541.2 95.8011 541.896 96.4901C542.599 97.179 543.146 98.0455 543.537 99.0895C543.928 100.126 544.123 101.341 544.123 102.733V103.979H530.305V101.167H539.851C539.851 100.513 539.709 99.9347 539.425 99.4304C539.141 98.9261 538.746 98.532 538.242 98.2479C537.745 97.9567 537.166 97.8111 536.506 97.8111C535.817 97.8111 535.206 97.9709 534.673 98.2905C534.148 98.603 533.736 99.0256 533.438 99.5582C533.139 100.084 532.987 100.67 532.979 101.316V103.99C532.979 104.8 533.129 105.499 533.427 106.089C533.732 106.678 534.162 107.133 534.716 107.452C535.27 107.772 535.927 107.932 536.687 107.932C537.191 107.932 537.653 107.861 538.072 107.719C538.491 107.577 538.849 107.364 539.148 107.08C539.446 106.795 539.673 106.447 539.83 106.036L544.027 106.312C543.814 107.321 543.377 108.202 542.717 108.955C542.063 109.7 541.218 110.283 540.181 110.702C539.151 111.114 537.962 111.32 536.612 111.32ZM551.623 101.54V111H547.085V94.6364H551.41V97.5234H551.602C551.964 96.5717 552.571 95.8189 553.423 95.2649C554.276 94.7038 555.309 94.4233 556.523 94.4233C557.66 94.4233 558.651 94.6719 559.496 95.169C560.341 95.6662 560.998 96.3764 561.467 97.2997C561.935 98.2159 562.17 99.3097 562.17 100.581V111H557.631V101.391C557.638 100.389 557.383 99.608 556.864 99.0469C556.346 98.4787 555.632 98.1946 554.723 98.1946C554.112 98.1946 553.572 98.326 553.104 98.5888C552.642 98.8516 552.28 99.2351 552.017 99.7393C551.761 100.237 551.63 100.837 551.623 101.54ZM571.776 111.266C570.534 111.266 569.408 110.947 568.399 110.308C567.398 109.661 566.602 108.713 566.013 107.463C565.431 106.206 565.139 104.665 565.139 102.839C565.139 100.964 565.441 99.4055 566.045 98.1626C566.649 96.9126 567.451 95.9787 568.453 95.3608C569.461 94.7358 570.566 94.4233 571.766 94.4233C572.682 94.4233 573.445 94.5795 574.056 94.892C574.674 95.1974 575.171 95.581 575.548 96.0426C575.931 96.4972 576.222 96.9446 576.421 97.3849H576.56V89.1818H581.088V111H576.613V108.379H576.421C576.208 108.834 575.906 109.285 575.516 109.732C575.132 110.173 574.632 110.538 574.014 110.83C573.403 111.121 572.657 111.266 571.776 111.266ZM573.215 107.655C573.946 107.655 574.564 107.456 575.068 107.058C575.58 106.653 575.97 106.089 576.24 105.364C576.517 104.64 576.656 103.791 576.656 102.818C576.656 101.845 576.521 101 576.251 100.283C575.981 99.5653 575.59 99.0114 575.079 98.6207C574.568 98.2301 573.946 98.0348 573.215 98.0348C572.469 98.0348 571.84 98.2372 571.329 98.642C570.818 99.0469 570.431 99.608 570.168 100.325C569.905 101.043 569.774 101.874 569.774 102.818C569.774 103.77 569.905 104.612 570.168 105.343C570.438 106.067 570.825 106.636 571.329 107.048C571.84 107.452 572.469 107.655 573.215 107.655ZM592.764 100.091C592.764 97.4489 593.115 95.0163 593.818 92.7933C594.529 90.5703 595.612 88.5107 597.068 86.6143H601.404C600.85 87.3175 600.335 88.1768 599.859 89.1925C599.383 90.201 598.968 91.3089 598.612 92.5163C598.257 93.7237 597.98 94.9737 597.781 96.2663C597.583 97.5518 597.483 98.8267 597.483 100.091C597.483 101.774 597.654 103.475 597.994 105.194C598.343 106.906 598.811 108.496 599.401 109.967C599.997 111.437 600.665 112.641 601.404 113.578H597.068C595.612 111.682 594.529 109.622 593.818 107.399C593.115 105.176 592.764 102.74 592.764 100.091ZM617.599 89.1818H622.212V103.351C622.212 104.942 621.832 106.334 621.072 107.527C620.32 108.72 619.265 109.651 617.908 110.318C616.552 110.979 614.972 111.309 613.168 111.309C611.357 111.309 609.773 110.979 608.416 110.318C607.06 109.651 606.005 108.72 605.252 107.527C604.499 106.334 604.123 104.942 604.123 103.351V89.1818H608.736V102.957C608.736 103.788 608.917 104.526 609.279 105.173C609.648 105.819 610.167 106.327 610.835 106.696C611.502 107.065 612.28 107.25 613.168 107.25C614.063 107.25 614.84 107.065 615.501 106.696C616.168 106.327 616.683 105.819 617.045 105.173C617.415 104.526 617.599 103.788 617.599 102.957V89.1818ZM639.537 99.3026L635.383 99.5582C635.312 99.2031 635.159 98.8835 634.925 98.5994C634.69 98.3082 634.381 98.0774 633.998 97.907C633.621 97.7294 633.17 97.6406 632.645 97.6406C631.942 97.6406 631.349 97.7898 630.866 98.0881C630.383 98.3793 630.141 98.7699 630.141 99.2599C630.141 99.6506 630.297 99.9808 630.61 100.251C630.922 100.521 631.459 100.737 632.219 100.901L635.18 101.497C636.771 101.824 637.957 102.349 638.738 103.074C639.52 103.798 639.91 104.75 639.91 105.929C639.91 107.001 639.594 107.942 638.962 108.752C638.337 109.562 637.478 110.194 636.384 110.648C635.297 111.096 634.044 111.32 632.623 111.32C630.457 111.32 628.731 110.869 627.446 109.967C626.167 109.058 625.418 107.822 625.198 106.259L629.662 106.025C629.797 106.685 630.123 107.19 630.642 107.538C631.16 107.879 631.824 108.049 632.634 108.049C633.43 108.049 634.069 107.896 634.552 107.591C635.042 107.278 635.29 106.877 635.297 106.387C635.29 105.975 635.116 105.638 634.775 105.375C634.434 105.105 633.909 104.899 633.199 104.757L630.365 104.192C628.767 103.873 627.577 103.319 626.796 102.531C626.022 101.742 625.635 100.737 625.635 99.5156C625.635 98.4645 625.919 97.5589 626.487 96.799C627.062 96.0391 627.868 95.4531 628.905 95.0412C629.949 94.6293 631.171 94.4233 632.57 94.4233C634.637 94.4233 636.263 94.8601 637.449 95.7337C638.643 96.6072 639.339 97.7969 639.537 99.3026ZM650.225 111.32C648.542 111.32 647.093 110.979 645.879 110.297C644.672 109.608 643.741 108.635 643.088 107.378C642.434 106.114 642.108 104.619 642.108 102.893C642.108 101.21 642.434 99.7322 643.088 98.4609C643.741 97.1896 644.661 96.1989 645.847 95.4886C647.04 94.7784 648.439 94.4233 650.044 94.4233C651.124 94.4233 652.129 94.5973 653.059 94.9453C653.997 95.2862 654.814 95.8011 655.51 96.4901C656.213 97.179 656.76 98.0455 657.15 99.0895C657.541 100.126 657.736 101.341 657.736 102.733V103.979H643.919V101.167H653.464C653.464 100.513 653.322 99.9347 653.038 99.4304C652.754 98.9261 652.36 98.532 651.855 98.2479C651.358 97.9567 650.779 97.8111 650.119 97.8111C649.43 97.8111 648.819 97.9709 648.287 98.2905C647.761 98.603 647.349 99.0256 647.051 99.5582C646.752 100.084 646.6 100.67 646.593 101.316V103.99C646.593 104.8 646.742 105.499 647.04 106.089C647.346 106.678 647.775 107.133 648.329 107.452C648.883 107.772 649.54 107.932 650.3 107.932C650.804 107.932 651.266 107.861 651.685 107.719C652.104 107.577 652.463 107.364 652.761 107.08C653.059 106.795 653.287 106.447 653.443 106.036L657.64 106.312C657.427 107.321 656.99 108.202 656.33 108.955C655.676 109.7 654.831 110.283 653.794 110.702C652.765 111.114 651.575 111.32 650.225 111.32ZM660.698 111V94.6364H665.098V97.4915H665.268C665.566 96.4759 666.067 95.7088 666.77 95.1903C667.473 94.6648 668.283 94.402 669.199 94.402C669.426 94.402 669.672 94.4162 669.934 94.4446C670.197 94.473 670.428 94.5121 670.627 94.5618V98.5888C670.414 98.5249 670.119 98.468 669.743 98.4183C669.366 98.3686 669.022 98.3438 668.709 98.3438C668.042 98.3438 667.445 98.4893 666.919 98.7805C666.401 99.0646 665.989 99.4624 665.684 99.9737C665.385 100.485 665.236 101.075 665.236 101.742V111H660.698ZM680.622 102.254C680.622 104.903 680.267 107.339 679.557 109.562C678.854 111.785 677.774 113.844 676.318 115.741H671.982C672.536 115.038 673.051 114.178 673.527 113.163C674.003 112.147 674.419 111.039 674.774 109.839C675.129 108.631 675.406 107.381 675.605 106.089C675.803 104.796 675.903 103.518 675.903 102.254C675.903 100.57 675.729 98.8729 675.381 97.1612C675.04 95.4425 674.571 93.8516 673.975 92.3885C673.385 90.9183 672.721 89.7145 671.982 88.777H676.318C677.774 90.6733 678.854 92.733 679.557 94.956C680.267 97.179 680.622 99.6115 680.622 102.254Z" fill="#D8BFD8"/>
<rect x="840" width="300" height="200" rx="20" fill="#CF2F74"/>
<path d="M922.065 92.9851V89.1818H939.984V92.9851H933.305V111H928.745V92.9851H922.065ZM947.934 111.32C946.251 111.32 944.802 110.979 943.588 110.297C942.381 109.608 941.45 108.635 940.797 107.378C940.143 106.114 939.817 104.619 939.817 102.893C939.817 101.21 940.143 99.7322 940.797 98.4609C941.45 97.1896 942.37 96.1989 943.556 95.4886C944.749 94.7784 946.148 94.4233 947.753 94.4233C948.833 94.4233 949.838 94.5973 950.768 94.9453C951.706 95.2862 952.523 95.8011 953.219 96.4901C953.922 97.179 954.469 98.0455 954.859 99.0895C955.25 100.126 955.445 101.341 955.445 102.733V103.979H941.628V101.167H951.173C951.173 100.513 951.031 99.9347 950.747 99.4304C950.463 98.9261 950.069 98.532 949.564 98.2479C949.067 97.9567 948.488 97.8111 947.828 97.8111C947.139 97.8111 946.528 97.9709 945.996 98.2905C945.47 98.603 945.058 99.0256 944.76 99.5582C944.461 100.084 944.309 100.67 944.302 101.316V103.99C944.302 104.8 944.451 105.499 944.749 106.089C945.055 106.678 945.484 107.133 946.038 107.452C946.592 107.772 947.249 107.932 948.009 107.932C948.513 107.932 948.975 107.861 949.394 107.719C949.813 107.577 950.172 107.364 950.47 107.08C950.768 106.795 950.996 106.447 951.152 106.036L955.349 106.312C955.136 107.321 954.699 108.202 954.039 108.955C953.385 109.7 952.54 110.283 951.503 110.702C950.474 111.114 949.284 111.32 947.934 111.32ZM962.945 89.1818V111H958.407V89.1818H962.945ZM974.038 111.32C972.355 111.32 970.906 110.979 969.691 110.297C968.484 109.608 967.554 108.635 966.9 107.378C966.247 106.114 965.92 104.619 965.92 102.893C965.92 101.21 966.247 99.7322 966.9 98.4609C967.554 97.1896 968.473 96.1989 969.659 95.4886C970.853 94.7784 972.252 94.4233 973.857 94.4233C974.936 94.4233 975.941 94.5973 976.872 94.9453C977.809 95.2862 978.626 95.8011 979.322 96.4901C980.025 97.179 980.572 98.0455 980.963 99.0895C981.353 100.126 981.549 101.341 981.549 102.733V103.979H967.731V101.167H977.277C977.277 100.513 977.135 99.9347 976.85 99.4304C976.566 98.9261 976.172 98.532 975.668 98.2479C975.171 97.9567 974.592 97.8111 973.931 97.8111C973.243 97.8111 972.632 97.9709 972.099 98.2905C971.574 98.603 971.162 99.0256 970.863 99.5582C970.565 100.084 970.412 100.67 970.405 101.316V103.99C970.405 104.8 970.554 105.499 970.853 106.089C971.158 106.678 971.588 107.133 972.142 107.452C972.696 107.772 973.353 107.932 974.113 107.932C974.617 107.932 975.078 107.861 975.498 107.719C975.917 107.577 976.275 107.364 976.574 107.08C976.872 106.795 977.099 106.447 977.255 106.036L981.453 106.312C981.24 107.321 980.803 108.202 980.142 108.955C979.489 109.7 978.644 110.283 977.607 110.702C976.577 111.114 975.387 111.32 974.038 111.32ZM991.882 117.477C990.412 117.477 989.152 117.275 988.1 116.87C987.056 116.472 986.225 115.929 985.608 115.24C984.99 114.551 984.588 113.777 984.404 112.918L988.601 112.353C988.729 112.68 988.931 112.985 989.208 113.269C989.485 113.553 989.851 113.781 990.306 113.951C990.767 114.129 991.328 114.217 991.989 114.217C992.976 114.217 993.789 113.976 994.429 113.493C995.075 113.017 995.398 112.218 995.398 111.096V108.102H995.206C995.007 108.557 994.709 108.987 994.311 109.391C993.914 109.796 993.402 110.126 992.777 110.382C992.152 110.638 991.407 110.766 990.54 110.766C989.311 110.766 988.193 110.482 987.184 109.913C986.183 109.338 985.384 108.461 984.787 107.282C984.198 106.096 983.903 104.597 983.903 102.786C983.903 100.933 984.205 99.3842 984.809 98.1413C985.412 96.8984 986.215 95.968 987.216 95.3501C988.225 94.7322 989.329 94.4233 990.529 94.4233C991.446 94.4233 992.213 94.5795 992.831 94.892C993.449 95.1974 993.946 95.581 994.322 96.0426C994.706 96.4972 995 96.9446 995.206 97.3849H995.377V94.6364H999.883V111.16C999.883 112.552 999.542 113.717 998.86 114.654C998.179 115.592 997.234 116.295 996.027 116.763C994.826 117.239 993.445 117.477 991.882 117.477ZM991.978 107.357C992.71 107.357 993.328 107.175 993.832 106.813C994.343 106.444 994.734 105.918 995.004 105.237C995.281 104.548 995.419 103.724 995.419 102.765C995.419 101.806 995.284 100.975 995.015 100.272C994.745 99.5618 994.354 99.0114 993.843 98.6207C993.331 98.2301 992.71 98.0348 991.978 98.0348C991.233 98.0348 990.604 98.2372 990.093 98.642C989.581 99.0398 989.194 99.5937 988.931 100.304C988.669 101.014 988.537 101.835 988.537 102.765C988.537 103.71 988.669 104.526 988.931 105.215C989.201 105.897 989.588 106.426 990.093 106.803C990.604 107.172 991.233 107.357 991.978 107.357ZM1003.49 111V94.6364H1007.89V97.4915H1008.06C1008.36 96.4759 1008.86 95.7088 1009.57 95.1903C1010.27 94.6648 1011.08 94.402 1012 94.402C1012.22 94.402 1012.47 94.4162 1012.73 94.4446C1012.99 94.473 1013.22 94.5121 1013.42 94.5618V98.5888C1013.21 98.5249 1012.92 98.468 1012.54 98.4183C1012.16 98.3686 1011.82 98.3438 1011.51 98.3438C1010.84 98.3438 1010.24 98.4893 1009.72 98.7805C1009.2 99.0646 1008.79 99.4624 1008.48 99.9737C1008.18 100.485 1008.03 101.075 1008.03 101.742V111H1003.49ZM1019.97 111.309C1018.92 111.309 1017.99 111.128 1017.18 110.766C1016.36 110.396 1015.71 109.853 1015.24 109.136C1014.77 108.411 1014.53 107.509 1014.53 106.43C1014.53 105.521 1014.7 104.757 1015.03 104.139C1015.37 103.521 1015.82 103.024 1016.4 102.648C1016.97 102.271 1017.63 101.987 1018.36 101.795C1019.1 101.604 1019.87 101.469 1020.68 101.391C1021.63 101.291 1022.4 101.199 1022.98 101.114C1023.56 101.021 1023.99 100.886 1024.25 100.709C1024.51 100.531 1024.64 100.268 1024.64 99.9205V99.8565C1024.64 99.1818 1024.43 98.6598 1024.01 98.2905C1023.59 97.9212 1022.99 97.7365 1022.22 97.7365C1021.4 97.7365 1020.75 97.9176 1020.27 98.2798C1019.78 98.6349 1019.46 99.0824 1019.31 99.6222L1015.11 99.2812C1015.32 98.2869 1015.74 97.4276 1016.37 96.7031C1016.99 95.9716 1017.8 95.4105 1018.78 95.0199C1019.78 94.6222 1020.93 94.4233 1022.24 94.4233C1023.15 94.4233 1024.02 94.5298 1024.85 94.7429C1025.68 94.956 1026.43 95.2862 1027.07 95.7337C1027.73 96.1811 1028.24 96.7564 1028.62 97.4595C1028.99 98.1555 1029.18 98.9901 1029.18 99.9631V111H1024.88V108.731H1024.75C1024.49 109.242 1024.14 109.693 1023.7 110.084C1023.26 110.467 1022.73 110.769 1022.11 110.989C1021.49 111.202 1020.78 111.309 1019.97 111.309ZM1021.27 108.177C1021.93 108.177 1022.52 108.045 1023.04 107.783C1023.55 107.513 1023.95 107.151 1024.24 106.696C1024.53 106.241 1024.68 105.727 1024.68 105.151V103.415C1024.53 103.507 1024.34 103.592 1024.09 103.67C1023.85 103.741 1023.58 103.809 1023.27 103.873C1022.96 103.93 1022.66 103.983 1022.35 104.033C1022.05 104.075 1021.77 104.114 1021.52 104.15C1020.99 104.228 1020.53 104.352 1020.13 104.523C1019.73 104.693 1019.42 104.924 1019.2 105.215C1018.98 105.499 1018.87 105.854 1018.87 106.281C1018.87 106.898 1019.09 107.371 1019.54 107.697C1020 108.017 1020.57 108.177 1021.27 108.177ZM1032.7 111V94.6364H1037.03V97.5234H1037.22C1037.56 96.5646 1038.13 95.8082 1038.93 95.2543C1039.72 94.7003 1040.67 94.4233 1041.78 94.4233C1042.9 94.4233 1043.86 94.7038 1044.65 95.2649C1045.43 95.8189 1045.96 96.5717 1046.22 97.5234H1046.39C1046.73 96.5859 1047.33 95.8366 1048.2 95.2756C1049.09 94.7074 1050.13 94.4233 1051.33 94.4233C1052.85 94.4233 1054.09 94.9098 1055.04 95.8828C1056 96.8487 1056.48 98.2195 1056.48 99.995V111H1051.95V100.89C1051.95 99.9808 1051.71 99.299 1051.23 98.8445C1050.75 98.3899 1050.14 98.1626 1049.42 98.1626C1048.59 98.1626 1047.95 98.4254 1047.49 98.951C1047.03 99.4695 1046.8 100.155 1046.8 101.007V111H1042.4V100.794C1042.4 99.9915 1042.17 99.3523 1041.71 98.8764C1041.25 98.4006 1040.65 98.1626 1039.91 98.1626C1039.4 98.1626 1038.95 98.2905 1038.54 98.5462C1038.14 98.7947 1037.83 99.1463 1037.59 99.6009C1037.36 100.048 1037.24 100.574 1037.24 101.178V111H1032.7Z" fill="#D8BFD8"/>
<rect x="840" y="320" width="300" height="200" rx="20" fill="#CF2F74"/>
<path d="M861.896 431V409.182H876.342V412.985H866.509V418.184H875.384V421.987H866.509V431H861.896ZM879.096 431V414.636H883.496V417.491H883.667C883.965 416.476 884.466 415.709 885.169 415.19C885.872 414.665 886.681 414.402 887.598 414.402C887.825 414.402 888.07 414.416 888.333 414.445C888.596 414.473 888.826 414.512 889.025 414.562V418.589C888.812 418.525 888.517 418.468 888.141 418.418C887.765 418.369 887.42 418.344 887.108 418.344C886.44 418.344 885.843 418.489 885.318 418.781C884.799 419.065 884.387 419.462 884.082 419.974C883.784 420.485 883.635 421.075 883.635 421.742V431H879.096ZM898.003 431.32C896.349 431.32 894.917 430.968 893.71 430.265C892.51 429.555 891.583 428.567 890.93 427.303C890.276 426.032 889.949 424.558 889.949 422.882C889.949 421.192 890.276 419.714 890.93 418.45C891.583 417.179 892.51 416.192 893.71 415.489C894.917 414.778 896.349 414.423 898.003 414.423C899.658 414.423 901.086 414.778 902.286 415.489C903.493 416.192 904.424 417.179 905.077 418.45C905.731 419.714 906.057 421.192 906.057 422.882C906.057 424.558 905.731 426.032 905.077 427.303C904.424 428.567 903.493 429.555 902.286 430.265C901.086 430.968 899.658 431.32 898.003 431.32ZM898.025 427.804C898.778 427.804 899.406 427.591 899.91 427.165C900.415 426.732 900.795 426.142 901.05 425.396C901.313 424.651 901.444 423.802 901.444 422.85C901.444 421.898 901.313 421.05 901.05 420.304C900.795 419.558 900.415 418.969 899.91 418.536C899.406 418.102 898.778 417.886 898.025 417.886C897.265 417.886 896.626 418.102 896.107 418.536C895.596 418.969 895.209 419.558 894.946 420.304C894.69 421.05 894.562 421.898 894.562 422.85C894.562 423.802 894.69 424.651 894.946 425.396C895.209 426.142 895.596 426.732 896.107 427.165C896.626 427.591 897.265 427.804 898.025 427.804ZM913.547 421.54V431H909.008V414.636H913.334V417.523H913.525C913.888 416.572 914.495 415.819 915.347 415.265C916.199 414.704 917.233 414.423 918.447 414.423C919.584 414.423 920.574 414.672 921.42 415.169C922.265 415.666 922.922 416.376 923.39 417.3C923.859 418.216 924.094 419.31 924.094 420.581V431H919.555V421.391C919.562 420.389 919.307 419.608 918.788 419.047C918.27 418.479 917.556 418.195 916.647 418.195C916.036 418.195 915.496 418.326 915.028 418.589C914.566 418.852 914.204 419.235 913.941 419.739C913.685 420.237 913.554 420.837 913.547 421.54ZM936.374 414.636V418.045H926.52V414.636H936.374ZM928.757 410.716H933.295V425.972C933.295 426.391 933.359 426.717 933.487 426.952C933.615 427.179 933.793 427.339 934.02 427.431C934.254 427.523 934.524 427.57 934.83 427.57C935.043 427.57 935.256 427.552 935.469 427.516C935.682 427.474 935.845 427.442 935.959 427.42L936.673 430.798C936.445 430.869 936.126 430.95 935.714 431.043C935.302 431.142 934.801 431.202 934.212 431.224C933.118 431.266 932.159 431.121 931.335 430.787C930.518 430.453 929.883 429.935 929.428 429.232C928.974 428.528 928.75 427.641 928.757 426.568V410.716ZM946.612 431.32C944.929 431.32 943.48 430.979 942.266 430.297C941.058 429.608 940.128 428.635 939.474 427.378C938.821 426.114 938.494 424.619 938.494 422.893C938.494 421.21 938.821 419.732 939.474 418.461C940.128 417.19 941.048 416.199 942.234 415.489C943.427 414.778 944.826 414.423 946.431 414.423C947.511 414.423 948.516 414.597 949.446 414.945C950.384 415.286 951.2 415.801 951.896 416.49C952.599 417.179 953.146 418.045 953.537 419.089C953.928 420.126 954.123 421.341 954.123 422.733V423.979H940.305V421.167H949.851C949.851 420.513 949.709 419.935 949.425 419.43C949.141 418.926 948.746 418.532 948.242 418.248C947.745 417.957 947.166 417.811 946.506 417.811C945.817 417.811 945.206 417.971 944.673 418.29C944.148 418.603 943.736 419.026 943.438 419.558C943.139 420.084 942.987 420.67 942.979 421.316V423.99C942.979 424.8 943.129 425.499 943.427 426.089C943.732 426.678 944.162 427.133 944.716 427.452C945.27 427.772 945.927 427.932 946.687 427.932C947.191 427.932 947.653 427.861 948.072 427.719C948.491 427.577 948.849 427.364 949.148 427.08C949.446 426.795 949.673 426.447 949.83 426.036L954.027 426.312C953.814 427.321 953.377 428.202 952.717 428.955C952.063 429.7 951.218 430.283 950.181 430.702C949.151 431.114 947.962 431.32 946.612 431.32ZM961.623 421.54V431H957.085V414.636H961.41V417.523H961.602C961.964 416.572 962.571 415.819 963.423 415.265C964.276 414.704 965.309 414.423 966.523 414.423C967.66 414.423 968.651 414.672 969.496 415.169C970.341 415.666 970.998 416.376 971.467 417.3C971.935 418.216 972.17 419.31 972.17 420.581V431H967.631V421.391C967.638 420.389 967.383 419.608 966.864 419.047C966.346 418.479 965.632 418.195 964.723 418.195C964.112 418.195 963.572 418.326 963.104 418.589C962.642 418.852 962.28 419.235 962.017 419.739C961.761 420.237 961.63 420.837 961.623 421.54ZM981.776 431.266C980.534 431.266 979.408 430.947 978.399 430.308C977.398 429.661 976.602 428.713 976.013 427.463C975.431 426.206 975.139 424.665 975.139 422.839C975.139 420.964 975.441 419.406 976.045 418.163C976.649 416.913 977.451 415.979 978.453 415.361C979.461 414.736 980.566 414.423 981.766 414.423C982.682 414.423 983.445 414.58 984.056 414.892C984.674 415.197 985.171 415.581 985.548 416.043C985.931 416.497 986.222 416.945 986.421 417.385H986.56V409.182H991.088V431H986.613V428.379H986.421C986.208 428.834 985.906 429.285 985.516 429.732C985.132 430.173 984.632 430.538 984.014 430.83C983.403 431.121 982.657 431.266 981.776 431.266ZM983.215 427.655C983.946 427.655 984.564 427.456 985.068 427.058C985.58 426.653 985.97 426.089 986.24 425.364C986.517 424.64 986.656 423.791 986.656 422.818C986.656 421.845 986.521 421 986.251 420.283C985.981 419.565 985.59 419.011 985.079 418.621C984.568 418.23 983.946 418.035 983.215 418.035C982.469 418.035 981.84 418.237 981.329 418.642C980.818 419.047 980.431 419.608 980.168 420.325C979.905 421.043 979.774 421.874 979.774 422.818C979.774 423.77 979.905 424.612 980.168 425.343C980.438 426.067 980.825 426.636 981.329 427.048C981.84 427.452 982.469 427.655 983.215 427.655ZM1002.76 420.091C1002.76 417.449 1003.12 415.016 1003.82 412.793C1004.53 410.57 1005.61 408.511 1007.07 406.614H1011.4C1010.85 407.317 1010.33 408.177 1009.86 409.192C1009.38 410.201 1008.97 411.309 1008.61 412.516C1008.26 413.724 1007.98 414.974 1007.78 416.266C1007.58 417.552 1007.48 418.827 1007.48 420.091C1007.48 421.774 1007.65 423.475 1007.99 425.194C1008.34 426.906 1008.81 428.496 1009.4 429.967C1010 431.437 1010.66 432.641 1011.4 433.578H1007.07C1005.61 431.682 1004.53 429.622 1003.82 427.399C1003.12 425.176 1002.76 422.74 1002.76 420.091ZM1017.88 431H1012.94L1020.47 409.182H1026.42L1033.94 431H1029L1023.53 414.168H1023.36L1017.88 431ZM1017.57 422.424H1029.25V426.025H1017.57V422.424ZM1041.75 431.266C1040.5 431.266 1039.38 430.947 1038.37 430.308C1037.37 429.661 1036.57 428.713 1035.98 427.463C1035.4 426.206 1035.11 424.665 1035.11 422.839C1035.11 420.964 1035.41 419.406 1036.02 418.163C1036.62 416.913 1037.42 415.979 1038.42 415.361C1039.43 414.736 1040.54 414.423 1041.74 414.423C1042.65 414.423 1043.42 414.58 1044.03 414.892C1044.64 415.197 1045.14 415.581 1045.52 416.043C1045.9 416.497 1046.19 416.945 1046.39 417.385H1046.53V409.182H1051.06V431H1046.58V428.379H1046.39C1046.18 428.834 1045.88 429.285 1045.49 429.732C1045.1 430.173 1044.6 430.538 1043.98 430.83C1043.37 431.121 1042.63 431.266 1041.75 431.266ZM1043.19 427.655C1043.92 427.655 1044.53 427.456 1045.04 427.058C1045.55 426.653 1045.94 426.089 1046.21 425.364C1046.49 424.64 1046.63 423.791 1046.63 422.818C1046.63 421.845 1046.49 421 1046.22 420.283C1045.95 419.565 1045.56 419.011 1045.05 418.621C1044.54 418.23 1043.92 418.035 1043.19 418.035C1042.44 418.035 1041.81 418.237 1041.3 418.642C1040.79 419.047 1040.4 419.608 1040.14 420.325C1039.88 421.043 1039.74 421.874 1039.74 422.818C1039.74 423.77 1039.88 424.612 1040.14 425.343C1040.41 426.067 1040.8 426.636 1041.3 427.048C1041.81 427.452 1042.44 427.655 1043.19 427.655ZM1054.79 431V414.636H1059.11V417.523H1059.31C1059.65 416.565 1060.22 415.808 1061.01 415.254C1061.81 414.7 1062.76 414.423 1063.87 414.423C1064.99 414.423 1065.94 414.704 1066.73 415.265C1067.52 415.819 1068.05 416.572 1068.31 417.523H1068.48C1068.81 416.586 1069.42 415.837 1070.29 415.276C1071.17 414.707 1072.21 414.423 1073.41 414.423C1074.94 414.423 1076.18 414.91 1077.13 415.883C1078.09 416.849 1078.57 418.219 1078.57 419.995V431H1074.04V420.89C1074.04 419.981 1073.8 419.299 1073.32 418.844C1072.83 418.39 1072.23 418.163 1071.5 418.163C1070.68 418.163 1070.04 418.425 1069.58 418.951C1069.11 419.469 1068.88 420.155 1068.88 421.007V431H1064.48V420.794C1064.48 419.991 1064.25 419.352 1063.79 418.876C1063.34 418.401 1062.74 418.163 1061.99 418.163C1061.49 418.163 1061.03 418.29 1060.63 418.546C1060.23 418.795 1059.91 419.146 1059.68 419.601C1059.45 420.048 1059.33 420.574 1059.33 421.178V431H1054.79ZM1082.15 431V414.636H1086.69V431H1082.15ZM1084.43 412.527C1083.76 412.527 1083.18 412.303 1082.7 411.856C1082.22 411.401 1081.98 410.858 1081.98 410.226C1081.98 409.601 1082.22 409.065 1082.7 408.617C1083.18 408.163 1083.76 407.935 1084.43 407.935C1085.11 407.935 1085.68 408.163 1086.16 408.617C1086.64 409.065 1086.88 409.601 1086.88 410.226C1086.88 410.858 1086.64 411.401 1086.16 411.856C1085.68 412.303 1085.11 412.527 1084.43 412.527ZM1094.87 421.54V431H1090.33V414.636H1094.65V417.523H1094.84C1095.21 416.572 1095.81 415.819 1096.67 415.265C1097.52 414.704 1098.55 414.423 1099.77 414.423C1100.9 414.423 1101.89 414.672 1102.74 415.169C1103.58 415.666 1104.24 416.376 1104.71 417.3C1105.18 418.216 1105.41 419.31 1105.41 420.581V431H1100.87V421.391C1100.88 420.389 1100.63 419.608 1100.11 419.047C1099.59 418.479 1098.87 418.195 1097.97 418.195C1097.35 418.195 1096.81 418.326 1096.35 418.589C1095.88 418.852 1095.52 419.235 1095.26 419.739C1095 420.237 1094.87 420.837 1094.87 421.54ZM1116.64 422.254C1116.64 424.903 1116.28 427.339 1115.57 429.562C1114.87 431.785 1113.79 433.844 1112.33 435.741H1108C1108.55 435.038 1109.07 434.178 1109.54 433.163C1110.02 432.147 1110.43 431.039 1110.79 429.839C1111.14 428.631 1111.42 427.381 1111.62 426.089C1111.82 424.796 1111.92 423.518 1111.92 422.254C1111.92 420.57 1111.74 418.873 1111.4 417.161C1111.06 415.442 1110.59 413.852 1109.99 412.388C1109.4 410.918 1108.74 409.714 1108 408.777H1112.33C1113.79 410.673 1114.87 412.733 1115.57 414.956C1116.28 417.179 1116.64 419.612 1116.64 422.254Z" fill="#D8BFD8"/>
<rect x="420" y="640" width="300" height="200" rx="20" fill="#CF2F74"/>
<path d="M499.896 729.182H505.585L511.594 743.841H511.849L517.858 729.182H523.547V751H519.072V736.799H518.891L513.245 750.893H510.198L504.552 736.746H504.371V751H499.896V729.182ZM534.656 751.32C533.001 751.32 531.57 750.968 530.362 750.265C529.162 749.555 528.235 748.567 527.582 747.303C526.928 746.032 526.602 744.558 526.602 742.882C526.602 741.192 526.928 739.714 527.582 738.45C528.235 737.179 529.162 736.192 530.362 735.489C531.57 734.778 533.001 734.423 534.656 734.423C536.311 734.423 537.738 734.778 538.938 735.489C540.146 736.192 541.076 737.179 541.73 738.45C542.383 739.714 542.71 741.192 542.71 742.882C542.71 744.558 542.383 746.032 541.73 747.303C541.076 748.567 540.146 749.555 538.938 750.265C537.738 750.968 536.311 751.32 534.656 751.32ZM534.677 747.804C535.43 747.804 536.058 747.591 536.563 747.165C537.067 746.732 537.447 746.142 537.703 745.396C537.965 744.651 538.097 743.802 538.097 742.85C538.097 741.898 537.965 741.05 537.703 740.304C537.447 739.558 537.067 738.969 536.563 738.536C536.058 738.102 535.43 737.886 534.677 737.886C533.917 737.886 533.278 738.102 532.759 738.536C532.248 738.969 531.861 739.558 531.598 740.304C531.343 741.05 531.215 741.898 531.215 742.85C531.215 743.802 531.343 744.651 531.598 745.396C531.861 746.142 532.248 746.732 532.759 747.165C533.278 747.591 533.917 747.804 534.677 747.804ZM550.199 741.54V751H545.661V734.636H549.986V737.523H550.178C550.54 736.572 551.147 735.819 551.999 735.265C552.852 734.704 553.885 734.423 555.1 734.423C556.236 734.423 557.227 734.672 558.072 735.169C558.917 735.666 559.574 736.376 560.043 737.3C560.512 738.216 560.746 739.31 560.746 740.581V751H556.208V741.391C556.215 740.389 555.959 739.608 555.441 739.047C554.922 738.479 554.208 738.195 553.299 738.195C552.688 738.195 552.149 738.326 551.68 738.589C551.218 738.852 550.856 739.235 550.593 739.739C550.338 740.237 550.206 740.837 550.199 741.54ZM571.695 757.477C570.225 757.477 568.964 757.275 567.913 756.87C566.869 756.472 566.038 755.929 565.42 755.24C564.802 754.551 564.401 753.777 564.216 752.918L568.414 752.353C568.542 752.68 568.744 752.985 569.021 753.269C569.298 753.553 569.664 753.781 570.118 753.951C570.58 754.129 571.141 754.217 571.801 754.217C572.789 754.217 573.602 753.976 574.241 753.493C574.887 753.017 575.211 752.218 575.211 751.096V748.102H575.019C574.82 748.557 574.522 748.987 574.124 749.391C573.726 749.796 573.215 750.126 572.59 750.382C571.965 750.638 571.219 750.766 570.353 750.766C569.124 750.766 568.005 750.482 566.997 749.913C565.995 749.338 565.196 748.461 564.6 747.282C564.01 746.096 563.716 744.597 563.716 742.786C563.716 740.933 564.017 739.384 564.621 738.141C565.225 736.898 566.027 735.968 567.029 735.35C568.037 734.732 569.142 734.423 570.342 734.423C571.258 734.423 572.025 734.58 572.643 734.892C573.261 735.197 573.758 735.581 574.135 736.043C574.518 736.497 574.813 736.945 575.019 737.385H575.189V734.636H579.696V751.16C579.696 752.552 579.355 753.717 578.673 754.654C577.991 755.592 577.047 756.295 575.839 756.763C574.639 757.239 573.257 757.477 571.695 757.477ZM571.791 747.357C572.522 747.357 573.14 747.175 573.645 746.813C574.156 746.444 574.547 745.918 574.816 745.237C575.093 744.548 575.232 743.724 575.232 742.765C575.232 741.806 575.097 740.975 574.827 740.272C574.557 739.562 574.167 739.011 573.655 738.621C573.144 738.23 572.522 738.035 571.791 738.035C571.045 738.035 570.417 738.237 569.905 738.642C569.394 739.04 569.007 739.594 568.744 740.304C568.481 741.014 568.35 741.835 568.35 742.765C568.35 743.71 568.481 744.526 568.744 745.215C569.014 745.897 569.401 746.426 569.905 746.803C570.417 747.172 571.045 747.357 571.791 747.357ZM590.701 751.32C589.046 751.32 587.615 750.968 586.407 750.265C585.207 749.555 584.28 748.567 583.627 747.303C582.973 746.032 582.647 744.558 582.647 742.882C582.647 741.192 582.973 739.714 583.627 738.45C584.28 737.179 585.207 736.192 586.407 735.489C587.615 734.778 589.046 734.423 590.701 734.423C592.355 734.423 593.783 734.778 594.983 735.489C596.191 736.192 597.121 737.179 597.775 738.45C598.428 739.714 598.755 741.192 598.755 742.882C598.755 744.558 598.428 746.032 597.775 747.303C597.121 748.567 596.191 749.555 594.983 750.265C593.783 750.968 592.355 751.32 590.701 751.32ZM590.722 747.804C591.475 747.804 592.103 747.591 592.608 747.165C593.112 746.732 593.492 746.142 593.748 745.396C594.01 744.651 594.142 743.802 594.142 742.85C594.142 741.898 594.01 741.05 593.748 740.304C593.492 739.558 593.112 738.969 592.608 738.536C592.103 738.102 591.475 737.886 590.722 737.886C589.962 737.886 589.323 738.102 588.804 738.536C588.293 738.969 587.906 739.558 587.643 740.304C587.387 741.05 587.26 741.898 587.26 742.85C587.26 743.802 587.387 744.651 587.643 745.396C587.906 746.142 588.293 746.732 588.804 747.165C589.323 747.591 589.962 747.804 590.722 747.804ZM609.525 751H601.791V729.182H609.589C611.784 729.182 613.673 729.619 615.257 730.492C616.841 731.359 618.059 732.605 618.911 734.232C619.77 735.858 620.2 737.804 620.2 740.07C620.2 742.342 619.77 744.295 618.911 745.929C618.059 747.562 616.833 748.816 615.235 749.69C613.645 750.563 611.741 751 609.525 751ZM606.404 747.048H609.333C610.697 747.048 611.844 746.806 612.775 746.323C613.712 745.833 614.415 745.077 614.884 744.054C615.36 743.024 615.598 741.696 615.598 740.07C615.598 738.457 615.36 737.14 614.884 736.117C614.415 735.094 613.716 734.342 612.785 733.859C611.855 733.376 610.708 733.134 609.344 733.134H606.404V747.048ZM623.617 751V729.182H632.353C633.958 729.182 635.297 729.42 636.369 729.896C637.442 730.371 638.248 731.032 638.787 731.877C639.327 732.715 639.597 733.681 639.597 734.775C639.597 735.627 639.427 736.376 639.086 737.023C638.745 737.662 638.276 738.187 637.68 738.599C637.09 739.004 636.415 739.292 635.655 739.462V739.675C636.486 739.711 637.264 739.945 637.988 740.379C638.72 740.812 639.313 741.419 639.768 742.2C640.222 742.974 640.449 743.898 640.449 744.97C640.449 746.128 640.162 747.161 639.586 748.07C639.018 748.972 638.177 749.686 637.062 750.212C635.947 750.737 634.572 751 632.939 751H623.617ZM628.23 747.229H631.991C633.276 747.229 634.214 746.984 634.803 746.494C635.393 745.996 635.687 745.336 635.687 744.512C635.687 743.908 635.542 743.376 635.251 742.914C634.959 742.452 634.544 742.09 634.004 741.827C633.471 741.565 632.836 741.433 632.097 741.433H628.23V747.229ZM628.23 738.312H631.65C632.282 738.312 632.843 738.202 633.333 737.982C633.83 737.754 634.221 737.435 634.505 737.023C634.796 736.611 634.942 736.117 634.942 735.542C634.942 734.754 634.661 734.118 634.1 733.635C633.546 733.152 632.758 732.911 631.735 732.911H628.23V738.312Z" fill="#D8BFD8"/>
<rect y="640" width="300" height="200" rx="20" fill="#CF2F74"/>
<path d="M64.147 736.82H59.4808C59.3956 736.217 59.2216 735.68 58.9588 735.212C58.696 734.736 58.3587 734.331 57.9467 733.997C57.5348 733.663 57.0589 733.408 56.5192 733.23C55.9865 733.053 55.4077 732.964 54.7827 732.964C53.6534 732.964 52.6697 733.244 51.8317 733.805C50.9936 734.359 50.3438 735.169 49.8821 736.234C49.4205 737.293 49.1896 738.578 49.1896 740.091C49.1896 741.646 49.4205 742.953 49.8821 744.011C50.3509 745.07 51.0043 745.869 51.8423 746.408C52.6804 746.948 53.6499 747.218 54.7507 747.218C55.3686 747.218 55.9403 747.136 56.4659 746.973C56.9986 746.81 57.4709 746.572 57.8828 746.259C58.2947 745.94 58.6357 745.553 58.9055 745.098C59.1825 744.643 59.3743 744.125 59.4808 743.543L64.147 743.564C64.0263 744.565 63.7244 745.531 63.2415 746.462C62.7656 747.385 62.1229 748.212 61.3132 748.944C60.5107 749.668 59.5518 750.244 58.4368 750.67C57.3288 751.089 56.0753 751.298 54.6761 751.298C52.7301 751.298 50.9901 750.858 49.456 749.977C47.929 749.097 46.7216 747.822 45.8338 746.153C44.9531 744.484 44.5128 742.463 44.5128 740.091C44.5128 737.712 44.9602 735.688 45.8551 734.018C46.75 732.349 47.9645 731.078 49.4986 730.205C51.0327 729.324 52.7585 728.884 54.6761 728.884C55.9403 728.884 57.1122 729.061 58.1918 729.416C59.2784 729.771 60.2408 730.29 61.0788 730.972C61.9169 731.646 62.5987 732.474 63.1243 733.454C63.657 734.434 63.9979 735.556 64.147 736.82ZM72.0359 751.309C70.9918 751.309 70.0614 751.128 69.2447 750.766C68.4279 750.396 67.7816 749.853 67.3058 749.136C66.837 748.411 66.6026 747.509 66.6026 746.43C66.6026 745.521 66.7695 744.757 67.1033 744.139C67.4371 743.521 67.8917 743.024 68.467 742.648C69.0423 742.271 69.6957 741.987 70.4272 741.795C71.1658 741.604 71.94 741.469 72.7496 741.391C73.7013 741.291 74.4684 741.199 75.0508 741.114C75.6332 741.021 76.0558 740.886 76.3185 740.709C76.5813 740.531 76.7127 740.268 76.7127 739.92V739.857C76.7127 739.182 76.4996 738.66 76.0735 738.29C75.6545 737.921 75.0579 737.737 74.2837 737.737C73.467 737.737 72.8171 737.918 72.3342 738.28C71.8512 738.635 71.5316 739.082 71.3754 739.622L67.1779 739.281C67.391 738.287 67.81 737.428 68.435 736.703C69.06 735.972 69.8661 735.411 70.8533 735.02C71.8477 734.622 72.9982 734.423 74.305 734.423C75.2141 734.423 76.0842 734.53 76.9151 734.743C77.7532 734.956 78.4954 735.286 79.1417 735.734C79.7951 736.181 80.31 736.756 80.6864 737.46C81.0629 738.156 81.2511 738.99 81.2511 739.963V751H76.9471V748.731H76.8192C76.5565 749.242 76.2049 749.693 75.7646 750.084C75.3242 750.467 74.7951 750.769 74.1772 750.989C73.5593 751.202 72.8455 751.309 72.0359 751.309ZM73.3356 748.177C74.0032 748.177 74.5927 748.045 75.104 747.783C75.6154 747.513 76.0167 747.151 76.3079 746.696C76.5991 746.241 76.7447 745.727 76.7447 745.151V743.415C76.6026 743.507 76.4073 743.592 76.1587 743.67C75.9173 743.741 75.6438 743.809 75.3384 743.873C75.033 743.93 74.7276 743.983 74.4222 744.033C74.1168 744.075 73.8398 744.114 73.5913 744.15C73.0586 744.228 72.5934 744.352 72.1957 744.523C71.7979 744.693 71.489 744.924 71.2688 745.215C71.0487 745.499 70.9386 745.854 70.9386 746.281C70.9386 746.898 71.1623 747.371 71.6097 747.697C72.0643 748.017 72.6396 748.177 73.3356 748.177ZM93.5717 734.636V738.045H83.4723V734.636H93.5717ZM85.7841 751V733.454C85.7841 732.268 86.0149 731.284 86.4766 730.503C86.9453 729.722 87.5845 729.136 88.3942 728.745C89.2038 728.354 90.1236 728.159 91.1534 728.159C91.8494 728.159 92.4851 728.212 93.0604 728.319C93.6428 728.425 94.076 728.521 94.3601 728.607L93.5504 732.016C93.3729 731.959 93.1527 731.906 92.8899 731.856C92.6342 731.806 92.3714 731.781 92.1016 731.781C91.4339 731.781 90.9688 731.938 90.706 732.25C90.4432 732.555 90.3118 732.985 90.3118 733.539V751H85.7841ZM103.216 751.32C101.532 751.32 100.084 750.979 98.8691 750.297C97.6618 749.608 96.7314 748.635 96.0779 747.378C95.4245 746.114 95.0978 744.619 95.0978 742.893C95.0978 741.21 95.4245 739.732 96.0779 738.461C96.7314 737.19 97.6511 736.199 98.8372 735.489C100.03 734.778 101.43 734.423 103.035 734.423C104.114 734.423 105.119 734.597 106.05 734.945C106.987 735.286 107.804 735.801 108.5 736.49C109.203 737.179 109.75 738.045 110.14 739.089C110.531 740.126 110.726 741.341 110.726 742.733V743.979H96.9089V741.167H106.454C106.454 740.513 106.312 739.935 106.028 739.43C105.744 738.926 105.35 738.532 104.846 738.248C104.349 737.957 103.77 737.811 103.109 737.811C102.42 737.811 101.809 737.971 101.277 738.29C100.751 738.603 100.339 739.026 100.041 739.558C99.7427 740.084 99.59 740.67 99.5829 741.316V743.99C99.5829 744.8 99.7321 745.499 100.03 746.089C100.336 746.678 100.765 747.133 101.319 747.452C101.873 747.772 102.53 747.932 103.29 747.932C103.795 747.932 104.256 747.861 104.675 747.719C105.094 747.577 105.453 747.364 105.751 747.08C106.05 746.795 106.277 746.447 106.433 746.036L110.631 746.312C110.417 747.321 109.981 748.202 109.32 748.955C108.667 749.7 107.822 750.283 106.785 750.702C105.755 751.114 104.565 751.32 103.216 751.32ZM124.477 751H119.534L127.066 729.182H133.011L140.532 751H135.589L130.124 734.168H129.953L124.477 751ZM124.168 742.424H135.844V746.025H124.168V742.424ZM147.611 741.54V751H143.073V734.636H147.398V737.523H147.59C147.952 736.572 148.559 735.819 149.412 735.265C150.264 734.704 151.297 734.423 152.512 734.423C153.648 734.423 154.639 734.672 155.484 735.169C156.329 735.666 156.986 736.376 157.455 737.3C157.924 738.216 158.158 739.31 158.158 740.581V751H153.62V741.391C153.627 740.389 153.371 739.608 152.853 739.047C152.334 738.479 151.62 738.195 150.711 738.195C150.1 738.195 149.561 738.326 149.092 738.589C148.63 738.852 148.268 739.235 148.005 739.739C147.75 740.237 147.618 740.837 147.611 741.54ZM166.401 751.309C165.357 751.309 164.427 751.128 163.61 750.766C162.793 750.396 162.147 749.853 161.671 749.136C161.202 748.411 160.968 747.509 160.968 746.43C160.968 745.521 161.135 744.757 161.469 744.139C161.802 743.521 162.257 743.024 162.832 742.648C163.407 742.271 164.061 741.987 164.792 741.795C165.531 741.604 166.305 741.469 167.115 741.391C168.067 741.291 168.834 741.199 169.416 741.114C169.998 741.021 170.421 740.886 170.684 740.709C170.947 740.531 171.078 740.268 171.078 739.92V739.857C171.078 739.182 170.865 738.66 170.439 738.29C170.02 737.921 169.423 737.737 168.649 737.737C167.832 737.737 167.182 737.918 166.699 738.28C166.216 738.635 165.897 739.082 165.741 739.622L161.543 739.281C161.756 738.287 162.175 737.428 162.8 736.703C163.425 735.972 164.231 735.411 165.219 735.02C166.213 734.622 167.363 734.423 168.67 734.423C169.579 734.423 170.449 734.53 171.28 734.743C172.118 734.956 172.861 735.286 173.507 735.734C174.16 736.181 174.675 736.756 175.052 737.46C175.428 738.156 175.616 738.99 175.616 739.963V751H171.312V748.731H171.184C170.922 749.242 170.57 749.693 170.13 750.084C169.689 750.467 169.16 750.769 168.542 750.989C167.925 751.202 167.211 751.309 166.401 751.309ZM167.701 748.177C168.368 748.177 168.958 748.045 169.469 747.783C169.981 747.513 170.382 747.151 170.673 746.696C170.964 746.241 171.11 745.727 171.11 745.151V743.415C170.968 743.507 170.773 743.592 170.524 743.67C170.282 743.741 170.009 743.809 169.704 743.873C169.398 743.93 169.093 743.983 168.787 744.033C168.482 744.075 168.205 744.114 167.956 744.15C167.424 744.228 166.959 744.352 166.561 744.523C166.163 744.693 165.854 744.924 165.634 745.215C165.414 745.499 165.304 745.854 165.304 746.281C165.304 746.898 165.528 747.371 165.975 747.697C166.43 748.017 167.005 748.177 167.701 748.177ZM183.676 729.182V751H179.137V729.182H183.676ZM190.113 757.136C189.538 757.136 188.998 757.09 188.494 756.998C187.996 756.913 187.585 756.803 187.258 756.668L188.281 753.28C188.813 753.443 189.293 753.532 189.719 753.546C190.152 753.56 190.525 753.461 190.837 753.248C191.157 753.035 191.416 752.673 191.615 752.161L191.881 751.469L186.011 734.636H190.784L194.172 746.653H194.342L197.762 734.636H202.567L196.207 752.768C195.901 753.649 195.486 754.416 194.96 755.07C194.442 755.73 193.785 756.238 192.989 756.593C192.194 756.955 191.235 757.136 190.113 757.136ZM213.593 734.636V738.045H203.739V734.636H213.593ZM205.976 730.716H210.514V745.972C210.514 746.391 210.578 746.717 210.706 746.952C210.834 747.179 211.011 747.339 211.239 747.431C211.473 747.523 211.743 747.57 212.048 747.57C212.261 747.57 212.474 747.552 212.688 747.516C212.901 747.474 213.064 747.442 213.178 747.42L213.891 750.798C213.664 750.869 213.344 750.95 212.933 751.043C212.521 751.142 212.02 751.202 211.43 751.224C210.337 751.266 209.378 751.121 208.554 750.787C207.737 750.453 207.102 749.935 206.647 749.232C206.192 748.528 205.969 747.641 205.976 746.568V730.716ZM216.549 751V734.636H221.088V751H216.549ZM218.829 732.527C218.154 732.527 217.576 732.303 217.093 731.856C216.617 731.401 216.379 730.858 216.379 730.226C216.379 729.601 216.617 729.065 217.093 728.617C217.576 728.163 218.154 727.935 218.829 727.935C219.504 727.935 220.079 728.163 220.555 728.617C221.038 729.065 221.279 729.601 221.279 730.226C221.279 730.858 221.038 731.401 220.555 731.856C220.079 732.303 219.504 732.527 218.829 732.527ZM232.117 751.32C230.441 751.32 228.999 750.964 227.791 750.254C226.591 749.537 225.668 748.543 225.021 747.271C224.382 746 224.063 744.537 224.063 742.882C224.063 741.206 224.386 739.736 225.032 738.472C225.686 737.2 226.612 736.21 227.813 735.499C229.013 734.782 230.441 734.423 232.095 734.423C233.523 734.423 234.773 734.683 235.845 735.201C236.918 735.719 237.767 736.447 238.392 737.385C239.017 738.322 239.361 739.423 239.425 740.688H235.142C235.021 739.871 234.702 739.214 234.183 738.717C233.672 738.212 233.001 737.96 232.17 737.96C231.467 737.96 230.852 738.152 230.327 738.536C229.808 738.912 229.404 739.462 229.112 740.187C228.821 740.911 228.676 741.788 228.676 742.818C228.676 743.862 228.818 744.75 229.102 745.482C229.393 746.213 229.801 746.771 230.327 747.154C230.852 747.538 231.467 747.729 232.17 747.729C232.688 747.729 233.154 747.623 233.566 747.41C233.985 747.197 234.329 746.888 234.599 746.483C234.876 746.071 235.057 745.577 235.142 745.002H239.425C239.354 746.252 239.013 747.353 238.402 748.305C237.798 749.249 236.964 749.988 235.899 750.521C234.833 751.053 233.573 751.32 232.117 751.32ZM255.946 739.303L251.791 739.558C251.72 739.203 251.567 738.884 251.333 738.599C251.098 738.308 250.789 738.077 250.406 737.907C250.029 737.729 249.578 737.641 249.053 737.641C248.35 737.641 247.757 737.79 247.274 738.088C246.791 738.379 246.549 738.77 246.549 739.26C246.549 739.651 246.706 739.981 247.018 740.251C247.331 740.521 247.867 740.737 248.627 740.901L251.588 741.497C253.179 741.824 254.365 742.349 255.147 743.074C255.928 743.798 256.319 744.75 256.319 745.929C256.319 747.001 256.002 747.942 255.37 748.752C254.745 749.562 253.886 750.194 252.792 750.648C251.706 751.096 250.452 751.32 249.032 751.32C246.865 751.32 245.14 750.869 243.854 749.967C242.576 749.058 241.826 747.822 241.606 746.259L246.07 746.025C246.205 746.685 246.532 747.19 247.05 747.538C247.569 747.879 248.233 748.049 249.042 748.049C249.838 748.049 250.477 747.896 250.96 747.591C251.45 747.278 251.699 746.877 251.706 746.387C251.699 745.975 251.525 745.638 251.184 745.375C250.843 745.105 250.317 744.899 249.607 744.757L246.773 744.192C245.175 743.873 243.985 743.319 243.204 742.531C242.43 741.742 242.043 740.737 242.043 739.516C242.043 738.464 242.327 737.559 242.895 736.799C243.471 736.039 244.277 735.453 245.314 735.041C246.358 734.629 247.579 734.423 248.978 734.423C251.045 734.423 252.672 734.86 253.858 735.734C255.051 736.607 255.747 737.797 255.946 739.303Z" fill="#D8BFD8"/>
<rect x="840" y="640" width="300" height="200" rx="20" fill="#CF2F74"/>
<path d="M895.732 735.457C895.647 734.597 895.281 733.93 894.635 733.454C893.989 732.978 893.112 732.74 892.004 732.74C891.251 732.74 890.615 732.847 890.097 733.06C889.578 733.266 889.18 733.553 888.903 733.923C888.634 734.292 888.499 734.711 888.499 735.18C888.484 735.57 888.566 735.911 888.744 736.202C888.928 736.494 889.18 736.746 889.5 736.959C889.82 737.165 890.189 737.346 890.608 737.502C891.027 737.651 891.474 737.779 891.95 737.886L893.911 738.354C894.862 738.567 895.736 738.852 896.531 739.207C897.327 739.562 898.016 739.999 898.598 740.517C899.18 741.036 899.631 741.646 899.951 742.349C900.278 743.053 900.445 743.859 900.452 744.768C900.445 746.103 900.104 747.261 899.429 748.241C898.761 749.214 897.795 749.97 896.531 750.51C895.274 751.043 893.758 751.309 891.982 751.309C890.221 751.309 888.687 751.039 887.38 750.499C886.08 749.96 885.065 749.161 884.333 748.102C883.609 747.037 883.229 745.719 883.193 744.15H887.657C887.707 744.881 887.916 745.492 888.286 745.982C888.662 746.465 889.163 746.831 889.788 747.08C890.42 747.321 891.134 747.442 891.929 747.442C892.71 747.442 893.388 747.328 893.964 747.101C894.546 746.874 894.997 746.558 895.317 746.153C895.636 745.748 895.796 745.283 895.796 744.757C895.796 744.267 895.651 743.855 895.359 743.521C895.075 743.187 894.656 742.903 894.102 742.669C893.555 742.435 892.884 742.222 892.089 742.03L889.713 741.433C887.874 740.986 886.421 740.286 885.356 739.335C884.29 738.383 883.761 737.101 883.768 735.489C883.761 734.168 884.113 733.013 884.823 732.026C885.54 731.039 886.524 730.268 887.774 729.714C889.024 729.161 890.445 728.884 892.036 728.884C893.655 728.884 895.068 729.161 896.276 729.714C897.49 730.268 898.435 731.039 899.109 732.026C899.784 733.013 900.132 734.157 900.153 735.457H895.732ZM913.963 744.033V734.636H918.501V751H914.144V748.028H913.974C913.604 748.987 912.99 749.757 912.131 750.339C911.278 750.922 910.238 751.213 909.009 751.213C907.915 751.213 906.953 750.964 906.122 750.467C905.291 749.97 904.641 749.263 904.172 748.347C903.711 747.431 903.476 746.334 903.469 745.055V734.636H908.008V744.246C908.015 745.212 908.274 745.975 908.785 746.536C909.297 747.097 909.982 747.378 910.841 747.378C911.388 747.378 911.9 747.254 912.376 747.005C912.851 746.749 913.235 746.373 913.526 745.876C913.824 745.379 913.97 744.764 913.963 744.033ZM929.504 757.477C928.033 757.477 926.773 757.275 925.722 756.87C924.678 756.472 923.847 755.929 923.229 755.24C922.611 754.551 922.21 753.777 922.025 752.918L926.222 752.353C926.35 752.68 926.553 752.985 926.83 753.269C927.107 753.553 927.472 753.781 927.927 753.951C928.388 754.129 928.95 754.217 929.61 754.217C930.597 754.217 931.411 753.976 932.05 753.493C932.696 753.017 933.019 752.218 933.019 751.096V748.102H932.827C932.629 748.557 932.33 748.987 931.933 749.391C931.535 749.796 931.023 750.126 930.398 750.382C929.773 750.638 929.028 750.766 928.161 750.766C926.933 750.766 925.814 750.482 924.805 749.913C923.804 749.338 923.005 748.461 922.408 747.282C921.819 746.096 921.524 744.597 921.524 742.786C921.524 740.933 921.826 739.384 922.43 738.141C923.033 736.898 923.836 735.968 924.837 735.35C925.846 734.732 926.95 734.423 928.151 734.423C929.067 734.423 929.834 734.58 930.452 734.892C931.07 735.197 931.567 735.581 931.943 736.043C932.327 736.497 932.621 736.945 932.827 737.385H932.998V734.636H937.504V751.16C937.504 752.552 937.163 753.717 936.482 754.654C935.8 755.592 934.855 756.295 933.648 756.763C932.447 757.239 931.066 757.477 929.504 757.477ZM929.599 747.357C930.331 747.357 930.949 747.175 931.453 746.813C931.964 746.444 932.355 745.918 932.625 745.237C932.902 744.548 933.04 743.724 933.04 742.765C933.04 741.806 932.906 740.975 932.636 740.272C932.366 739.562 931.975 739.011 931.464 738.621C930.952 738.23 930.331 738.035 929.599 738.035C928.854 738.035 928.225 738.237 927.714 738.642C927.202 739.04 926.815 739.594 926.553 740.304C926.29 741.014 926.158 741.835 926.158 742.765C926.158 743.71 926.29 744.526 926.553 745.215C926.822 745.897 927.21 746.426 927.714 746.803C928.225 747.172 928.854 747.357 929.599 747.357ZM948.488 757.477C947.018 757.477 945.757 757.275 944.706 756.87C943.662 756.472 942.831 755.929 942.213 755.24C941.595 754.551 941.194 753.777 941.009 752.918L945.207 752.353C945.335 752.68 945.537 752.985 945.814 753.269C946.091 753.553 946.457 753.781 946.911 753.951C947.373 754.129 947.934 754.217 948.594 754.217C949.582 754.217 950.395 753.976 951.034 753.493C951.68 753.017 952.004 752.218 952.004 751.096V748.102H951.812C951.613 748.557 951.315 748.987 950.917 749.391C950.519 749.796 950.008 750.126 949.383 750.382C948.758 750.638 948.012 750.766 947.146 750.766C945.917 750.766 944.798 750.482 943.79 749.913C942.788 749.338 941.989 748.461 941.393 747.282C940.803 746.096 940.509 744.597 940.509 742.786C940.509 740.933 940.81 739.384 941.414 738.141C942.018 736.898 942.82 735.968 943.822 735.35C944.83 734.732 945.935 734.423 947.135 734.423C948.051 734.423 948.818 734.58 949.436 734.892C950.054 735.197 950.551 735.581 950.928 736.043C951.311 736.497 951.606 736.945 951.812 737.385H951.982V734.636H956.489V751.16C956.489 752.552 956.148 753.717 955.466 754.654C954.784 755.592 953.839 756.295 952.632 756.763C951.432 757.239 950.05 757.477 948.488 757.477ZM948.584 747.357C949.315 747.357 949.933 747.175 950.438 746.813C950.949 746.444 951.339 745.918 951.609 745.237C951.886 744.548 952.025 743.724 952.025 742.765C952.025 741.806 951.89 740.975 951.62 740.272C951.35 739.562 950.96 739.011 950.448 738.621C949.937 738.23 949.315 738.035 948.584 738.035C947.838 738.035 947.21 738.237 946.698 738.642C946.187 739.04 945.8 739.594 945.537 740.304C945.274 741.014 945.143 741.835 945.143 742.765C945.143 743.71 945.274 744.526 945.537 745.215C945.807 745.897 946.194 746.426 946.698 746.803C947.21 747.172 947.838 747.357 948.584 747.357ZM967.558 751.32C965.874 751.32 964.425 750.979 963.211 750.297C962.004 749.608 961.073 748.635 960.42 747.378C959.766 746.114 959.44 744.619 959.44 742.893C959.44 741.21 959.766 739.732 960.42 738.461C961.073 737.19 961.993 736.199 963.179 735.489C964.372 734.778 965.771 734.423 967.376 734.423C968.456 734.423 969.461 734.597 970.391 734.945C971.329 735.286 972.146 735.801 972.842 736.49C973.545 737.179 974.092 738.045 974.482 739.089C974.873 740.126 975.068 741.341 975.068 742.733V743.979H961.251V741.167H970.796C970.796 740.513 970.654 739.935 970.37 739.43C970.086 738.926 969.692 738.532 969.188 738.248C968.69 737.957 968.112 737.811 967.451 737.811C966.762 737.811 966.151 737.971 965.619 738.29C965.093 738.603 964.681 739.026 964.383 739.558C964.085 740.084 963.932 740.67 963.925 741.316V743.99C963.925 744.8 964.074 745.499 964.372 746.089C964.678 746.678 965.107 747.133 965.661 747.452C966.215 747.772 966.872 747.932 967.632 747.932C968.136 747.932 968.598 747.861 969.017 747.719C969.436 747.577 969.795 747.364 970.093 747.08C970.391 746.795 970.619 746.447 970.775 746.036L974.972 746.312C974.759 747.321 974.322 748.202 973.662 748.955C973.009 749.7 972.163 750.283 971.126 750.702C970.097 751.114 968.907 751.32 967.558 751.32ZM991.645 739.303L987.49 739.558C987.419 739.203 987.266 738.884 987.032 738.599C986.798 738.308 986.489 738.077 986.105 737.907C985.729 737.729 985.278 737.641 984.752 737.641C984.049 737.641 983.456 737.79 982.973 738.088C982.49 738.379 982.249 738.77 982.249 739.26C982.249 739.651 982.405 739.981 982.717 740.251C983.03 740.521 983.566 740.737 984.326 740.901L987.288 741.497C988.879 741.824 990.065 742.349 990.846 743.074C991.627 743.798 992.018 744.75 992.018 745.929C992.018 747.001 991.702 747.942 991.07 748.752C990.445 749.562 989.585 750.194 988.491 750.648C987.405 751.096 986.151 751.32 984.731 751.32C982.565 751.32 980.839 750.869 979.553 749.967C978.275 749.058 977.526 747.822 977.305 746.259L981.769 746.025C981.904 746.685 982.231 747.19 982.749 747.538C983.268 747.879 983.932 748.049 984.741 748.049C985.537 748.049 986.176 747.896 986.659 747.591C987.149 747.278 987.398 746.877 987.405 746.387C987.398 745.975 987.224 745.638 986.883 745.375C986.542 745.105 986.016 744.899 985.306 744.757L982.472 744.192C980.874 743.873 979.685 743.319 978.903 742.531C978.129 741.742 977.742 740.737 977.742 739.516C977.742 738.464 978.026 737.559 978.594 736.799C979.17 736.039 979.976 735.453 981.013 735.041C982.057 734.629 983.278 734.423 984.678 734.423C986.744 734.423 988.371 734.86 989.557 735.734C990.75 736.607 991.446 737.797 991.645 739.303ZM1003.58 734.636V738.045H993.725V734.636H1003.58ZM995.962 730.716H1000.5V745.972C1000.5 746.391 1000.56 746.717 1000.69 746.952C1000.82 747.179 1001 747.339 1001.22 747.431C1001.46 747.523 1001.73 747.57 1002.03 747.57C1002.25 747.57 1002.46 747.552 1002.67 747.516C1002.89 747.474 1003.05 747.442 1003.16 747.42L1003.88 750.798C1003.65 750.869 1003.33 750.95 1002.92 751.043C1002.51 751.142 1002.01 751.202 1001.42 751.224C1000.32 751.266 999.364 751.121 998.54 750.787C997.724 750.453 997.088 749.935 996.633 749.232C996.179 748.528 995.955 747.641 995.962 746.568V730.716ZM1013.75 751.32C1012.1 751.32 1010.67 750.968 1009.46 750.265C1008.26 749.555 1007.33 748.567 1006.68 747.303C1006.03 746.032 1005.7 744.558 1005.7 742.882C1005.7 741.192 1006.03 739.714 1006.68 738.45C1007.33 737.179 1008.26 736.192 1009.46 735.489C1010.67 734.778 1012.1 734.423 1013.75 734.423C1015.41 734.423 1016.84 734.778 1018.04 735.489C1019.24 736.192 1020.17 737.179 1020.83 738.45C1021.48 739.714 1021.81 741.192 1021.81 742.882C1021.81 744.558 1021.48 746.032 1020.83 747.303C1020.17 748.567 1019.24 749.555 1018.04 750.265C1016.84 750.968 1015.41 751.32 1013.75 751.32ZM1013.77 747.804C1014.53 747.804 1015.16 747.591 1015.66 747.165C1016.16 746.732 1016.54 746.142 1016.8 745.396C1017.06 744.651 1017.19 743.802 1017.19 742.85C1017.19 741.898 1017.06 741.05 1016.8 740.304C1016.54 739.558 1016.16 738.969 1015.66 738.536C1015.16 738.102 1014.53 737.886 1013.77 737.886C1013.01 737.886 1012.38 738.102 1011.86 738.536C1011.35 738.969 1010.96 739.558 1010.7 740.304C1010.44 741.05 1010.31 741.898 1010.31 742.85C1010.31 743.802 1010.44 744.651 1010.7 745.396C1010.96 746.142 1011.35 746.732 1011.86 747.165C1012.38 747.591 1013.01 747.804 1013.77 747.804ZM1024.76 751V734.636H1029.16V737.491H1029.33C1029.63 736.476 1030.13 735.709 1030.83 735.19C1031.53 734.665 1032.34 734.402 1033.26 734.402C1033.49 734.402 1033.73 734.416 1033.99 734.445C1034.26 734.473 1034.49 734.512 1034.69 734.562V738.589C1034.47 738.525 1034.18 738.468 1033.8 738.418C1033.43 738.369 1033.08 738.344 1032.77 738.344C1032.1 738.344 1031.51 738.489 1030.98 738.781C1030.46 739.065 1030.05 739.462 1029.74 739.974C1029.45 740.485 1029.3 741.075 1029.3 741.742V751H1024.76ZM1051.59 736.234C1051.44 735.716 1051.23 735.258 1050.96 734.86C1050.69 734.455 1050.36 734.114 1049.97 733.837C1049.58 733.553 1049.14 733.337 1048.65 733.188C1048.16 733.038 1047.61 732.964 1047.02 732.964C1045.9 732.964 1044.92 733.241 1044.08 733.795C1043.24 734.349 1042.58 735.155 1042.12 736.213C1041.65 737.264 1041.41 738.55 1041.41 740.07C1041.41 741.589 1041.64 742.882 1042.1 743.947C1042.57 745.013 1043.22 745.826 1044.06 746.387C1044.91 746.941 1045.91 747.218 1047.06 747.218C1048.1 747.218 1048.99 747.033 1049.73 746.664C1050.48 746.288 1051.05 745.759 1051.44 745.077C1051.83 744.395 1052.03 743.589 1052.03 742.658L1052.97 742.797H1047.35V739.324H1056.48V742.072C1056.48 743.99 1056.07 745.638 1055.26 747.016C1054.45 748.386 1053.34 749.445 1051.92 750.19C1050.5 750.929 1048.87 751.298 1047.04 751.298C1044.99 751.298 1043.19 750.847 1041.65 749.945C1040.1 749.036 1038.89 747.747 1038.02 746.078C1037.17 744.402 1036.74 742.413 1036.74 740.112C1036.74 738.344 1036.99 736.767 1037.5 735.382C1038.02 733.99 1038.75 732.811 1039.68 731.845C1040.61 730.879 1041.69 730.144 1042.93 729.64C1044.16 729.136 1045.5 728.884 1046.94 728.884C1048.18 728.884 1049.33 729.065 1050.39 729.427C1051.46 729.782 1052.4 730.286 1053.23 730.94C1054.06 731.593 1054.74 732.371 1055.26 733.273C1055.79 734.168 1056.12 735.155 1056.27 736.234H1051.59ZM1059.94 751V729.182H1068.55C1070.2 729.182 1071.61 729.498 1072.78 730.13C1073.94 730.755 1074.83 731.625 1075.44 732.74C1076.06 733.848 1076.37 735.126 1076.37 736.575C1076.37 738.024 1076.06 739.303 1075.43 740.411C1074.81 741.518 1073.9 742.381 1072.71 742.999C1071.54 743.617 1070.11 743.926 1068.43 743.926H1062.95V740.229H1067.69C1068.57 740.229 1069.31 740.077 1069.88 739.771C1070.46 739.459 1070.9 739.029 1071.18 738.482C1071.47 737.928 1071.62 737.293 1071.62 736.575C1071.62 735.851 1071.47 735.219 1071.18 734.679C1070.9 734.132 1070.46 733.71 1069.88 733.411C1069.3 733.106 1068.56 732.953 1067.66 732.953H1064.55V751H1059.94ZM1078.53 732.985V729.182H1096.45V732.985H1089.77V751H1085.21V732.985H1078.53Z" fill="#D8BFD8"/>
<rect x="420" y="320" width="300" height="200" rx="20" fill="#CF2F74"/>
<path d="M451.896 431V409.182H466.342V412.985H456.509V418.184H465.384V421.987H456.509V431H451.896ZM473.898 409.182V431H469.36V409.182H473.898ZM482.2 431.309C481.156 431.309 480.225 431.128 479.409 430.766C478.592 430.396 477.946 429.853 477.47 429.136C477.001 428.411 476.767 427.509 476.767 426.43C476.767 425.521 476.934 424.757 477.267 424.139C477.601 423.521 478.056 423.024 478.631 422.648C479.206 422.271 479.86 421.987 480.591 421.795C481.33 421.604 482.104 421.469 482.914 421.391C483.865 421.291 484.632 421.199 485.215 421.114C485.797 421.021 486.22 420.886 486.483 420.709C486.745 420.531 486.877 420.268 486.877 419.92V419.857C486.877 419.182 486.664 418.66 486.238 418.29C485.819 417.921 485.222 417.737 484.448 417.737C483.631 417.737 482.981 417.918 482.498 418.28C482.015 418.635 481.696 419.082 481.539 419.622L477.342 419.281C477.555 418.287 477.974 417.428 478.599 416.703C479.224 415.972 480.03 415.411 481.017 415.02C482.012 414.622 483.162 414.423 484.469 414.423C485.378 414.423 486.248 414.53 487.079 414.743C487.917 414.956 488.659 415.286 489.306 415.734C489.959 416.181 490.474 416.756 490.85 417.46C491.227 418.156 491.415 418.99 491.415 419.963V431H487.111V428.731H486.983C486.721 429.242 486.369 429.693 485.929 430.084C485.488 430.467 484.959 430.769 484.341 430.989C483.723 431.202 483.01 431.309 482.2 431.309ZM483.5 428.177C484.167 428.177 484.757 428.045 485.268 427.783C485.779 427.513 486.181 427.151 486.472 426.696C486.763 426.241 486.909 425.727 486.909 425.151V423.415C486.767 423.507 486.571 423.592 486.323 423.67C486.081 423.741 485.808 423.809 485.502 423.873C485.197 423.93 484.892 423.983 484.586 424.033C484.281 424.075 484.004 424.114 483.755 424.15C483.223 424.228 482.757 424.352 482.36 424.523C481.962 424.693 481.653 424.924 481.433 425.215C481.213 425.499 481.103 425.854 481.103 426.281C481.103 426.898 481.326 427.371 481.774 427.697C482.228 428.017 482.804 428.177 483.5 428.177ZM508.551 419.303L504.396 419.558C504.325 419.203 504.173 418.884 503.938 418.599C503.704 418.308 503.395 418.077 503.011 417.907C502.635 417.729 502.184 417.641 501.658 417.641C500.955 417.641 500.362 417.79 499.879 418.088C499.396 418.379 499.155 418.77 499.155 419.26C499.155 419.651 499.311 419.981 499.624 420.251C499.936 420.521 500.472 420.737 501.232 420.901L504.194 421.497C505.785 421.824 506.971 422.349 507.752 423.074C508.533 423.798 508.924 424.75 508.924 425.929C508.924 427.001 508.608 427.942 507.976 428.752C507.351 429.562 506.491 430.194 505.398 430.648C504.311 431.096 503.058 431.32 501.637 431.32C499.471 431.32 497.745 430.869 496.46 429.967C495.181 429.058 494.432 427.822 494.212 426.259L498.675 426.025C498.81 426.685 499.137 427.19 499.656 427.538C500.174 427.879 500.838 428.049 501.648 428.049C502.443 428.049 503.082 427.896 503.565 427.591C504.055 427.278 504.304 426.877 504.311 426.387C504.304 425.975 504.13 425.638 503.789 425.375C503.448 425.105 502.923 424.899 502.212 424.757L499.379 424.192C497.781 423.873 496.591 423.319 495.81 422.531C495.036 421.742 494.648 420.737 494.648 419.516C494.648 418.464 494.933 417.559 495.501 416.799C496.076 416.039 496.882 415.453 497.919 415.041C498.963 414.629 500.185 414.423 501.584 414.423C503.651 414.423 505.277 414.86 506.463 415.734C507.656 416.607 508.352 417.797 508.551 419.303ZM515.894 426.291L515.905 420.847H516.565L521.807 414.636H527.016L519.974 422.861H518.898L515.894 426.291ZM511.782 431V409.182H516.32V431H511.782ZM522.009 431L517.194 423.873L520.219 420.666L527.325 431H522.009ZM537.188 422.254C537.188 419.612 537.539 417.179 538.242 414.956C538.952 412.733 540.036 410.673 541.491 408.777H545.827C545.273 409.48 544.759 410.339 544.283 411.355C543.807 412.364 543.391 413.472 543.036 414.679C542.681 415.886 542.404 417.136 542.205 418.429C542.006 419.714 541.907 420.989 541.907 422.254C541.907 423.937 542.077 425.638 542.418 427.357C542.766 429.068 543.235 430.659 543.825 432.129C544.421 433.599 545.089 434.803 545.827 435.741H541.491C540.036 433.844 538.952 431.785 538.242 429.562C537.539 427.339 537.188 424.903 537.188 422.254ZM548.547 431V409.182H553.085V417.385H553.224C553.422 416.945 553.71 416.497 554.086 416.043C554.47 415.581 554.967 415.197 555.578 414.892C556.196 414.58 556.963 414.423 557.879 414.423C559.072 414.423 560.173 414.736 561.182 415.361C562.19 415.979 562.996 416.913 563.6 418.163C564.204 419.406 564.506 420.964 564.506 422.839C564.506 424.665 564.211 426.206 563.621 427.463C563.039 428.713 562.243 429.661 561.235 430.308C560.233 430.947 559.111 431.266 557.868 431.266C556.988 431.266 556.238 431.121 555.621 430.83C555.01 430.538 554.509 430.173 554.118 429.732C553.728 429.285 553.43 428.834 553.224 428.379H553.021V431H548.547ZM552.989 422.818C552.989 423.791 553.124 424.64 553.394 425.364C553.664 426.089 554.055 426.653 554.566 427.058C555.077 427.456 555.699 427.655 556.43 427.655C557.169 427.655 557.794 427.452 558.305 427.048C558.817 426.636 559.204 426.067 559.466 425.343C559.736 424.612 559.871 423.77 559.871 422.818C559.871 421.874 559.74 421.043 559.477 420.325C559.214 419.608 558.827 419.047 558.316 418.642C557.805 418.237 557.176 418.035 556.43 418.035C555.692 418.035 555.067 418.23 554.555 418.621C554.051 419.011 553.664 419.565 553.394 420.283C553.124 421 552.989 421.845 552.989 422.818ZM572.2 431.309C571.156 431.309 570.225 431.128 569.409 430.766C568.592 430.396 567.946 429.853 567.47 429.136C567.001 428.411 566.767 427.509 566.767 426.43C566.767 425.521 566.934 424.757 567.267 424.139C567.601 423.521 568.056 423.024 568.631 422.648C569.206 422.271 569.86 421.987 570.591 421.795C571.33 421.604 572.104 421.469 572.914 421.391C573.865 421.291 574.632 421.199 575.215 421.114C575.797 421.021 576.22 420.886 576.483 420.709C576.745 420.531 576.877 420.268 576.877 419.92V419.857C576.877 419.182 576.664 418.66 576.238 418.29C575.819 417.921 575.222 417.737 574.448 417.737C573.631 417.737 572.981 417.918 572.498 418.28C572.015 418.635 571.696 419.082 571.539 419.622L567.342 419.281C567.555 418.287 567.974 417.428 568.599 416.703C569.224 415.972 570.03 415.411 571.017 415.02C572.012 414.622 573.162 414.423 574.469 414.423C575.378 414.423 576.248 414.53 577.079 414.743C577.917 414.956 578.659 415.286 579.306 415.734C579.959 416.181 580.474 416.756 580.85 417.46C581.227 418.156 581.415 418.99 581.415 419.963V431H577.111V428.731H576.983C576.721 429.242 576.369 429.693 575.929 430.084C575.488 430.467 574.959 430.769 574.341 430.989C573.723 431.202 573.01 431.309 572.2 431.309ZM573.5 428.177C574.167 428.177 574.757 428.045 575.268 427.783C575.779 427.513 576.181 427.151 576.472 426.696C576.763 426.241 576.909 425.727 576.909 425.151V423.415C576.767 423.507 576.571 423.592 576.323 423.67C576.081 423.741 575.808 423.809 575.502 423.873C575.197 423.93 574.892 423.983 574.586 424.033C574.281 424.075 574.004 424.114 573.755 424.15C573.223 424.228 572.757 424.352 572.36 424.523C571.962 424.693 571.653 424.924 571.433 425.215C571.213 425.499 571.103 425.854 571.103 426.281C571.103 426.898 571.326 427.371 571.774 427.697C572.228 428.017 572.804 428.177 573.5 428.177ZM592.33 431.32C590.653 431.32 589.212 430.964 588.004 430.254C586.804 429.537 585.881 428.543 585.234 427.271C584.595 426 584.276 424.537 584.276 422.882C584.276 421.206 584.599 419.736 585.245 418.472C585.898 417.2 586.825 416.21 588.026 415.499C589.226 414.782 590.653 414.423 592.308 414.423C593.736 414.423 594.986 414.683 596.058 415.201C597.131 415.719 597.979 416.447 598.604 417.385C599.229 418.322 599.574 419.423 599.638 420.688H595.355C595.234 419.871 594.915 419.214 594.396 418.717C593.885 418.212 593.214 417.96 592.383 417.96C591.68 417.96 591.065 418.152 590.54 418.536C590.021 418.912 589.616 419.462 589.325 420.187C589.034 420.911 588.888 421.788 588.888 422.818C588.888 423.862 589.031 424.75 589.315 425.482C589.606 426.213 590.014 426.771 590.54 427.154C591.065 427.538 591.68 427.729 592.383 427.729C592.901 427.729 593.366 427.623 593.778 427.41C594.197 427.197 594.542 426.888 594.812 426.483C595.089 426.071 595.27 425.577 595.355 425.002H599.638C599.567 426.252 599.226 427.353 598.615 428.305C598.011 429.249 597.177 429.988 596.112 430.521C595.046 431.053 593.786 431.32 592.33 431.32ZM606.656 426.291L606.666 420.847H607.327L612.568 414.636H617.778L610.736 422.861H609.66L606.656 426.291ZM602.544 431V409.182H607.082V431H602.544ZM612.771 431L607.955 423.873L610.981 420.666L618.087 431H612.771ZM626.788 431.32C625.105 431.32 623.656 430.979 622.441 430.297C621.234 429.608 620.304 428.635 619.65 427.378C618.997 426.114 618.67 424.619 618.67 422.893C618.67 421.21 618.997 419.732 619.65 418.461C620.304 417.19 621.223 416.199 622.409 415.489C623.603 414.778 625.002 414.423 626.607 414.423C627.686 414.423 628.691 414.597 629.622 414.945C630.559 415.286 631.376 415.801 632.072 416.49C632.775 417.179 633.322 418.045 633.713 419.089C634.103 420.126 634.299 421.341 634.299 422.733V423.979H620.481V421.167H630.027C630.027 420.513 629.885 419.935 629.6 419.43C629.316 418.926 628.922 418.532 628.418 418.248C627.921 417.957 627.342 417.811 626.681 417.811C625.993 417.811 625.382 417.971 624.849 418.29C624.324 418.603 623.912 419.026 623.613 419.558C623.315 420.084 623.162 420.67 623.155 421.316V423.99C623.155 424.8 623.304 425.499 623.603 426.089C623.908 426.678 624.338 427.133 624.892 427.452C625.446 427.772 626.103 427.932 626.863 427.932C627.367 427.932 627.828 427.861 628.248 427.719C628.667 427.577 629.025 427.364 629.324 427.08C629.622 426.795 629.849 426.447 630.005 426.036L634.203 426.312C633.99 427.321 633.553 428.202 632.892 428.955C632.239 429.7 631.394 430.283 630.357 430.702C629.327 431.114 628.137 431.32 626.788 431.32ZM641.799 421.54V431H637.26V414.636H641.586V417.523H641.777C642.14 416.572 642.747 415.819 643.599 415.265C644.451 414.704 645.485 414.423 646.699 414.423C647.836 414.423 648.826 414.672 649.672 415.169C650.517 415.666 651.174 416.376 651.642 417.3C652.111 418.216 652.346 419.31 652.346 420.581V431H647.807V421.391C647.814 420.389 647.559 419.608 647.04 419.047C646.522 418.479 645.808 418.195 644.899 418.195C644.288 418.195 643.748 418.326 643.279 418.589C642.818 418.852 642.456 419.235 642.193 419.739C641.937 420.237 641.806 420.837 641.799 421.54ZM661.952 431.266C660.709 431.266 659.584 430.947 658.575 430.308C657.574 429.661 656.778 428.713 656.189 427.463C655.606 426.206 655.315 424.665 655.315 422.839C655.315 420.964 655.617 419.406 656.221 418.163C656.824 416.913 657.627 415.979 658.628 415.361C659.637 414.736 660.741 414.423 661.942 414.423C662.858 414.423 663.621 414.58 664.232 414.892C664.85 415.197 665.347 415.581 665.724 416.043C666.107 416.497 666.398 416.945 666.597 417.385H666.736V409.182H671.263V431H666.789V428.379H666.597C666.384 428.834 666.082 429.285 665.692 429.732C665.308 430.173 664.807 430.538 664.189 430.83C663.579 431.121 662.833 431.266 661.952 431.266ZM663.39 427.655C664.122 427.655 664.74 427.456 665.244 427.058C665.756 426.653 666.146 426.089 666.416 425.364C666.693 424.64 666.831 423.791 666.831 422.818C666.831 421.845 666.697 421 666.427 420.283C666.157 419.565 665.766 419.011 665.255 418.621C664.743 418.23 664.122 418.035 663.39 418.035C662.645 418.035 662.016 418.237 661.505 418.642C660.993 419.047 660.606 419.608 660.344 420.325C660.081 421.043 659.949 421.874 659.949 422.818C659.949 423.77 660.081 424.612 660.344 425.343C660.613 426.067 661.001 426.636 661.505 427.048C662.016 427.452 662.645 427.655 663.39 427.655ZM682.644 422.254C682.644 424.903 682.289 427.339 681.578 429.562C680.875 431.785 679.796 433.844 678.34 435.741H674.004C674.558 435.038 675.073 434.178 675.549 433.163C676.025 432.147 676.44 431.039 676.795 429.839C677.15 428.631 677.427 427.381 677.626 426.089C677.825 424.796 677.924 423.518 677.924 422.254C677.924 420.57 677.75 418.873 677.402 417.161C677.061 415.442 676.593 413.852 675.996 412.388C675.407 410.918 674.743 409.714 674.004 408.777H678.34C679.796 410.673 680.875 412.733 681.578 414.956C682.289 417.179 682.644 419.612 682.644 422.254Z" fill="#D8BFD8"/>
<path d="M571.061 218.939C570.475 218.354 569.525 218.354 568.939 218.939L559.393 228.485C558.808 229.071 558.808 230.021 559.393 230.607C559.979 231.192 560.929 231.192 561.515 230.607L570 222.121L578.485 230.607C579.071 231.192 580.021 231.192 580.607 230.607C581.192 230.021 581.192 229.071 580.607 228.485L571.061 218.939ZM571.5 260V220H568.5V260H571.5Z" fill="black"/>
<path d="M571.061 538.939C570.475 538.354 569.525 538.354 568.939 538.939L559.393 548.485C558.808 549.071 558.808 550.021 559.393 550.607C559.979 551.192 560.929 551.192 561.515 550.607L570 542.121L578.485 550.607C579.071 551.192 580.021 551.192 580.607 550.607C581.192 550.021 581.192 549.071 580.607 548.485L571.061 538.939ZM571.5 580V540H568.5V580H571.5Z" fill="black"/>
<path d="M821.061 415.049C821.646 414.463 821.646 413.513 821.061 412.927L811.515 403.381C810.929 402.796 809.979 402.796 809.393 403.381C808.808 403.967 808.808 404.917 809.393 405.503L817.879 413.988L809.393 422.473C808.808 423.059 808.808 424.009 809.393 424.595C809.979 425.18 810.929 425.18 811.515 424.595L821.061 415.049ZM780 415.488H820V412.488H780V415.488Z" fill="black"/>
<path d="M738.939 98.9393C738.354 99.5251 738.354 100.475 738.939 101.061L748.485 110.607C749.071 111.192 750.021 111.192 750.607 110.607C751.192 110.021 751.192 109.071 750.607 108.485L742.121 100L750.607 91.5147C751.192 90.9289 751.192 89.9792 750.607 89.3934C750.021 88.8076 749.071 88.8076 748.485 89.3934L738.939 98.9393ZM820 98.5L740 98.5V101.5L820 101.5V98.5Z" fill="black"/>
<path d="M568.939 301.061C569.525 301.646 570.475 301.646 571.061 301.061L580.607 291.515C581.192 290.929 581.192 289.979 580.607 289.393C580.021 288.808 579.071 288.808 578.485 289.393L570 297.879L561.515 289.393C560.929 288.808 559.979 288.808 559.393 289.393C558.808 289.979 558.808 290.929 559.393 291.515L568.939 301.061ZM568.5 260V300H571.5V260H568.5Z" fill="black"/>
<path d="M568.939 621.061C569.525 621.646 570.475 621.646 571.061 621.061L580.607 611.515C581.192 610.929 581.192 609.979 580.607 609.393C580.021 608.808 579.071 608.808 578.485 609.393L570 617.879L561.515 609.393C560.929 608.808 559.979 608.808 559.393 609.393C558.808 609.979 558.808 610.929 559.393 611.515L568.939 621.061ZM568.5 580V620H571.5V580H568.5Z" fill="black"/>
<path d="M738.939 412.951C738.354 413.537 738.354 414.487 738.939 415.073L748.485 424.619C749.071 425.204 750.021 425.204 750.607 424.619C751.192 424.033 751.192 423.083 750.607 422.497L742.121 414.012L750.607 405.527C751.192 404.941 751.192 403.991 750.607 403.405C750.021 402.82 749.071 402.82 748.485 403.405L738.939 412.951ZM780 412.512H740V415.512H780V412.512Z" fill="black"/>
<path d="M717.071 525.571C716.243 525.571 715.571 526.243 715.571 527.071L715.571 540.571C715.571 541.4 716.243 542.071 717.071 542.071C717.899 542.071 718.571 541.4 718.571 540.571L718.571 528.571L730.571 528.571C731.399 528.571 732.071 527.9 732.071 527.071C732.071 526.243 731.399 525.571 730.571 525.571L717.071 525.571ZM817.127 625.005L718.132 526.01L716.01 528.132L815.005 627.127L817.127 625.005Z" fill="#B5B5B5"/>
<path d="M293.771 633.181C293.771 634.009 294.443 634.681 295.271 634.681L308.771 634.681C309.6 634.681 310.271 634.009 310.271 633.181C310.271 632.353 309.6 631.681 308.771 631.681L296.771 631.681L296.771 619.681C296.771 618.853 296.1 618.181 295.271 618.181C294.443 618.181 293.771 618.853 293.771 619.681L293.771 633.181ZM393.205 533.125L294.211 632.12L296.332 634.242L395.327 535.247L393.205 533.125Z" fill="#B5B5B5"/>
<path d="M835.042 646.542C835.87 646.542 836.542 645.87 836.542 645.042L836.542 631.542C836.542 630.713 835.87 630.042 835.042 630.042C834.213 630.042 833.542 630.713 833.542 631.542V643.542H821.542C820.713 643.542 820.042 644.213 820.042 645.042C820.042 645.87 820.713 646.542 821.542 646.542L835.042 646.542ZM809.898 622.019L833.981 646.102L836.102 643.981L812.019 619.898L809.898 622.019Z" fill="#B5B5B5"/>
<path d="M415.077 514.907C415.077 514.079 414.405 513.407 413.577 513.407L400.077 513.407C399.248 513.407 398.577 514.079 398.577 514.907C398.577 515.735 399.248 516.407 400.077 516.407H412.077V528.407C412.077 529.235 412.748 529.907 413.577 529.907C414.405 529.907 415.077 529.235 415.077 528.407L415.077 514.907ZM390.554 540.051L414.637 515.968L412.516 513.846L388.433 537.93L390.554 540.051Z" fill="#B5B5B5"/>
<path d="M834.751 207.249C834.751 206.421 834.079 205.749 833.251 205.749L819.751 205.749C818.922 205.749 818.251 206.421 818.251 207.249C818.251 208.078 818.922 208.749 819.751 208.749L831.751 208.749L831.751 220.749C831.751 221.578 832.422 222.249 833.251 222.249C834.079 222.249 834.751 221.578 834.751 220.749L834.751 207.249ZM725.81 316.811L834.311 208.31L832.19 206.189L723.689 314.69L725.81 316.811Z" fill="black"/>
</svg>
